<svg width="12" height="12" viewBox="0 0 12 12" fill="none" xmlns="http://www.w3.org/2000/svg">
<g clip-path="url(#clip0_31_4674)">
<path d="M3.01199 1.16398L2.43968 0.869663C1.88862 0.586282 1.24755 0.533418 0.657521 0.722684L0.574923 0.749175C0.476835 0.780648 0.465764 0.915005 0.557364 0.96211L2.58074 2.00263L3.38493 2.43797L3.85791 1.58091L3.01199 1.16398Z" fill="#EFEDEE"/>
<path d="M5.87408 3.69619C5.96568 3.7433 6.06852 3.65614 6.03707 3.55805L6.01058 3.47545C5.82129 2.88542 5.40538 2.39472 4.85432 2.11134L3.44938 1.36337L3.01199 2.24943L5.87408 3.69619Z" fill="#EFEDEE"/>
<path d="M1.15344 7.48183C1.09543 7.60058 0.951173 7.64848 0.833646 7.58803L0.319512 7.32364C0.201984 7.26321 0.157042 7.11801 0.219872 7.00176L3.72477 0.501419C3.78581 0.388475 3.92595 0.345108 4.04012 0.403801L4.29788 0.536348C4.41204 0.595065 4.45828 0.734287 4.40194 0.849652L1.15344 7.48183Z" fill="#B3ADB5"/>
<path d="M5.17294 11.4102C6.95056 11.4102 8.39161 9.9691 8.39161 8.19148C8.39161 6.41386 6.95056 4.97281 5.17294 4.97281C3.39532 4.97281 1.95427 6.41386 1.95427 8.19148C1.95427 9.9691 3.39532 11.4102 5.17294 11.4102Z" fill="#FCF0B6"/>
<path d="M3.2992 8.42015C3.2992 6.69407 4.66501 5.28116 6.37261 5.20491C6.00167 5.05537 5.59679 4.97284 5.17294 4.97284C3.39816 4.97284 1.95427 6.41673 1.95427 8.19151C1.95427 9.96629 3.39816 11.4102 5.17294 11.4102C5.22162 11.4102 5.27002 11.4089 5.31818 11.4067C4.13588 10.9301 3.2992 9.77105 3.2992 8.42015Z" fill="#FBE88C"/>
<path d="M5.16135 10.5897C6.4846 10.5897 7.55731 9.51703 7.55731 8.19378C7.55731 6.87053 6.4846 5.79782 5.16135 5.79782C3.8381 5.79782 2.7654 6.87053 2.7654 8.19378C2.7654 9.51703 3.8381 10.5897 5.16135 10.5897Z" fill="#F5C374"/>
<path d="M4.54694 5.8775C3.5214 6.14883 2.7654 7.08298 2.7654 8.1938C2.7654 9.0234 3.18708 9.75447 3.82775 10.1845C3.49402 9.67749 3.29923 9.07126 3.29923 8.42016C3.2992 7.38733 3.78833 6.46678 4.54694 5.8775Z" fill="#F3B658"/>
<path d="M6.01495 7.48387V7.24016C6.01495 7.12922 5.97875 7.01957 5.91306 6.93135C5.82265 6.81001 5.69939 6.71872 5.56085 6.66576V6.52896C5.56085 6.4316 5.48192 6.35267 5.38456 6.35267C5.2872 6.35267 5.20827 6.4316 5.20827 6.52896V6.61351H4.84031V6.49727C4.84031 6.39992 4.76138 6.32098 4.66402 6.32098C4.56666 6.32098 4.48773 6.39992 4.48773 6.49727V6.61351H4.22734C4.12998 6.61351 4.05105 6.69244 4.05105 6.7898C4.05105 6.88716 4.12998 6.96609 4.22734 6.96609H4.33095V9.27538H4.22734C4.12998 9.27538 4.05105 9.35431 4.05105 9.45167C4.05105 9.54903 4.12998 9.62796 4.22734 9.62796H5.70602C5.80338 9.62796 5.88231 9.54903 5.88231 9.45167C5.88231 9.37935 5.83871 9.31725 5.77639 9.29007C5.92711 9.15795 6.01498 8.96669 6.01498 8.76332V8.51959C6.01498 8.40864 5.97878 8.29897 5.91308 8.2108C5.86393 8.14482 5.80493 8.08789 5.73919 8.04095C5.91249 7.9088 6.01495 7.70343 6.01495 7.48387ZM5.63031 7.14201C5.65097 7.16977 5.66237 7.20462 5.66237 7.24016V7.48387C5.66237 7.59952 5.6052 7.70726 5.50944 7.77216C5.50187 7.77729 5.49212 7.78375 5.48389 7.7881C5.42071 7.82155 5.35226 7.8385 5.28045 7.8385C5.17167 7.8385 4.87632 7.83965 4.68353 7.84045V6.96609H5.28045C5.41949 6.96611 5.54703 7.03021 5.63031 7.14201ZM4.68351 8.24554H5.28043C5.41949 8.24554 5.54701 8.30966 5.63031 8.42145C5.65097 8.44919 5.66235 8.48405 5.66235 8.51959V8.76332C5.66235 8.87896 5.60518 8.98671 5.50942 9.05161C5.50188 9.05674 5.49214 9.06318 5.48387 9.06755C5.42069 9.101 5.35224 9.11794 5.28043 9.11794C5.17165 9.11794 4.8763 9.1191 4.68351 9.11989V8.24554Z" fill="#FCF0B6"/>
<path d="M11.1348 10.4718L11.6042 11.4461H3.62618L4.99396 9.7283C5.02476 9.68952 5.0485 9.64533 5.06378 9.59785L5.85097 7.14364C5.87988 7.05338 5.93442 6.97323 6.00799 6.91329L8.69043 4.72728C8.78563 4.64995 8.9189 4.64055 9.02397 4.70401L9.51054 4.99807C9.59751 5.05048 9.65063 5.14474 9.65063 5.24628V6.50218C9.65063 6.60983 9.69905 6.71161 9.78226 6.77978L10.7998 7.61093C10.9646 7.74538 11.0626 7.94471 11.0687 8.1572L11.1348 10.4718Z" fill="#D6D1D6"/>
<path d="M11.2164 10.6412H6.6094C6.14627 10.6412 5.82892 10.1743 5.99932 9.74365L6.83047 7.64299C6.85938 7.55273 6.91391 7.47257 6.98748 7.41263L9.65061 5.24294C9.64931 5.14283 9.59642 5.04982 9.51054 4.99804L9.02397 4.70398C8.9189 4.64052 8.78563 4.64992 8.69043 4.72725L6.00799 6.91326C5.93442 6.9732 5.87988 7.05335 5.85097 7.14361L5.06378 9.59782C5.0485 9.6453 5.02476 9.68949 4.99396 9.72827L3.62618 11.4461H4.98851H5.0033H11.6042L11.2164 10.6412Z" fill="#C7C0C7"/>
<path d="M11.8237 11.6224H0.176291C0.0789313 11.6224 0 11.5434 0 11.4461C0 11.3487 0.0789313 11.2698 0.176291 11.2698H11.8237C11.9211 11.2698 12 11.3487 12 11.4461C12 11.5434 11.9211 11.6224 11.8237 11.6224Z" fill="#D6D1D6"/>
<path d="M6.48506 9.62796C6.38768 9.62796 6.30877 9.54903 6.30877 9.45167V8.44127C6.30877 8.31826 6.35665 8.20264 6.44362 8.11564L6.98446 7.57481C7.05335 7.50594 7.16496 7.50596 7.23378 7.57481C7.3026 7.64365 7.30263 7.75528 7.23378 7.82411L6.69294 8.36492C6.67256 8.3853 6.66133 8.41242 6.66133 8.44124V9.45165C6.66135 9.54903 6.58244 9.62796 6.48506 9.62796Z" fill="#B3ADB5"/>
<path d="M7.74521 7.2157C7.7001 7.2157 7.65497 7.19849 7.62054 7.16406C7.55169 7.09521 7.55169 6.98358 7.62054 6.91476L7.77657 6.75873C7.84544 6.68988 7.95704 6.68988 8.02589 6.75873C8.09474 6.82758 8.09474 6.9392 8.02589 7.00803L7.86986 7.16406C7.83545 7.19849 7.79032 7.2157 7.74521 7.2157Z" fill="#C7C0C7"/>
<path d="M9.93968 9.93813C9.8423 9.93813 9.76339 9.8592 9.76339 9.76184V8.63927L9.52599 8.40189C9.45714 8.33304 9.45714 8.22141 9.52599 8.15259C9.59486 8.08374 9.70646 8.08374 9.77531 8.15259L10.0643 8.44161C10.0974 8.47466 10.1159 8.51951 10.1159 8.56626V9.76184C10.116 9.8592 10.0371 9.93813 9.93968 9.93813Z" fill="#C7C0C7"/>
<path d="M7.38036 4.60643L8.32876 4.04054C8.37772 4.01132 8.39495 3.94865 8.36801 3.8984C8.21555 3.61398 7.98816 3.43492 7.67808 3.37218C7.62456 3.36135 7.57132 3.39223 7.55475 3.44427L7.22433 4.48272C7.19462 4.57609 7.29621 4.65664 7.38036 4.60643Z" fill="#FBE372"/>
<path d="M6.58014 4.43878C6.57259 4.43878 6.56495 4.43828 6.55726 4.4373C6.46073 4.42479 6.39256 4.33639 6.40507 4.23983L6.47201 3.72266C6.48449 3.6261 6.5729 3.55789 6.66946 3.57046C6.76599 3.58297 6.83416 3.67137 6.82165 3.76793L6.75471 4.2851C6.74324 4.37397 6.66741 4.43878 6.58014 4.43878Z" fill="#FBE372"/>
<path d="M2.59392 0.948975L2.19866 1.71765C2.18655 1.7412 2.17583 1.7652 2.16634 1.78953L2.58074 2.00263L3.38493 2.43797L3.85791 1.58092L3.01199 1.16398L2.59392 0.948975Z" fill="#E4E1E5"/>
<path d="M4.70112 2.02983L3.44934 1.3634L3.01199 2.24946L4.25785 2.87922C4.27482 2.85417 4.29069 2.8281 4.30477 2.80071L4.70004 2.03206C4.70044 2.03131 4.70074 2.03056 4.70112 2.02983Z" fill="#E4E1E5"/>
<path d="M2.57893 2.6266L3.33989 3.01795L4.27842 1.10181L3.59152 0.748566L2.57893 2.6266Z" fill="#A59CA6"/>
<path d="M3.50713 2.70746L2.73848 2.31217C2.60003 2.24097 2.54553 2.07105 2.61672 1.9326L3.01199 1.16395C3.08319 1.0255 3.25311 0.970994 3.39156 1.04219L4.16021 1.43748C4.29866 1.50868 4.35316 1.6786 4.28197 1.81705L3.8867 2.5857C3.8155 2.72415 3.64558 2.77866 3.50713 2.70746Z" fill="#F8F7F8"/>
<path d="M3.18139 2.2097C3.04769 2.14095 2.99504 1.97681 3.06379 1.84311L3.45807 1.07639L3.39158 1.04219C3.25313 0.970989 3.08321 1.02552 3.01201 1.16395L2.61672 1.93262C2.54552 2.07107 2.60005 2.24099 2.73848 2.31219L3.50713 2.70745C3.64555 2.77865 3.8155 2.72412 3.88669 2.5857L3.8921 2.57519L3.18139 2.2097Z" fill="#EFEDEE"/>
</g>
<defs>
<clipPath id="clip0_31_4674">
<rect width="12" height="12" fill="white"/>
</clipPath>
</defs>
</svg>
