<svg width="12" height="12" viewBox="0 0 12 12" fill="none" xmlns="http://www.w3.org/2000/svg">
<g clip-path="url(#clip0_31_6994)">
<path d="M2.25 6H0.75V12H4.5V10.5H2.25V6Z" fill="#4DE600"/>
<path d="M9 6L7.5 9.99998L6 6H4.5L6.75 12H8.25L10.5 6H9Z" fill="#4DE600"/>
<path d="M6 0L2.625 4.5H4.125V8.25H7.875V4.5H9.375L6 0Z" fill="#C8FA64"/>
<path d="M6 0L2.625 4.5H4.125V8.25H7.875V4.5H9.375L6 0Z" fill="#C8FA64"/>
<path d="M6 6H4.5L5.34375 8.25H6.84375L6 6Z" fill="#00CC00"/>
<path d="M10.5 12C10.9142 12 11.25 11.6642 11.25 11.25C11.25 10.8358 10.9142 10.5 10.5 10.5C10.0858 10.5 9.75 10.8358 9.75 11.25C9.75 11.6642 10.0858 12 10.5 12Z" fill="#4DE600"/>
</g>
<defs>
<clipPath id="clip0_31_6994">
<rect width="12" height="12" fill="white"/>
</clipPath>
</defs>
</svg>
