<svg width="12" height="12" viewBox="0 0 12 12" fill="none" xmlns="http://www.w3.org/2000/svg">
<g clip-path="url(#clip0_31_7006)">
<path d="M3.70076 10.5319H3.03578C2.93578 10.5319 2.8547 10.4508 2.8547 10.3508C2.8547 10.2508 2.93578 10.1697 3.03578 10.1697H3.70076C3.80077 10.1697 3.88184 10.2508 3.88184 10.3508C3.88184 10.4508 3.80077 10.5319 3.70076 10.5319Z" fill="#EAF6FF"/>
<path d="M9.05068 10.5319H8.38573C8.28572 10.5319 8.20464 10.4508 8.20464 10.3508C8.20464 10.2508 8.28572 10.1697 8.38573 10.1697H9.05068C9.15069 10.1697 9.23177 10.2508 9.23177 10.3508C9.23177 10.4508 9.15069 10.5319 9.05068 10.5319Z" fill="#EAF6FF"/>
<path d="M8.02914 0.57996V11.7762C8.02914 11.8998 7.92893 12 7.80531 12H4.29199C4.16837 12 4.06817 11.8998 4.06817 11.7762V8.99082C4.06817 8.79284 4.01867 8.59799 3.92451 8.4239L3.70407 8.01706C3.49811 7.63654 3.39018 7.21086 3.39018 6.77819V1.11091C3.39018 0.950825 3.45513 0.805956 3.55992 0.700925C3.60821 0.652877 3.66471 0.613038 3.72749 0.584306H3.72773C3.80161 0.550261 3.8837 0.531187 3.97014 0.531187C4.2903 0.531187 4.54986 0.790744 4.54986 1.11091V4.40233H6.86946V0.57996C6.86946 0.259557 7.12902 0 7.44918 0C7.76958 0 8.02914 0.259557 8.02914 0.57996Z" fill="#FFEEE6"/>
<path d="M11.8286 1.66164L10.2382 3.4078C10.1372 3.51862 9.96001 3.39838 10.0259 3.26365L10.1136 3.08401L10.1138 3.08377L10.6752 1.93472C10.7032 1.87701 10.6612 1.80989 10.5972 1.80989H10.0141C9.7794 1.80989 9.66182 1.5257 9.82817 1.36007L10.821 0.370373L11.0893 0.102848C11.1924 -9.49204e-06 11.3606 0.119266 11.2976 0.250614L10.8951 1.09255C10.8732 1.13842 10.9053 1.19154 10.956 1.19371L11.2547 1.20554C11.2559 1.20554 11.2571 1.20554 11.2583 1.20579L11.6444 1.22124C11.8679 1.23017 11.9792 1.49625 11.8286 1.66164Z" fill="#FFD15B"/>
<path d="M10.4782 1.08675L10.821 0.370373L11.0893 0.102848C11.1924 -9.48459e-06 11.3606 0.119266 11.2976 0.250614L10.8951 1.09255C10.8732 1.13842 10.9053 1.19154 10.956 1.19371L10.5429 1.19395C10.489 1.19178 10.455 1.13528 10.4782 1.08675Z" fill="#FFC344"/>
<path d="M11.8286 1.66164L10.2382 3.40779C10.1372 3.51862 9.96 3.39838 10.0259 3.26365L10.1136 3.08401L10.1138 3.08377L11.4089 1.66164C11.5589 1.49721 11.4792 1.21785 11.2583 1.20578L11.6443 1.22123C11.8679 1.23017 11.9792 1.49624 11.8286 1.66164Z" fill="#FFC344"/>
<path d="M1.34415 1.97408L1.97409 3.26365C2.04 3.39838 1.86278 3.51862 1.76185 3.4078L1.4668 3.08401L1.46656 3.08377L0.171431 1.66164C0.0207667 1.49625 0.132075 1.23017 0.355656 1.22124L1.02374 1.19444C1.08411 1.19202 1.12226 1.12876 1.09618 1.0742L0.702376 0.250614C0.639358 0.119266 0.807648 -9.49204e-06 0.910747 0.102848L2.17183 1.36007C2.33819 1.5257 2.22061 1.80989 1.98592 1.80989H1.44676C1.36226 1.80989 1.30721 1.89826 1.34415 1.97408Z" fill="#FFD15B"/>
<path d="M1.76185 3.40778L1.4668 3.084L1.46656 3.08376L0.896984 1.91756C0.872598 1.86782 0.909056 1.80988 0.964348 1.80988H1.44676C1.36226 1.80988 1.30721 1.89825 1.34415 1.97406L1.97409 3.26364C2.04 3.39837 1.86278 3.51861 1.76185 3.40778Z" fill="#FFC344"/>
<path d="M2.17181 1.36004L0.910792 0.102889C0.807621 3.17767e-05 0.639404 0.119235 0.702277 0.25068L0.759525 0.370342L1.75227 1.36002C1.91853 1.52577 1.80113 1.80979 1.56637 1.80979H1.98592C2.2207 1.80979 2.33807 1.52577 2.17181 1.36004Z" fill="#FFC344"/>
<path d="M11.6444 10.1L10.9531 10.1278C10.9038 10.1297 10.8724 10.1816 10.8937 10.2261L11.2976 11.0707C11.3606 11.202 11.1924 11.3213 11.0893 11.2184L10.821 10.9509L9.82817 9.9612C9.66182 9.79557 9.7794 9.51138 10.0141 9.51138H10.5858C10.6551 9.51138 10.7005 9.43871 10.6701 9.37641L10.1138 8.2375L10.1136 8.23726L10.0259 8.05762C9.96001 7.92289 10.1372 7.80265 10.2382 7.91348L11.8286 9.65963C11.9792 9.82503 11.8679 10.0911 11.6444 10.1Z" fill="#FFD15B"/>
<path d="M10.5429 10.1273L10.9531 10.1278C10.9038 10.1297 10.8724 10.1816 10.8937 10.2261L11.2976 11.0707C11.3606 11.202 11.1924 11.3213 11.0893 11.2184L10.821 10.9509L10.4782 10.2345C10.455 10.186 10.489 10.1295 10.5429 10.1273Z" fill="#FFC344"/>
<path d="M11.6443 10.1L10.9531 10.1278L11.2911 10.114C11.5147 10.1051 11.5596 9.82503 11.4089 9.65963L10.1138 8.2375L10.1136 8.23726L10.0259 8.05762C9.96 7.92289 10.1372 7.80265 10.2382 7.91348L11.8286 9.65963C11.9792 9.82503 11.8679 10.0911 11.6443 10.1Z" fill="#FFC344"/>
<path d="M2.17183 9.9612L0.910747 11.2184C0.807648 11.3213 0.639358 11.202 0.702376 11.0707L1.09666 10.2459C1.1225 10.192 1.08483 10.1293 1.02519 10.1268L0.355656 10.1C0.132075 10.0911 0.0207667 9.82503 0.171431 9.65963L1.46656 8.2375L1.4668 8.23726L1.76185 7.91348C1.86278 7.80265 2.04 7.92289 1.97409 8.05762L1.3258 9.38486C1.29731 9.4433 1.3398 9.51138 1.40475 9.51138H1.98592C2.22061 9.51138 2.33819 9.79557 2.17183 9.9612Z" fill="#FFD15B"/>
<path d="M1.3258 9.38486C1.29731 9.4433 1.3398 9.51138 1.40475 9.51138H0.964348C0.909056 9.51138 0.872598 9.45344 0.896984 9.4037L1.46656 8.2375L1.4668 8.23726L1.76185 7.91348C1.86278 7.80265 2.04 7.92289 1.97409 8.05762L1.3258 9.38486Z" fill="#FFC344"/>
<path d="M1.98592 9.51147H1.56635C1.80111 9.51147 1.9185 9.79549 1.75224 9.96125L0.759502 10.9509L0.702254 11.0706C0.639381 11.202 0.807599 11.3212 0.91077 11.2183L2.17178 9.96122C2.33807 9.79547 2.2207 9.51147 1.98592 9.51147Z" fill="#FFC344"/>
<path d="M5.12982 5.17014H4.81111C4.39872 5.17014 4.06455 4.83598 4.06455 4.42358V1.11091C4.06455 0.877426 3.92644 0.676541 3.72773 0.584308C3.80161 0.550263 3.88371 0.531189 3.97014 0.531189C4.29031 0.531189 4.54986 0.790746 4.54986 1.11091V4.40234H5.03566L5.12982 5.17014Z" fill="#FFDFCF"/>
<path d="M5.12977 5.17006C4.80952 5.17006 4.54991 4.91045 4.54991 4.5902V3.16254C4.54991 2.84228 4.80952 2.58267 5.12977 2.58267C5.45003 2.58267 5.70964 2.84228 5.70964 3.16254V4.5902C5.70964 4.91045 5.45003 5.17006 5.12977 5.17006Z" fill="#FFEEE6"/>
<path d="M5.12977 2.58267C5.04312 2.58267 4.96095 2.60182 4.88712 2.63591C5.08614 2.72776 5.22432 2.92896 5.22432 3.16254V4.59022C5.22432 4.8238 5.08614 5.025 4.88712 5.11684C4.96095 5.15094 5.04312 5.17008 5.12977 5.17008C5.45003 5.17008 5.70963 4.91048 5.70963 4.59022V3.16254C5.70963 2.84228 5.45003 2.58267 5.12977 2.58267Z" fill="#FFDFCF"/>
<path d="M6.28952 5.17006C5.96926 5.17006 5.70966 4.91045 5.70966 4.5902V3.16254C5.70966 2.84228 5.96926 2.58267 6.28952 2.58267C6.60978 2.58267 6.86938 2.84228 6.86938 3.16254V4.5902C6.86938 4.91045 6.60975 5.17006 6.28952 5.17006Z" fill="#FFEEE6"/>
<path d="M6.28952 2.58267C6.20287 2.58267 6.1207 2.60182 6.04687 2.63591C6.24589 2.72776 6.38408 2.92896 6.38408 3.16254V4.59022C6.38408 4.8238 6.24589 5.025 6.04687 5.11684C6.1207 5.15094 6.20287 5.17008 6.28952 5.17008C6.60978 5.17008 6.86939 4.91048 6.86939 4.59022V3.16254C6.86939 2.84228 6.60976 2.58267 6.28952 2.58267Z" fill="#FFDFCF"/>
<path d="M7.44925 0C7.3626 0 7.28043 0.0191469 7.2066 0.0532394C7.40562 0.145086 7.5438 0.346286 7.5438 0.579887V4.40226H8.02912V0.579863C8.02912 0.259606 7.76951 0 7.44925 0Z" fill="#FFDFCF"/>
<path d="M7.5438 4.40222V11.7762C7.5438 11.8998 7.4436 12 7.32002 12H7.80533C7.92893 12 8.02911 11.8998 8.02911 11.7762V4.40222H7.5438Z" fill="#FFDFCF"/>
<path d="M9.03139 7.35041L8.33384 8.12691C8.13779 8.34542 8.02914 8.62864 8.02914 8.92224V9.56353H6.07437V7.67733C6.28757 6.92522 6.69972 6.24506 7.26737 5.70784L7.63244 5.36256L7.22487 5.32152L6.23735 5.22228C6.22817 5.22132 6.219 5.22035 6.21006 5.2189C6.08572 5.19983 5.97634 5.13826 5.89666 5.04989C5.81095 4.95524 5.75928 4.82993 5.75928 4.69351C5.75928 4.40619 5.98769 4.17222 6.2726 4.16281C6.27863 4.16256 6.28467 4.16232 6.29071 4.16232H8.3691C8.67694 4.16232 8.94157 4.38059 9 4.68289L9.31702 6.31894C9.38873 6.6886 9.28298 7.07033 9.03139 7.35041Z" fill="#FFEEE6"/>
<path d="M9.31705 6.31904L9.00005 4.68289C8.9415 4.38065 8.67685 4.16235 8.36898 4.16235H7.88366C8.19154 4.16235 8.45616 4.38065 8.51474 4.68289L8.83174 6.31904C8.90335 6.68865 8.79757 7.07043 8.54601 7.35051L7.8486 8.12689C7.65236 8.34538 7.5438 8.62867 7.5438 8.92237V9.56363H8.02911V8.92237C8.02911 8.6287 8.13767 8.34538 8.33392 8.12689L9.03132 7.35051C9.28291 7.07043 9.38866 6.68865 9.31705 6.31904Z" fill="#FFDFCF"/>
<path d="M8.21191 11.138H3.87458C3.77858 11.138 3.70076 11.0602 3.70076 10.9642V9.73742C3.70076 9.64142 3.77858 9.5636 3.87458 9.5636H8.21191C8.30791 9.5636 8.38573 9.64142 8.38573 9.73742V10.9642C8.38571 11.0602 8.30789 11.138 8.21191 11.138Z" fill="#8EBAC5"/>
<path d="M8.21191 9.5636H7.7266C7.8226 9.5636 7.90042 9.64142 7.90042 9.73739V10.9642C7.90042 11.0602 7.8226 11.138 7.7266 11.138H8.21191C8.30791 11.138 8.38573 11.0602 8.38573 10.9642V9.73739C8.38571 9.64142 8.30791 9.5636 8.21191 9.5636Z" fill="#7CA1B1"/>
<path d="M1.89801 5.66064L2.05336 5.50529C2.12408 5.43455 2.12408 5.31991 2.05336 5.24919C1.98264 5.17849 1.86797 5.17849 1.79728 5.24919L1.64193 5.40456L1.48658 5.24919C1.41586 5.17852 1.3012 5.17847 1.2305 5.24919C1.15978 5.31993 1.15978 5.43457 1.2305 5.50529L1.38585 5.66064L1.2305 5.81599C1.15978 5.88673 1.15978 6.00137 1.2305 6.07209C1.26585 6.10744 1.31221 6.12512 1.35854 6.12512C1.40487 6.12512 1.45123 6.10744 1.48658 6.07209L1.64193 5.91672L1.79728 6.07209C1.83262 6.10744 1.87898 6.12512 1.92532 6.12512C1.97165 6.12512 2.01801 6.10744 2.05336 6.07209C2.12408 6.00135 2.12408 5.88671 2.05336 5.81599L1.89801 5.66064Z" fill="#FFD15B"/>
<path d="M7.75678 5.31307L7.39195 5.65834C6.84821 6.17287 6.45272 6.82551 6.24845 7.54575C6.22576 7.62567 6.15332 7.67734 6.07437 7.67734C6.05795 7.67734 6.04129 7.67517 6.02487 7.67058C5.92877 7.64329 5.87276 7.54309 5.90004 7.447C6.12217 6.66398 6.55195 5.9546 7.14302 5.39517L7.22487 5.32152L6.23735 5.22229C6.22817 5.22132 6.219 5.22036 6.21006 5.21891C6.08572 5.19983 5.97634 5.13826 5.89666 5.04989C5.81095 4.95525 5.75928 4.82993 5.75928 4.69352C5.75928 4.40619 5.98769 4.17223 6.2726 4.16281C6.08789 4.17223 5.94036 4.32555 5.94036 4.51243C5.94036 4.69303 6.07582 4.84273 6.25545 4.86084L7.65054 5.00136C7.72105 5.00861 7.78093 5.05617 7.80386 5.12305C7.82656 5.19018 7.80821 5.2643 7.75678 5.31307Z" fill="#FFDFCF"/>
<path d="M4.65482 10.5236C4.75023 10.5236 4.82758 10.4462 4.82758 10.3508C4.82758 10.2554 4.75023 10.178 4.65482 10.178C4.55941 10.178 4.48206 10.2554 4.48206 10.3508C4.48206 10.4462 4.55941 10.5236 4.65482 10.5236Z" fill="#EAF6FF"/>
<path d="M5.58044 10.5236C5.67585 10.5236 5.7532 10.4462 5.7532 10.3508C5.7532 10.2554 5.67585 10.178 5.58044 10.178C5.48503 10.178 5.40768 10.2554 5.40768 10.3508C5.40768 10.4462 5.48503 10.5236 5.58044 10.5236Z" fill="#EAF6FF"/>
<path d="M6.50603 10.5236C6.60144 10.5236 6.67879 10.4462 6.67879 10.3508C6.67879 10.2554 6.60144 10.178 6.50603 10.178C6.41062 10.178 6.33327 10.2554 6.33327 10.3508C6.33327 10.4462 6.41062 10.5236 6.50603 10.5236Z" fill="#EAF6FF"/>
<path d="M7.43165 10.5236C7.52706 10.5236 7.60441 10.4462 7.60441 10.3508C7.60441 10.2554 7.52706 10.178 7.43165 10.178C7.33624 10.178 7.2589 10.2554 7.2589 10.3508C7.2589 10.4462 7.33624 10.5236 7.43165 10.5236Z" fill="#EAF6FF"/>
<path d="M10.6739 5.8334C10.7693 5.8334 10.8467 5.75605 10.8467 5.66064C10.8467 5.56523 10.7693 5.48788 10.6739 5.48788C10.5785 5.48788 10.5012 5.56523 10.5012 5.66064C10.5012 5.75605 10.5785 5.8334 10.6739 5.8334Z" fill="#FFC344"/>
</g>
<defs>
<clipPath id="clip0_31_7006">
<rect width="12" height="12" fill="white"/>
</clipPath>
</defs>
</svg>
