<svg width="12" height="12" viewBox="0 0 12 12" fill="none" xmlns="http://www.w3.org/2000/svg">
<g clip-path="url(#clip0_31_4531)">
<path d="M6 12C9.31371 12 12 9.31371 12 6C12 2.68629 9.31371 0 6 0C2.68629 0 0 2.68629 0 6C0 9.31371 2.68629 12 6 12Z" fill="#FDD835"/>
<path opacity="0.5" d="M6 0C2.68641 0 0 2.68641 0 6C0 9.31359 2.68641 12 6 12C9.31359 12 12 9.31359 12 6C12 2.68641 9.31359 0 6 0ZM6 11.7422C2.82867 11.7422 0.257812 9.17133 0.257812 6C0.257812 2.82867 2.82867 0.257812 6 0.257812C9.17133 0.257812 11.7422 2.82867 11.7422 6C11.7422 9.17133 9.17133 11.7422 6 11.7422Z" fill="#FAFAFA"/>
<path opacity="0.5" d="M8.39391 0.496633L0.496641 8.3939C0.232735 7.78781 0.0656253 7.12898 0.0159378 6.43827L6.43828 0.0159302C7.12899 0.0656177 7.78781 0.232727 8.39391 0.496633Z" fill="#FAFAFA"/>
<path opacity="0.5" d="M11.2287 3.05506L3.05508 11.2287C2.54672 10.9418 2.08453 10.5829 1.68188 10.1658L10.1658 1.68185C10.583 2.08451 10.942 2.5467 11.2287 3.05506Z" fill="#FAFAFA"/>
<path opacity="0.5" d="M9.92062 1.45828L1.45805 9.92062C1.32562 9.76758 1.20094 9.6075 1.08469 9.44133L9.44133 1.08469C9.60726 1.20094 9.76734 1.32562 9.92062 1.45828Z" fill="#FAFAFA"/>
<path opacity="0.5" d="M11.8118 4.50281L4.50281 11.8118C4.28203 11.7551 4.06641 11.6862 3.85594 11.6058L11.6055 3.85617C11.6859 4.06641 11.7551 4.28226 11.8116 4.50305L11.8118 4.50281Z" fill="#FAFAFA"/>
<path opacity="0.5" d="M10.8743 6.25967C10.8743 8.85584 8.76938 10.9608 6.17321 10.9608C4.71469 10.9608 3.41086 10.2965 2.54906 9.25381C3.40758 10.1819 4.63617 10.763 6 10.763C8.59617 10.763 10.7011 8.65803 10.7011 6.06186C10.7011 4.92444 10.297 3.881 9.62438 3.06772C10.4004 3.90631 10.8743 5.02756 10.8743 6.25967Z" fill="#FAFAFA"/>
<path d="M6 10.763C8.59634 10.763 10.7011 8.65822 10.7011 6.06187C10.7011 3.46553 8.59634 1.36078 6 1.36078C3.40366 1.36078 1.2989 3.46553 1.2989 6.06187C1.2989 8.65822 3.40366 10.763 6 10.763Z" fill="#F39E09"/>
<path d="M9.5625 2.99437C8.73914 2.28468 7.66711 1.85578 6.495 1.85578C3.89883 1.85578 1.7939 3.9607 1.7939 6.55687C1.7939 7.72898 2.22305 8.80101 2.9325 9.62437C1.93219 8.76211 1.2989 7.48593 1.2989 6.06187C1.2989 3.4657 3.40383 1.36078 6 1.36078C7.42383 1.36078 8.70023 1.99383 9.5625 2.99437Z" fill="#E88102"/>
<path d="M8.41266 6.89672L8.37141 6.92016C8.26359 6.50391 7.95094 6.28828 7.51992 6.18492C7.85109 6.01617 8.06719 5.72813 8.055 5.26149H8.0557V4.91813L8.00742 4.93383C7.84289 4.36992 7.26422 4.16742 6.55312 4.10508V3.09305H5.93719V4.07836C5.77523 4.07836 5.60977 4.08164 5.44523 4.08492V3.09305H4.82953V4.10484C4.69594 4.10766 4.56492 4.11 4.43719 4.11024V4.10719L3.58758 4.10695V4.76485C3.58758 4.76485 4.04273 4.75617 4.035 4.76461C4.28461 4.76461 4.3657 4.90945 4.38937 5.03461V6.1875C4.40672 6.1875 4.42922 6.1882 4.45453 6.19172C4.43391 6.19172 4.41211 6.19172 4.38937 6.19172V7.8068C4.37836 7.88531 4.33219 8.01047 4.15781 8.01094C4.16578 8.01797 3.70992 8.01094 3.70992 8.01094L3.6525 8.35594L3.58758 8.37563V8.74688H4.38914C4.53844 8.74688 4.68516 8.74945 4.8293 8.75039V9.77391H5.445V8.76117C5.61398 8.76469 5.77734 8.7661 5.93719 8.76586V9.77391H6.55289V8.75227C7.58883 8.69274 8.31351 8.43188 8.40351 7.45945C8.40867 7.40484 8.41125 7.35258 8.41219 7.30195H8.41266V6.89766V6.89672ZM5.45977 4.80867C5.80758 4.80867 6.89977 4.69805 6.9 5.42391C6.9 6.11977 5.80758 6.03867 5.45977 6.03867V4.80867ZM5.45977 8.01563V6.65953C5.87742 6.65953 7.18664 6.53953 7.18664 7.33735C7.18687 8.10234 5.87719 8.01516 5.45977 8.01563Z" fill="#DB6704"/>
<path d="M8.04797 4.77753C7.97789 4.04792 7.34813 3.80323 6.55289 3.73362V2.72159H5.93695V3.7069C5.775 3.7069 5.60953 3.71018 5.445 3.71346V2.72159H4.8293V3.73338C4.6957 3.7362 4.56469 3.73854 4.43695 3.73878V3.73573L3.58735 3.73549V4.39338C3.58735 4.39338 4.0425 4.38471 4.03477 4.39315C4.28438 4.39315 4.36547 4.53799 4.38914 4.66315V5.81604C4.40649 5.81604 4.42899 5.81674 4.4543 5.82026C4.43367 5.82026 4.41188 5.82026 4.38914 5.82026V7.43534C4.37813 7.51385 4.33195 7.63901 4.15758 7.63948C4.16555 7.64651 3.70969 7.63948 3.70969 7.63948L3.58735 8.37518H4.38891C4.5382 8.37518 4.68492 8.37776 4.82906 8.3787V9.40221H5.44477V8.38948C5.61375 8.39299 5.77711 8.3944 5.93695 8.39417V9.40221H6.55266V8.38057C7.5886 8.32104 8.31328 8.06018 8.40328 7.08776C8.47594 6.30471 8.1075 5.95526 7.51969 5.81417C7.87688 5.63229 8.10024 5.3119 8.04797 4.77799V4.77753ZM7.18617 6.96612C7.18641 7.73112 5.87672 7.64393 5.4593 7.6444V6.28831C5.87695 6.28831 7.18617 6.16831 7.18617 6.96612ZM6.89977 5.05268C6.89977 5.74854 5.80735 5.66745 5.45953 5.66745V4.43745C5.80735 4.43745 6.89977 4.32682 6.89977 5.05268Z" fill="#FDD835"/>
<path opacity="0.5" d="M4.82953 2.72159H5.44524V3.44534L4.34649 4.54409C4.2982 4.46089 4.2061 4.39292 4.03524 4.39292C4.04274 4.38448 3.58781 4.39315 3.58781 4.39315V3.73526L4.43719 3.73549V3.73878C4.56516 3.73854 4.69594 3.73596 4.8293 3.73338V2.72159H4.82953Z" fill="#FAFAFA"/>
<path opacity="0.5" d="M6.16875 2.72159L5.93695 2.95362V2.72159H6.16875Z" fill="#FAFAFA"/>
<path opacity="0.5" d="M6.77859 7.5054L5.88984 8.39415C5.745 8.39391 5.59711 8.39274 5.445 8.38946V8.83899L4.8818 9.40219H4.82953V8.37868C4.68492 8.37774 4.5382 8.37516 4.38914 8.37493H3.58758L3.61031 8.23759L4.21359 7.6343C4.32562 7.61344 4.36852 7.53094 4.38375 7.46415L5.45953 6.38837V7.64462C5.72625 7.64438 6.35766 7.68001 6.77859 7.50563V7.5054Z" fill="#FAFAFA"/>
<path opacity="0.5" d="M7.16695 7.11706C7.17961 7.07089 7.18617 7.0205 7.18617 6.96612C7.18641 6.22456 6.05602 6.27589 5.56102 6.28667L6.20859 5.63909C6.56578 5.58448 6.89953 5.43729 6.89953 5.05268C6.89953 5.01823 6.89695 4.98589 6.89227 4.95518L7.72688 4.12057C7.90523 4.2762 8.02031 4.48878 8.04797 4.77729C8.10023 5.3112 7.87664 5.63159 7.51969 5.81347C7.7768 5.87534 7.99195 5.97683 8.14641 6.13714L7.16672 7.11682L7.16695 7.11706Z" fill="#FAFAFA"/>
<path opacity="0.5" d="M3.71016 7.63922C3.71016 7.63922 3.72094 7.63946 3.73945 7.63969L3.7043 7.67461L3.71016 7.63922Z" fill="#FAFAFA"/>
<path opacity="0.5" d="M5.45953 5.66744C5.52211 5.66744 5.60859 5.67025 5.70844 5.67048L4.38914 6.98954V6.13689L5.45953 5.0665V5.66744Z" fill="#FAFAFA"/>
<path opacity="0.5" d="M7.4407 3.93822L6.72609 4.65283C6.56789 4.51642 6.3232 4.46228 6.08367 4.44236L6.76828 3.75775C7.01883 3.7922 7.24781 3.84845 7.44047 3.93845L7.4407 3.93822Z" fill="#FAFAFA"/>
<path opacity="0.5" d="M6.05953 9.40198L6.55266 8.90909V9.40198H6.05953Z" fill="#FAFAFA"/>
<path opacity="0.5" d="M8.40586 7.05588C8.40539 7.06619 8.40445 7.07697 8.40328 7.08752C8.3318 7.86072 7.85906 8.18416 7.1475 8.314L8.40562 7.05588H8.40586Z" fill="#FAFAFA"/>
<path opacity="0.25" d="M9.92063 3.46736C6.87633 4.53611 4.4332 6.88337 3.23578 9.86462C3.13102 9.78845 3.02953 9.70783 2.9318 9.62322C2.22258 8.80009 1.79391 7.7283 1.79391 6.55665C1.79391 3.96048 3.89883 1.85556 6.495 1.85556C7.66664 1.85556 8.73844 2.28423 9.56156 2.99345C9.69094 3.14345 9.81094 3.30165 9.92086 3.46736H9.92063Z" fill="#FAFAFA"/>
</g>
<defs>
<clipPath id="clip0_31_4531">
<rect width="12" height="12" fill="white"/>
</clipPath>
</defs>
</svg>
