<svg width="40" height="41" viewBox="0 0 40 41" fill="none" xmlns="http://www.w3.org/2000/svg">
    <path d="M20 40.5C9.01484 40.5 0 31.4852 0 20.5C0 15.2346 2.17813 10.1728 5.87344 6.45355L5.02086 5.23815C4.77367 4.88339 4.74047 4.42222 4.935 4.03651C5.1307 3.65081 5.52211 3.40362 5.95469 3.39339L14.4027 3.19995C14.7552 3.24456 15.1649 3.37964 15.3892 3.70003C15.6135 4.02042 15.6627 4.43245 15.5209 4.79753L12.4503 12.6711C12.2935 13.0739 11.9273 13.3578 11.4981 13.4092C11.0644 13.4619 10.6467 13.2708 10.3984 12.9171L10.0093 12.361C8.13016 14.6555 7.10938 17.4982 7.10938 20.5C7.10938 27.6079 12.8921 33.3907 20 33.3907C27.1079 33.3907 32.8906 27.6079 32.8906 20.5C32.8906 19.8523 33.4148 19.3282 34.0625 19.3282H38.8281C39.4759 19.3282 40 19.8523 40 20.5C40 31.4852 30.9852 40.5 20 40.5Z" fill="#FFDF40"/>
    <path d="M31.1637 14.0547C30.8398 13.4939 31.0321 12.7775 31.5929 12.4536L35.6521 10.1099C36.2083 9.78372 36.9281 9.97599 37.2531 10.539C37.577 11.0998 37.3848 11.8162 36.824 12.14L32.7648 14.4838C32.2059 14.8066 31.4878 14.6159 31.1637 14.0547Z" fill="#FF9F40"/>
    <path d="M26.4453 9.33625C25.8845 9.01234 25.6923 8.29601 26.0162 7.73523L28.3599 3.67601C28.6838 3.11414 29.4013 2.92187 29.9609 3.24687C30.5217 3.57078 30.714 4.28711 30.3901 4.84789L28.0463 8.90711C27.7216 9.46937 27.003 9.65843 26.4453 9.33625Z" fill="#FF9F40"/>
    <path d="M20 7.60938C19.3523 7.60938 18.8281 7.08523 18.8281 6.4375V1.67188C18.8281 1.02414 19.3523 0.5 20 0.5C20.6477 0.5 21.1719 1.02414 21.1719 1.67188V6.4375C21.1719 7.08523 20.6477 7.60938 20 7.60938Z" fill="#FFBE40"/>
    <path d="M32.4512 17.164C32.2841 16.5392 32.6549 15.8961 33.2798 15.729L37.8082 14.5159C38.4353 14.3488 39.0773 14.7185 39.2433 15.3444C39.4104 15.9693 39.0396 16.6124 38.4148 16.7795L33.8863 17.9926C33.2673 18.1595 32.619 17.7941 32.4512 17.164Z" fill="#FF9F40"/>
    <path d="M29.1152 11.3848C28.6575 10.927 28.6575 10.1854 29.1152 9.72765L32.4295 6.41343C32.8872 5.9557 33.6288 5.9557 34.0866 6.41343C34.5443 6.87116 34.5443 7.61281 34.0866 8.07054L30.7723 11.3848C30.3146 11.8425 29.573 11.8426 29.1152 11.3848Z" fill="#FF9F40"/>
    <path d="M23.3359 8.04885C22.7111 7.88174 22.3403 7.23861 22.5074 6.61377L23.7205 2.08533C23.8887 1.46166 24.5319 1.09197 25.1555 1.25681C25.7804 1.42392 26.1512 2.06705 25.9841 2.69189L24.771 7.22033C24.6023 7.85228 23.9521 8.21502 23.3359 8.04885Z" fill="#FF9F40"/>
    <path d="M25.4875 24.406C25.4075 24.43 25.2795 24.454 25.1035 24.478C24.9355 24.502 24.7595 24.514 24.5755 24.514C24.3995 24.514 24.2395 24.502 24.0955 24.478C23.9595 24.454 23.8435 24.406 23.7475 24.334C23.6515 24.262 23.5755 24.166 23.5195 24.046C23.4715 23.918 23.4475 23.754 23.4475 23.554V20.89C23.4475 20.562 23.3635 20.334 23.1955 20.206C23.0355 20.07 22.8355 20.002 22.5955 20.002C22.4355 20.002 22.2835 20.022 22.1395 20.062C21.9955 20.102 21.8795 20.15 21.7915 20.206V24.406C21.7115 24.43 21.5835 24.454 21.4075 24.478C21.2395 24.502 21.0635 24.514 20.8795 24.514C20.7035 24.514 20.5435 24.502 20.3995 24.478C20.2635 24.454 20.1475 24.406 20.0515 24.334C19.9555 24.262 19.8795 24.166 19.8235 24.046C19.7755 23.918 19.7515 23.754 19.7515 23.554V16.594C19.8395 16.578 19.9675 16.558 20.1355 16.534C20.3115 16.502 20.4875 16.486 20.6635 16.486C20.8395 16.486 20.9955 16.498 21.1315 16.522C21.2755 16.546 21.3955 16.594 21.4915 16.666C21.5875 16.738 21.6595 16.838 21.7075 16.966C21.7635 17.086 21.7915 17.246 21.7915 17.446V18.622C21.8955 18.582 22.0515 18.538 22.2595 18.49C22.4755 18.434 22.7115 18.406 22.9675 18.406C23.7595 18.406 24.3755 18.606 24.8155 19.006C25.2635 19.398 25.4875 19.986 25.4875 20.77V24.406Z" fill="white"/>
    <path d="M16.2525 19.066L15.0525 19.438C14.9325 19.358 14.8125 19.246 14.6925 19.102C14.5725 18.958 14.5125 18.758 14.5125 18.502C14.5125 18.022 14.8045 17.686 15.3885 17.494L16.7325 17.038H17.1765C17.5205 17.038 17.7925 17.138 17.9925 17.338C18.1925 17.538 18.2925 17.81 18.2925 18.154V24.406C18.2045 24.422 18.0725 24.442 17.8965 24.466C17.7285 24.498 17.5565 24.514 17.3805 24.514C17.2045 24.514 17.0445 24.502 16.9005 24.478C16.7645 24.454 16.6485 24.406 16.5525 24.334C16.4565 24.262 16.3805 24.166 16.3245 24.046C16.2765 23.918 16.2525 23.754 16.2525 23.554V19.066Z" fill="white"/>
    <path d="M21.1719 6.4375V1.67188C21.1719 1.02414 20.6477 0.5 20 0.5V7.60938C20.6477 7.60938 21.1719 7.08523 21.1719 6.4375Z" fill="#FF9F40"/>
    <path d="M40 20.5C40 19.8523 39.4759 19.3281 38.8281 19.3281H34.0625C33.4148 19.3281 32.8906 19.8523 32.8906 20.5C32.8906 27.6079 27.1079 33.3906 20 33.3906V40.5C30.9852 40.5 40 31.4852 40 20.5Z" fill="#FFBE40"/>
</svg>
