<svg width="41" height="41" viewBox="0 0 41 41" fill="none" xmlns="http://www.w3.org/2000/svg">
    <g clip-path="url(#clip0_34_26794)">
        <path d="M20.5 40.5C9.51484 40.5 0.5 31.4852 0.5 20.5C0.5 15.2346 2.67813 10.1728 6.37344 6.45355L5.52086 5.23815C5.27367 4.88339 5.24047 4.42222 5.435 4.03651C5.6307 3.65081 6.02211 3.40362 6.45469 3.39339L14.9027 3.19995C15.2552 3.24456 15.6649 3.37964 15.8892 3.70003C16.1135 4.02042 16.1627 4.43245 16.0209 4.79753L12.9503 12.6711C12.7935 13.0739 12.4273 13.3578 11.9981 13.4092C11.5644 13.4619 11.1467 13.2708 10.8984 12.9171L10.5093 12.361C8.63016 14.6555 7.60938 17.4982 7.60938 20.5C7.60938 27.6079 13.3921 33.3907 20.5 33.3907C27.6079 33.3907 33.3906 27.6079 33.3906 20.5C33.3906 19.8523 33.9148 19.3282 34.5625 19.3282H39.3281C39.9759 19.3282 40.5 19.8523 40.5 20.5C40.5 31.4852 31.4852 40.5 20.5 40.5Z" fill="#FFDF40"/>
        <path d="M31.6637 14.0547C31.3398 13.4939 31.5321 12.7775 32.0929 12.4536L36.1521 10.1099C36.7083 9.78372 37.4281 9.97599 37.7531 10.539C38.077 11.0998 37.8848 11.8162 37.324 12.14L33.2648 14.4838C32.7059 14.8066 31.9878 14.6159 31.6637 14.0547Z" fill="#FF9F40"/>
        <path d="M26.9453 9.33625C26.3845 9.01234 26.1923 8.29601 26.5162 7.73523L28.8599 3.67601C29.1838 3.11414 29.9013 2.92187 30.4609 3.24687C31.0217 3.57078 31.214 4.28711 30.8901 4.84789L28.5463 8.90711C28.2216 9.46937 27.503 9.65843 26.9453 9.33625Z" fill="#FF9F40"/>
        <path d="M20.5 7.60938C19.8523 7.60938 19.3281 7.08523 19.3281 6.4375V1.67188C19.3281 1.02414 19.8523 0.5 20.5 0.5C21.1477 0.5 21.6719 1.02414 21.6719 1.67188V6.4375C21.6719 7.08523 21.1477 7.60938 20.5 7.60938Z" fill="#FFBE40"/>
        <path d="M32.9512 17.164C32.7841 16.5392 33.1549 15.8961 33.7798 15.729L38.3082 14.5159C38.9353 14.3488 39.5773 14.7185 39.7433 15.3444C39.9104 15.9693 39.5396 16.6124 38.9148 16.7795L34.3863 17.9926C33.7673 18.1595 33.119 17.7941 32.9512 17.164Z" fill="#FF9F40"/>
        <path d="M29.6152 11.3848C29.1575 10.927 29.1575 10.1854 29.6152 9.72765L32.9295 6.41343C33.3872 5.9557 34.1288 5.9557 34.5866 6.41343C35.0443 6.87116 35.0443 7.61281 34.5866 8.07054L31.2723 11.3848C30.8146 11.8425 30.073 11.8426 29.6152 11.3848Z" fill="#FF9F40"/>
        <path d="M23.8359 8.04885C23.2111 7.88174 22.8403 7.23861 23.0074 6.61377L24.2205 2.08533C24.3887 1.46166 25.0319 1.09197 25.6555 1.25681C26.2804 1.42392 26.6512 2.06705 26.4841 2.69189L25.271 7.22033C25.1023 7.85228 24.4521 8.21502 23.8359 8.04885Z" fill="#FF9F40"/>
        <path d="M28.9231 24.406C28.8431 24.43 28.7151 24.454 28.5391 24.478C28.3711 24.502 28.1951 24.514 28.0111 24.514C27.8351 24.514 27.6751 24.502 27.5311 24.478C27.3951 24.454 27.2791 24.406 27.1831 24.334C27.0871 24.262 27.0111 24.166 26.9551 24.046C26.9071 23.918 26.8831 23.754 26.8831 23.554V20.89C26.8831 20.562 26.7991 20.334 26.6311 20.206C26.4711 20.07 26.2711 20.002 26.0311 20.002C25.8711 20.002 25.7191 20.022 25.5751 20.062C25.4311 20.102 25.3151 20.15 25.2271 20.206V24.406C25.1471 24.43 25.0191 24.454 24.8431 24.478C24.6751 24.502 24.4991 24.514 24.3151 24.514C24.1391 24.514 23.9791 24.502 23.8351 24.478C23.6991 24.454 23.5831 24.406 23.4871 24.334C23.3911 24.262 23.3151 24.166 23.2591 24.046C23.2111 23.918 23.1871 23.754 23.1871 23.554V16.594C23.2751 16.578 23.4031 16.558 23.5711 16.534C23.7471 16.502 23.9231 16.486 24.0991 16.486C24.2751 16.486 24.4311 16.498 24.5671 16.522C24.7111 16.546 24.8311 16.594 24.9271 16.666C25.0231 16.738 25.0951 16.838 25.1431 16.966C25.1991 17.086 25.2271 17.246 25.2271 17.446V18.622C25.3311 18.582 25.4871 18.538 25.6951 18.49C25.9111 18.434 26.1471 18.406 26.4031 18.406C27.1951 18.406 27.8111 18.606 28.2511 19.006C28.6991 19.398 28.9231 19.986 28.9231 20.77V24.406Z" fill="white"/>
        <path d="M19.1615 16.942C19.6175 16.942 20.0215 17.002 20.3735 17.122C20.7255 17.234 21.0255 17.39 21.2735 17.59C21.5215 17.79 21.7095 18.026 21.8375 18.298C21.9655 18.57 22.0295 18.862 22.0295 19.174C22.0295 20.014 21.5535 20.814 20.6015 21.574L19.0295 22.834H21.9095C21.9575 22.922 22.0015 23.034 22.0415 23.17C22.0895 23.306 22.1135 23.454 22.1135 23.614C22.1135 23.902 22.0495 24.11 21.9215 24.238C21.7935 24.358 21.6255 24.418 21.4175 24.418H17.2535C17.0775 24.298 16.9375 24.146 16.8335 23.962C16.7375 23.77 16.6895 23.546 16.6895 23.29C16.6895 23.018 16.7455 22.79 16.8575 22.606C16.9695 22.414 17.0935 22.262 17.2295 22.15L18.8855 20.734C19.0935 20.558 19.2655 20.402 19.4015 20.266C19.5375 20.122 19.6455 19.994 19.7255 19.882C19.8135 19.77 19.8735 19.666 19.9055 19.57C19.9455 19.474 19.9655 19.382 19.9655 19.294C19.9655 19.07 19.8655 18.894 19.6655 18.766C19.4735 18.638 19.2335 18.574 18.9455 18.574C18.6255 18.574 18.3375 18.626 18.0815 18.73C17.8335 18.826 17.6255 18.93 17.4575 19.042C17.3215 18.946 17.2095 18.826 17.1215 18.682C17.0335 18.538 16.9895 18.37 16.9895 18.178C16.9895 17.762 17.1855 17.454 17.5775 17.254C17.9695 17.046 18.4975 16.942 19.1615 16.942Z" fill="white"/>
        <path d="M13.3014 19.066L12.1014 19.438C11.9814 19.358 11.8614 19.246 11.7414 19.102C11.6214 18.958 11.5614 18.758 11.5614 18.502C11.5614 18.022 11.8534 17.686 12.4374 17.494L13.7814 17.038H14.2254C14.5694 17.038 14.8414 17.138 15.0414 17.338C15.2414 17.538 15.3414 17.81 15.3414 18.154V24.406C15.2534 24.422 15.1214 24.442 14.9454 24.466C14.7774 24.498 14.6054 24.514 14.4294 24.514C14.2534 24.514 14.0934 24.502 13.9494 24.478C13.8134 24.454 13.6974 24.406 13.6014 24.334C13.5054 24.262 13.4294 24.166 13.3734 24.046C13.3254 23.918 13.3014 23.754 13.3014 23.554V19.066Z" fill="white"/>
        <path d="M21.6719 6.4375V1.67188C21.6719 1.02414 21.1477 0.5 20.5 0.5V7.60938C21.1477 7.60938 21.6719 7.08523 21.6719 6.4375Z" fill="#FF9F40"/>
        <path d="M40.5 20.5C40.5 19.8523 39.9759 19.3281 39.3281 19.3281H34.5625C33.9148 19.3281 33.3906 19.8523 33.3906 20.5C33.3906 27.6079 27.6079 33.3906 20.5 33.3906V40.5C31.4852 40.5 40.5 31.4852 40.5 20.5Z" fill="#FFBE40"/>
    </g>
    <defs>
        <clipPath id="clip0_34_26794">
            <rect width="40" height="40" fill="white" transform="translate(0.5 0.5)"/>
        </clipPath>
    </defs>
</svg>
