<svg width="41" height="41" viewBox="0 0 41 41" fill="none" xmlns="http://www.w3.org/2000/svg">    <g clip-path="url(#clip0_32_7779)">        <path d="M20.5 40.5C9.51484 40.5 0.5 31.4852 0.5 20.5C0.5 15.2346 2.67813 10.1728 6.37344 6.45355L5.52086 5.23815C5.27367 4.88339 5.24047 4.42222 5.435 4.03651C5.6307 3.65081 6.02211 3.40362 6.45469 3.39339L14.9027 3.19995C15.2552 3.24456 15.6649 3.37964 15.8892 3.70003C16.1135 4.02042 16.1627 4.43245 16.0209 4.79753L12.9503 12.6711C12.7935 13.0739 12.4273 13.3578 11.9981 13.4092C11.5644 13.4619 11.1467 13.2708 10.8984 12.9171L10.5093 12.361C8.63016 14.6555 7.60938 17.4982 7.60938 20.5C7.60938 27.6079 13.3921 33.3907 20.5 33.3907C27.6079 33.3907 33.3906 27.6079 33.3906 20.5C33.3906 19.8523 33.9148 19.3282 34.5625 19.3282H39.3281C39.9759 19.3282 40.5 19.8523 40.5 20.5C40.5 31.4852 31.4852 40.5 20.5 40.5Z" fill="#FFDF40"/>        <path d="M31.6637 14.0547C31.3398 13.4939 31.5321 12.7775 32.0929 12.4536L36.1521 10.1099C36.7083 9.78372 37.4281 9.97599 37.7531 10.539C38.077 11.0998 37.8848 11.8162 37.324 12.14L33.2648 14.4838C32.7059 14.8066 31.9878 14.6159 31.6637 14.0547Z" fill="#FF9F40"/>        <path d="M26.9453 9.33625C26.3845 9.01234 26.1923 8.29601 26.5162 7.73523L28.8599 3.67601C29.1838 3.11414 29.9013 2.92187 30.4609 3.24687C31.0217 3.57078 31.214 4.28711 30.8901 4.84789L28.5463 8.90711C28.2216 9.46937 27.503 9.65843 26.9453 9.33625Z" fill="#FF9F40"/>        <path d="M20.5 7.60938C19.8523 7.60938 19.3281 7.08523 19.3281 6.4375V1.67188C19.3281 1.02414 19.8523 0.5 20.5 0.5C21.1477 0.5 21.6719 1.02414 21.6719 1.67188V6.4375C21.6719 7.08523 21.1477 7.60938 20.5 7.60938Z" fill="#FFBE40"/>        <path d="M32.9512 17.164C32.7841 16.5392 33.1549 15.8961 33.7798 15.729L38.3082 14.5159C38.9353 14.3488 39.5773 14.7185 39.7433 15.3444C39.9104 15.9693 39.5396 16.6124 38.9148 16.7795L34.3863 17.9926C33.7673 18.1595 33.119 17.7941 32.9512 17.164Z" fill="#FF9F40"/>        <path d="M29.6152 11.3848C29.1575 10.927 29.1575 10.1854 29.6152 9.72765L32.9295 6.41343C33.3872 5.9557 34.1288 5.9557 34.5866 6.41343C35.0443 6.87116 35.0443 7.61281 34.5866 8.07054L31.2723 11.3848C30.8146 11.8425 30.073 11.8426 29.6152 11.3848Z" fill="#FF9F40"/>        <path d="M23.8359 8.04885C23.2111 7.88174 22.8403 7.23861 23.0074 6.61377L24.2205 2.08533C24.3887 1.46166 25.0319 1.09197 25.6555 1.25681C26.2804 1.42392 26.6512 2.06705 26.4841 2.69189L25.271 7.22033C25.1023 7.85228 24.4521 8.21502 23.8359 8.04885Z" fill="#FF9F40"/>        <path d="M26.6168 24.406C26.5368 24.43 26.4088 24.454 26.2328 24.478C26.0648 24.502 25.8888 24.514 25.7048 24.514C25.5288 24.514 25.3688 24.502 25.2248 24.478C25.0888 24.454 24.9728 24.406 24.8768 24.334C24.7808 24.262 24.7048 24.166 24.6488 24.046C24.6008 23.918 24.5768 23.754 24.5768 23.554V20.89C24.5768 20.562 24.4928 20.334 24.3248 20.206C24.1648 20.07 23.9648 20.002 23.7248 20.002C23.5648 20.002 23.4128 20.022 23.2688 20.062C23.1248 20.102 23.0088 20.15 22.9208 20.206V24.406C22.8408 24.43 22.7128 24.454 22.5368 24.478C22.3688 24.502 22.1928 24.514 22.0088 24.514C21.8328 24.514 21.6728 24.502 21.5288 24.478C21.3928 24.454 21.2768 24.406 21.1808 24.334C21.0848 24.262 21.0088 24.166 20.9528 24.046C20.9048 23.918 20.8808 23.754 20.8808 23.554V16.594C20.9688 16.578 21.0968 16.558 21.2648 16.534C21.4408 16.502 21.6168 16.486 21.7928 16.486C21.9688 16.486 22.1248 16.498 22.2608 16.522C22.4048 16.546 22.5248 16.594 22.6208 16.666C22.7168 16.738 22.7888 16.838 22.8368 16.966C22.8928 17.086 22.9208 17.246 22.9208 17.446V18.622C23.0248 18.582 23.1808 18.538 23.3888 18.49C23.6048 18.434 23.8408 18.406 24.0968 18.406C24.8888 18.406 25.5048 18.606 25.9448 19.006C26.3928 19.398 26.6168 19.986 26.6168 20.77V24.406Z" fill="white"/>        <path d="M16.8553 16.942C17.3113 16.942 17.7153 17.002 18.0673 17.122C18.4193 17.234 18.7193 17.39 18.9673 17.59C19.2153 17.79 19.4033 18.026 19.5313 18.298C19.6593 18.57 19.7233 18.862 19.7233 19.174C19.7233 20.014 19.2473 20.814 18.2953 21.574L16.7233 22.834H19.6033C19.6513 22.922 19.6953 23.034 19.7353 23.17C19.7833 23.306 19.8073 23.454 19.8073 23.614C19.8073 23.902 19.7433 24.11 19.6153 24.238C19.4873 24.358 19.3193 24.418 19.1113 24.418H14.9473C14.7713 24.298 14.6313 24.146 14.5273 23.962C14.4313 23.77 14.3833 23.546 14.3833 23.29C14.3833 23.018 14.4393 22.79 14.5513 22.606C14.6633 22.414 14.7873 22.262 14.9233 22.15L16.5793 20.734C16.7873 20.558 16.9593 20.402 17.0953 20.266C17.2313 20.122 17.3393 19.994 17.4193 19.882C17.5073 19.77 17.5673 19.666 17.5993 19.57C17.6393 19.474 17.6593 19.382 17.6593 19.294C17.6593 19.07 17.5593 18.894 17.3593 18.766C17.1673 18.638 16.9273 18.574 16.6393 18.574C16.3193 18.574 16.0313 18.626 15.7753 18.73C15.5273 18.826 15.3193 18.93 15.1513 19.042C15.0153 18.946 14.9033 18.826 14.8153 18.682C14.7273 18.538 14.6833 18.37 14.6833 18.178C14.6833 17.762 14.8793 17.454 15.2713 17.254C15.6633 17.046 16.1913 16.942 16.8553 16.942Z" fill="white"/>        <path d="M21.6719 6.4375V1.67188C21.6719 1.02414 21.1477 0.5 20.5 0.5V7.60938C21.1477 7.60938 21.6719 7.08523 21.6719 6.4375Z" fill="#FF9F40"/>        <path d="M40.5 20.5C40.5 19.8523 39.9759 19.3281 39.3281 19.3281H34.5625C33.9148 19.3281 33.3906 19.8523 33.3906 20.5C33.3906 27.6079 27.6079 33.3906 20.5 33.3906V40.5C31.4852 40.5 40.5 31.4852 40.5 20.5Z" fill="#FFBE40"/>    </g>    <defs>        <clipPath id="clip0_32_7779">            <rect width="40" height="40" fill="white" transform="translate(0.5 0.5)"/>        </clipPath>    </defs></svg>