<svg width="40" height="41" viewBox="0 0 40 41" fill="none" xmlns="http://www.w3.org/2000/svg">    <g clip-path="url(#clip0_32_7869)">        <path d="M20 40.5C9.01484 40.5 0 31.4852 0 20.5C0 15.2346 2.17813 10.1728 5.87344 6.45355L5.02086 5.23815C4.77367 4.88339 4.74047 4.42222 4.935 4.03651C5.1307 3.65081 5.52211 3.40362 5.95469 3.39339L14.4027 3.19995C14.7552 3.24456 15.1649 3.37964 15.3892 3.70003C15.6135 4.02042 15.6627 4.43245 15.5209 4.79753L12.4503 12.6711C12.2935 13.0739 11.9273 13.3578 11.4981 13.4092C11.0644 13.4619 10.6467 13.2708 10.3984 12.9171L10.0093 12.361C8.13016 14.6555 7.10938 17.4982 7.10938 20.5C7.10938 27.6079 12.8921 33.3907 20 33.3907C27.1079 33.3907 32.8906 27.6079 32.8906 20.5C32.8906 19.8523 33.4148 19.3282 34.0625 19.3282H38.8281C39.4759 19.3282 40 19.8523 40 20.5C40 31.4852 30.9852 40.5 20 40.5Z" fill="#FFDF40"/>        <path d="M31.1637 14.0547C30.8398 13.4939 31.0321 12.7775 31.5929 12.4536L35.6521 10.1099C36.2083 9.78372 36.9281 9.97599 37.2531 10.539C37.577 11.0998 37.3848 11.8162 36.824 12.14L32.7648 14.4838C32.2059 14.8066 31.4878 14.6159 31.1637 14.0547Z" fill="#FF9F40"/>        <path d="M26.4453 9.33631C25.8845 9.0124 25.6923 8.29607 26.0162 7.73529L28.3599 3.67607C28.6838 3.1142 29.4013 2.92193 29.9609 3.24693C30.5217 3.57084 30.714 4.28717 30.3901 4.84795L28.0463 8.90717C27.7216 9.46943 27.003 9.6585 26.4453 9.33631Z" fill="#FF9F40"/>        <path d="M20 7.60938C19.3523 7.60938 18.8281 7.08523 18.8281 6.4375V1.67188C18.8281 1.02414 19.3523 0.5 20 0.5C20.6477 0.5 21.1719 1.02414 21.1719 1.67188V6.4375C21.1719 7.08523 20.6477 7.60938 20 7.60938Z" fill="#FFBE40"/>        <path d="M32.4512 17.1641C32.2841 16.5393 32.6549 15.8961 33.2798 15.729L37.8082 14.516C38.4353 14.3489 39.0773 14.7186 39.2433 15.3445C39.4104 15.9693 39.0396 16.6125 38.4148 16.7796L33.8863 17.9926C33.2673 18.1596 32.619 17.7942 32.4512 17.1641Z" fill="#FF9F40"/>        <path d="M29.1152 11.3848C28.6575 10.9271 28.6575 10.1854 29.1152 9.72771L32.4295 6.41349C32.8872 5.95576 33.6288 5.95576 34.0866 6.41349C34.5443 6.87123 34.5443 7.61287 34.0866 8.0706L30.7723 11.3848C30.3146 11.8426 29.573 11.8426 29.1152 11.3848Z" fill="#FF9F40"/>        <path d="M23.3359 8.04878C22.7111 7.88167 22.3403 7.23855 22.5074 6.61371L23.7205 2.08527C23.8887 1.4616 24.5319 1.09191 25.1555 1.25675C25.7804 1.42386 26.1512 2.06699 25.9841 2.69183L24.771 7.22027C24.6023 7.85222 23.9521 8.21496 23.3359 8.04878Z" fill="#FF9F40"/>        <path d="M29.7261 24.406C29.6461 24.43 29.5181 24.454 29.3421 24.478C29.1741 24.502 28.9981 24.514 28.8141 24.514C28.6381 24.514 28.4781 24.502 28.3341 24.478C28.1981 24.454 28.0821 24.406 27.9861 24.334C27.8901 24.262 27.8141 24.166 27.7581 24.046C27.7101 23.918 27.6861 23.754 27.6861 23.554V20.89C27.6861 20.562 27.6021 20.334 27.4341 20.206C27.2741 20.07 27.0741 20.002 26.8341 20.002C26.6741 20.002 26.5221 20.022 26.3781 20.062C26.2341 20.102 26.1181 20.15 26.0301 20.206V24.406C25.9501 24.43 25.8221 24.454 25.6461 24.478C25.4781 24.502 25.3021 24.514 25.1181 24.514C24.9421 24.514 24.7821 24.502 24.6381 24.478C24.5021 24.454 24.3861 24.406 24.2901 24.334C24.1941 24.262 24.1181 24.166 24.0621 24.046C24.0141 23.918 23.9901 23.754 23.9901 23.554V16.594C24.0781 16.578 24.2061 16.558 24.3741 16.534C24.5501 16.502 24.7261 16.486 24.9021 16.486C25.0781 16.486 25.2341 16.498 25.3701 16.522C25.5141 16.546 25.6341 16.594 25.7301 16.666C25.8261 16.738 25.8981 16.838 25.9461 16.966C26.0021 17.086 26.0301 17.246 26.0301 17.446V18.622C26.1341 18.582 26.2901 18.538 26.4981 18.49C26.7141 18.434 26.9501 18.406 27.2061 18.406C27.9981 18.406 28.6141 18.606 29.0541 19.006C29.5021 19.398 29.7261 19.986 29.7261 20.77V24.406Z" fill="white"/>        <path d="M19.4968 17.206C19.6488 17.158 19.8208 17.118 20.0128 17.086C20.2128 17.054 20.3928 17.038 20.5528 17.038C20.7368 17.038 20.9128 17.058 21.0808 17.098C21.2568 17.13 21.4128 17.19 21.5488 17.278C21.6848 17.358 21.7928 17.47 21.8728 17.614C21.9528 17.758 21.9928 17.938 21.9928 18.154V21.346H23.0608C23.1088 21.434 23.1568 21.55 23.2048 21.694C23.2528 21.838 23.2768 21.99 23.2768 22.15C23.2768 22.454 23.2088 22.67 23.0728 22.798C22.9368 22.926 22.7648 22.99 22.5568 22.99H21.9928V24.406C21.9048 24.422 21.7728 24.442 21.5968 24.466C21.4208 24.498 21.2528 24.514 21.0928 24.514C20.9168 24.514 20.7608 24.506 20.6248 24.49C20.4888 24.474 20.3728 24.438 20.2768 24.382C20.1888 24.318 20.1208 24.23 20.0728 24.118C20.0248 24.006 20.0008 23.854 20.0008 23.662V22.99H16.9888C16.8048 22.894 16.6448 22.754 16.5088 22.57C16.3808 22.378 16.3168 22.146 16.3168 21.874C16.3168 21.722 16.3368 21.554 16.3768 21.37C16.4168 21.186 16.4848 21.026 16.5808 20.89L19.4968 17.206ZM20.1088 19.09H20.0728L18.4768 21.346H20.1088V19.09Z" fill="white"/>        <path d="M12.7459 16.942C13.2019 16.942 13.6059 17.002 13.9579 17.122C14.3099 17.234 14.6099 17.39 14.8579 17.59C15.1059 17.79 15.2939 18.026 15.4219 18.298C15.5499 18.57 15.6139 18.862 15.6139 19.174C15.6139 20.014 15.1379 20.814 14.1859 21.574L12.6139 22.834H15.4939C15.5419 22.922 15.5859 23.034 15.6259 23.17C15.6739 23.306 15.6979 23.454 15.6979 23.614C15.6979 23.902 15.6339 24.11 15.5059 24.238C15.3779 24.358 15.2099 24.418 15.0019 24.418H10.8379C10.6619 24.298 10.5219 24.146 10.4179 23.962C10.3219 23.77 10.2739 23.546 10.2739 23.29C10.2739 23.018 10.3299 22.79 10.4419 22.606C10.5539 22.414 10.6779 22.262 10.8139 22.15L12.4699 20.734C12.6779 20.558 12.8499 20.402 12.9859 20.266C13.1219 20.122 13.2299 19.994 13.3099 19.882C13.3979 19.77 13.4579 19.666 13.4899 19.57C13.5299 19.474 13.5499 19.382 13.5499 19.294C13.5499 19.07 13.4499 18.894 13.2499 18.766C13.0579 18.638 12.8179 18.574 12.5299 18.574C12.2099 18.574 11.9219 18.626 11.6659 18.73C11.4179 18.826 11.2099 18.93 11.0419 19.042C10.9059 18.946 10.7939 18.826 10.7059 18.682C10.6179 18.538 10.5739 18.37 10.5739 18.178C10.5739 17.762 10.7699 17.454 11.1619 17.254C11.5539 17.046 12.0819 16.942 12.7459 16.942Z" fill="white"/>        <path d="M21.1719 6.4375V1.67188C21.1719 1.02414 20.6477 0.5 20 0.5V7.60938C20.6477 7.60938 21.1719 7.08523 21.1719 6.4375Z" fill="#FF9F40"/>        <path d="M40 20.5C40 19.8523 39.4759 19.3281 38.8281 19.3281H34.0625C33.4148 19.3281 32.8906 19.8523 32.8906 20.5C32.8906 27.6079 27.1079 33.3906 20 33.3906V40.5C30.9852 40.5 40 31.4852 40 20.5Z" fill="#FFBE40"/>    </g>    <defs>        <clipPath id="clip0_32_7869">            <rect width="40" height="40" fill="white" transform="translate(0 0.5)"/>        </clipPath>    </defs></svg>