<svg width="41" height="41" viewBox="0 0 41 41" fill="none" xmlns="http://www.w3.org/2000/svg">    <g clip-path="url(#clip0_34_26859)">        <path d="M20.5 40.5C9.51484 40.5 0.5 31.4852 0.5 20.5C0.5 15.2346 2.67813 10.1728 6.37344 6.45355L5.52086 5.23815C5.27367 4.88339 5.24047 4.42222 5.435 4.03651C5.6307 3.65081 6.02211 3.40362 6.45469 3.39339L14.9027 3.19995C15.2552 3.24456 15.6649 3.37964 15.8892 3.70003C16.1135 4.02042 16.1627 4.43245 16.0209 4.79753L12.9503 12.6711C12.7935 13.0739 12.4273 13.3578 11.9981 13.4092C11.5644 13.4619 11.1467 13.2708 10.8984 12.9171L10.5093 12.361C8.63016 14.6555 7.60938 17.4982 7.60938 20.5C7.60938 27.6079 13.3921 33.3907 20.5 33.3907C27.6079 33.3907 33.3906 27.6079 33.3906 20.5C33.3906 19.8523 33.9148 19.3282 34.5625 19.3282H39.3281C39.9759 19.3282 40.5 19.8523 40.5 20.5C40.5 31.4852 31.4852 40.5 20.5 40.5Z" fill="#FFDF40"/>        <path d="M31.6637 14.0547C31.3398 13.4939 31.5321 12.7775 32.0929 12.4536L36.1521 10.1099C36.7083 9.78372 37.4281 9.97599 37.7531 10.539C38.077 11.0998 37.8848 11.8162 37.324 12.14L33.2648 14.4838C32.7059 14.8066 31.9878 14.6159 31.6637 14.0547Z" fill="#FF9F40"/>        <path d="M26.9453 9.33631C26.3845 9.0124 26.1923 8.29607 26.5162 7.73529L28.8599 3.67607C29.1838 3.1142 29.9013 2.92193 30.4609 3.24693C31.0217 3.57084 31.214 4.28717 30.8901 4.84795L28.5463 8.90717C28.2216 9.46943 27.503 9.6585 26.9453 9.33631Z" fill="#FF9F40"/>        <path d="M20.5 7.60938C19.8523 7.60938 19.3281 7.08523 19.3281 6.4375V1.67188C19.3281 1.02414 19.8523 0.5 20.5 0.5C21.1477 0.5 21.6719 1.02414 21.6719 1.67188V6.4375C21.6719 7.08523 21.1477 7.60938 20.5 7.60938Z" fill="#FFBE40"/>        <path d="M32.9512 17.1641C32.7841 16.5393 33.1549 15.8961 33.7798 15.729L38.3082 14.516C38.9353 14.3489 39.5773 14.7186 39.7433 15.3445C39.9104 15.9693 39.5396 16.6125 38.9148 16.7796L34.3863 17.9926C33.7673 18.1596 33.119 17.7942 32.9512 17.1641Z" fill="#FF9F40"/>        <path d="M29.6152 11.3848C29.1575 10.9271 29.1575 10.1854 29.6152 9.72771L32.9295 6.41349C33.3872 5.95576 34.1288 5.95576 34.5866 6.41349C35.0443 6.87123 35.0443 7.61287 34.5866 8.0706L31.2723 11.3848C30.8146 11.8426 30.073 11.8426 29.6152 11.3848Z" fill="#FF9F40"/>        <path d="M23.8359 8.04878C23.2111 7.88167 22.8403 7.23855 23.0074 6.61371L24.2205 2.08527C24.3887 1.4616 25.0319 1.09191 25.6555 1.25675C26.2804 1.42386 26.6512 2.06699 26.4841 2.69183L25.271 7.22027C25.1023 7.85222 24.4521 8.21496 23.8359 8.04878Z" fill="#FF9F40"/>        <path d="M12.8351 18.024C13.7551 18.024 14.4551 18.216 14.9351 18.6C15.4151 18.976 15.6551 19.484 15.6551 20.124C15.6551 20.508 15.5511 20.836 15.3431 21.108C15.1431 21.372 14.9031 21.572 14.6231 21.708C14.7911 21.772 14.9471 21.852 15.0911 21.948C15.2351 22.044 15.3631 22.164 15.4751 22.308C15.5871 22.452 15.6751 22.62 15.7391 22.812C15.8031 23.004 15.8351 23.228 15.8351 23.484C15.8351 23.828 15.7591 24.136 15.6071 24.408C15.4631 24.68 15.2591 24.912 14.9951 25.104C14.7311 25.296 14.4151 25.44 14.0471 25.536C13.6871 25.64 13.2911 25.692 12.8591 25.692C12.0271 25.692 11.3991 25.576 10.9751 25.344C10.5511 25.112 10.3391 24.816 10.3391 24.456C10.3391 24.24 10.3911 24.056 10.4951 23.904C10.5991 23.744 10.7271 23.62 10.8791 23.532C11.0391 23.644 11.2511 23.764 11.5151 23.892C11.7871 24.012 12.1391 24.072 12.5711 24.072C12.9791 24.072 13.2791 24 13.4711 23.856C13.6711 23.712 13.7711 23.524 13.7711 23.292C13.7711 23.06 13.6911 22.884 13.5311 22.764C13.3791 22.644 13.1111 22.584 12.7271 22.584H11.5991C11.5431 22.496 11.4951 22.388 11.4551 22.26C11.4151 22.132 11.3951 21.98 11.3951 21.804C11.3951 21.62 11.4111 21.464 11.4431 21.336C11.4831 21.2 11.5351 21.088 11.5991 21H12.7271C13.3031 21 13.5911 20.78 13.5911 20.34C13.5911 20.132 13.4991 19.964 13.3151 19.836C13.1311 19.708 12.8551 19.644 12.4871 19.644C12.1591 19.644 11.8711 19.684 11.6231 19.764C11.3751 19.836 11.1711 19.928 11.0111 20.04C10.8751 19.944 10.7631 19.828 10.6751 19.692C10.5871 19.548 10.5431 19.38 10.5431 19.188C10.5431 18.788 10.7511 18.496 11.1671 18.312C11.5831 18.12 12.1391 18.024 12.8351 18.024ZM22.046 19.092C22.046 19.26 22.006 19.424 21.926 19.584C21.854 19.736 21.766 19.852 21.662 19.932C21.446 19.836 21.218 19.764 20.978 19.716C20.746 19.66 20.53 19.632 20.33 19.632C19.85 19.632 19.478 19.76 19.214 20.016C18.958 20.264 18.786 20.624 18.698 21.096C18.858 20.984 19.07 20.884 19.334 20.796C19.598 20.7 19.87 20.652 20.15 20.652C20.886 20.652 21.47 20.864 21.902 21.288C22.342 21.712 22.562 22.32 22.562 23.112C22.562 23.456 22.502 23.784 22.382 24.096C22.262 24.408 22.082 24.684 21.842 24.924C21.602 25.156 21.302 25.344 20.942 25.488C20.59 25.624 20.178 25.692 19.706 25.692C18.762 25.692 18.018 25.376 17.474 24.744C16.938 24.112 16.67 23.212 16.67 22.044C16.67 21.38 16.75 20.796 16.91 20.292C17.078 19.788 17.31 19.368 17.606 19.032C17.91 18.696 18.27 18.444 18.686 18.276C19.102 18.108 19.562 18.024 20.066 18.024C20.706 18.024 21.194 18.112 21.53 18.288C21.874 18.464 22.046 18.732 22.046 19.092ZM19.694 22.212C19.542 22.212 19.378 22.244 19.202 22.308C19.034 22.372 18.898 22.46 18.794 22.572V22.872C18.794 23.304 18.882 23.612 19.058 23.796C19.242 23.98 19.462 24.072 19.718 24.072C19.982 24.072 20.178 23.984 20.306 23.808C20.442 23.632 20.51 23.404 20.51 23.124C20.51 22.844 20.438 22.624 20.294 22.464C20.158 22.296 19.958 22.212 19.694 22.212ZM29.3254 25.488C29.2454 25.512 29.1174 25.536 28.9414 25.56C28.7734 25.584 28.5974 25.596 28.4134 25.596C28.2374 25.596 28.0774 25.584 27.9334 25.56C27.7974 25.536 27.6814 25.488 27.5854 25.416C27.4894 25.344 27.4134 25.248 27.3574 25.128C27.3094 25 27.2854 24.836 27.2854 24.636V21.972C27.2854 21.644 27.2014 21.416 27.0334 21.288C26.8734 21.152 26.6734 21.084 26.4334 21.084C26.2734 21.084 26.1214 21.104 25.9774 21.144C25.8334 21.184 25.7174 21.232 25.6294 21.288V25.488C25.5494 25.512 25.4214 25.536 25.2454 25.56C25.0774 25.584 24.9014 25.596 24.7174 25.596C24.5414 25.596 24.3814 25.584 24.2374 25.56C24.1014 25.536 23.9854 25.488 23.8894 25.416C23.7934 25.344 23.7174 25.248 23.6614 25.128C23.6134 25 23.5894 24.836 23.5894 24.636V17.676C23.6774 17.66 23.8054 17.64 23.9734 17.616C24.1494 17.584 24.3254 17.568 24.5014 17.568C24.6774 17.568 24.8334 17.58 24.9694 17.604C25.1134 17.628 25.2334 17.676 25.3294 17.748C25.4254 17.82 25.4974 17.92 25.5454 18.048C25.6014 18.168 25.6294 18.328 25.6294 18.528V19.704C25.7334 19.664 25.8894 19.62 26.0974 19.572C26.3134 19.516 26.5494 19.488 26.8054 19.488C27.5974 19.488 28.2134 19.688 28.6534 20.088C29.1014 20.48 29.3254 21.068 29.3254 21.852V25.488Z" fill="white"/>        <path d="M21.6719 6.4375V1.67188C21.6719 1.02414 21.1477 0.5 20.5 0.5V7.60938C21.1477 7.60938 21.6719 7.08523 21.6719 6.4375Z" fill="#FF9F40"/>        <path d="M40.5 20.5C40.5 19.8523 39.9759 19.3281 39.3281 19.3281H34.5625C33.9148 19.3281 33.3906 19.8523 33.3906 20.5C33.3906 27.6079 27.6079 33.3906 20.5 33.3906V40.5C31.4852 40.5 40.5 31.4852 40.5 20.5Z" fill="#FFBE40"/>    </g>    <defs>        <clipPath id="clip0_34_26859">            <rect width="40" height="40" fill="white" transform="translate(0.5 0.5)"/>        </clipPath>    </defs></svg>