<svg width="40" height="41" viewBox="0 0 40 41" fill="none" xmlns="http://www.w3.org/2000/svg">    <g clip-path="url(#clip0_32_7804)">        <path d="M20 40.5C9.01484 40.5 0 31.4852 0 20.5C0 15.2346 2.17813 10.1728 5.87344 6.45355L5.02086 5.23815C4.77367 4.88339 4.74047 4.42222 4.935 4.03651C5.1307 3.65081 5.52211 3.40362 5.95469 3.39339L14.4027 3.19995C14.7552 3.24456 15.1649 3.37964 15.3892 3.70003C15.6135 4.02042 15.6627 4.43245 15.5209 4.79753L12.4503 12.6711C12.2935 13.0739 11.9273 13.3578 11.4981 13.4092C11.0644 13.4619 10.6467 13.2708 10.3984 12.9171L10.0093 12.361C8.13016 14.6555 7.10938 17.4982 7.10938 20.5C7.10938 27.6079 12.8921 33.3907 20 33.3907C27.1079 33.3907 32.8906 27.6079 32.8906 20.5C32.8906 19.8523 33.4148 19.3282 34.0625 19.3282H38.8281C39.4759 19.3282 40 19.8523 40 20.5C40 31.4852 30.9852 40.5 20 40.5Z" fill="#FFDF40"/>        <path d="M31.1637 14.0547C30.8398 13.4939 31.0321 12.7775 31.5929 12.4536L35.6521 10.1099C36.2083 9.78372 36.9281 9.97599 37.2531 10.539C37.577 11.0998 37.3848 11.8162 36.824 12.14L32.7648 14.4838C32.2059 14.8066 31.4878 14.6159 31.1637 14.0547Z" fill="#FF9F40"/>        <path d="M26.4453 9.33625C25.8845 9.01234 25.6923 8.29601 26.0162 7.73523L28.3599 3.67601C28.6838 3.11414 29.4013 2.92187 29.9609 3.24687C30.5217 3.57078 30.714 4.28711 30.3901 4.84789L28.0463 8.90711C27.7216 9.46937 27.003 9.65843 26.4453 9.33625Z" fill="#FF9F40"/>        <path d="M20 7.60938C19.3523 7.60938 18.8281 7.08523 18.8281 6.4375V1.67188C18.8281 1.02414 19.3523 0.5 20 0.5C20.6477 0.5 21.1719 1.02414 21.1719 1.67188V6.4375C21.1719 7.08523 20.6477 7.60938 20 7.60938Z" fill="#FFBE40"/>        <path d="M32.4512 17.164C32.2841 16.5392 32.6549 15.8961 33.2798 15.729L37.8082 14.5159C38.4353 14.3488 39.0773 14.7185 39.2433 15.3444C39.4104 15.9693 39.0396 16.6124 38.4148 16.7795L33.8863 17.9926C33.2673 18.1595 32.619 17.7941 32.4512 17.164Z" fill="#FF9F40"/>        <path d="M29.1152 11.3848C28.6575 10.927 28.6575 10.1854 29.1152 9.72765L32.4295 6.41343C32.8872 5.9557 33.6288 5.9557 34.0866 6.41343C34.5443 6.87116 34.5443 7.61281 34.0866 8.07054L30.7723 11.3848C30.3146 11.8425 29.573 11.8426 29.1152 11.3848Z" fill="#FF9F40"/>        <path d="M23.3359 8.04885C22.7111 7.88174 22.3403 7.23861 22.5074 6.61377L23.7205 2.08533C23.8887 1.46166 24.5319 1.09197 25.1555 1.25681C25.7804 1.42392 26.1512 2.06705 25.9841 2.69189L24.771 7.22033C24.6023 7.85228 23.9521 8.21502 23.3359 8.04885Z" fill="#FF9F40"/>        <path d="M26.0568 24.358C25.9768 24.382 25.8488 24.406 25.6728 24.43C25.5048 24.454 25.3288 24.466 25.1448 24.466C24.9688 24.466 24.8088 24.454 24.6648 24.43C24.5288 24.406 24.4128 24.358 24.3168 24.286C24.2208 24.214 24.1448 24.118 24.0888 23.998C24.0408 23.87 24.0168 23.706 24.0168 23.506V20.842C24.0168 20.514 23.9328 20.286 23.7648 20.158C23.6048 20.022 23.4048 19.954 23.1648 19.954C23.0048 19.954 22.8528 19.974 22.7088 20.014C22.5648 20.054 22.4488 20.102 22.3608 20.158V24.358C22.2808 24.382 22.1528 24.406 21.9768 24.43C21.8088 24.454 21.6328 24.466 21.4488 24.466C21.2728 24.466 21.1128 24.454 20.9688 24.43C20.8328 24.406 20.7168 24.358 20.6208 24.286C20.5248 24.214 20.4488 24.118 20.3928 23.998C20.3448 23.87 20.3208 23.706 20.3208 23.506V16.546C20.4088 16.53 20.5368 16.51 20.7048 16.486C20.8808 16.454 21.0568 16.438 21.2328 16.438C21.4088 16.438 21.5648 16.45 21.7008 16.474C21.8448 16.498 21.9648 16.546 22.0608 16.618C22.1568 16.69 22.2288 16.79 22.2768 16.918C22.3328 17.038 22.3608 17.198 22.3608 17.398V18.574C22.4648 18.534 22.6208 18.49 22.8288 18.442C23.0448 18.386 23.2808 18.358 23.5368 18.358C24.3288 18.358 24.9448 18.558 25.3848 18.958C25.8328 19.35 26.0568 19.938 26.0568 20.722V24.358Z" fill="white"/>        <path d="M16.4032 24.562C16.0352 24.562 15.6992 24.534 15.3952 24.478C15.0992 24.422 14.8432 24.338 14.6272 24.226C14.4112 24.114 14.2432 23.978 14.1232 23.818C14.0032 23.65 13.9432 23.458 13.9432 23.242C13.9432 23.018 14.0072 22.83 14.1352 22.678C14.2632 22.526 14.4072 22.406 14.5672 22.318C14.7912 22.486 15.0312 22.634 15.2872 22.762C15.5432 22.882 15.8672 22.942 16.2592 22.942C16.6352 22.942 16.9032 22.858 17.0632 22.69C17.2232 22.522 17.3032 22.318 17.3032 22.078C17.3032 21.846 17.2312 21.654 17.0872 21.502C16.9512 21.35 16.7112 21.274 16.3672 21.274C16.1512 21.274 15.9712 21.298 15.8272 21.346C15.6832 21.394 15.5192 21.462 15.3352 21.55C14.9432 21.534 14.6312 21.43 14.3992 21.238C14.1752 21.038 14.0632 20.734 14.0632 20.326C14.0632 20.302 14.0632 20.274 14.0632 20.242C14.0632 20.202 14.0672 20.126 14.0752 20.014L14.2192 18.19C14.2432 17.846 14.3512 17.574 14.5432 17.374C14.7352 17.174 15.0032 17.074 15.3472 17.074H18.8032C18.8512 17.162 18.8992 17.278 18.9472 17.422C18.9952 17.566 19.0192 17.718 19.0192 17.878C19.0192 18.182 18.9512 18.398 18.8152 18.526C18.6792 18.654 18.5072 18.718 18.2992 18.718H15.9952L15.9112 19.846C16.0632 19.806 16.2152 19.77 16.3672 19.738C16.5272 19.706 16.7272 19.69 16.9672 19.69C17.3832 19.69 17.7432 19.754 18.0472 19.882C18.3512 20.002 18.5992 20.17 18.7912 20.386C18.9912 20.602 19.1352 20.854 19.2232 21.142C19.3192 21.43 19.3672 21.738 19.3672 22.066C19.3672 22.394 19.3112 22.71 19.1992 23.014C19.0872 23.318 18.9112 23.586 18.6712 23.818C18.4312 24.042 18.1232 24.222 17.7472 24.358C17.3792 24.494 16.9312 24.562 16.4032 24.562Z" fill="white"/>        <path d="M21.1719 6.4375V1.67188C21.1719 1.02414 20.6477 0.5 20 0.5V7.60938C20.6477 7.60938 21.1719 7.08523 21.1719 6.4375Z" fill="#FF9F40"/>        <path d="M40 20.5C40 19.8523 39.4759 19.3281 38.8281 19.3281H34.0625C33.4148 19.3281 32.8906 19.8523 32.8906 20.5C32.8906 27.6079 27.1079 33.3906 20 33.3906V40.5C30.9852 40.5 40 31.4852 40 20.5Z" fill="#FFBE40"/>    </g>    <defs>        <clipPath id="clip0_32_7804">            <rect width="40" height="40" fill="white" transform="translate(0 0.5)"/>        </clipPath>    </defs></svg>