<svg width="60" height="61" viewBox="0 0 60 61" fill="none" xmlns="http://www.w3.org/2000/svg">
<g clip-path="url(#clip0_31_7050)">
<path d="M30 60.1094C46.5685 60.1094 60 46.6779 60 30.1094C60 13.5408 46.5685 0.109375 30 0.109375C13.4315 0.109375 0 13.5408 0 30.1094C0 46.6779 13.4315 60.1094 30 60.1094Z" fill="#FDD835"/>
<path opacity="0.5" d="M30 0.109375C13.432 0.109375 0 13.5414 0 30.1094C0 46.6773 13.432 60.1094 30 60.1094C46.568 60.1094 60 46.6773 60 30.1094C60 13.5414 46.568 0.109375 30 0.109375ZM30 58.8203C14.1434 58.8203 1.28906 45.966 1.28906 30.1094C1.28906 14.2527 14.1434 1.39844 30 1.39844C45.8566 1.39844 58.7109 14.2527 58.7109 30.1094C58.7109 45.966 45.8566 58.8203 30 58.8203Z" fill="#FAFAFA"/>
<path opacity="0.5" d="M41.9695 2.59257L2.4832 42.0789C1.16367 39.0484 0.328127 35.7543 0.079689 32.3008L32.1914 0.189056C35.6449 0.437494 38.9391 1.27304 41.9695 2.59257Z" fill="#FAFAFA"/>
<path opacity="0.5" d="M56.1434 15.3848L15.2754 56.2527C12.7336 54.8183 10.4227 53.0242 8.40938 50.9383L50.8289 8.51874C52.9148 10.532 54.7102 12.843 56.1434 15.3848Z" fill="#FAFAFA"/>
<path opacity="0.5" d="M49.6031 7.40078L7.29024 49.7125C6.62813 48.9473 6.00469 48.1469 5.42344 47.316L47.2066 5.53281C48.0363 6.11406 48.8367 6.73749 49.6031 7.40078Z" fill="#FAFAFA"/>
<path opacity="0.5" d="M59.059 22.6234L22.5141 59.1684C21.4102 58.8848 20.332 58.5402 19.2797 58.1383L58.0277 19.3902C58.4297 20.4414 58.7754 21.5207 59.0578 22.6246L59.059 22.6234Z" fill="#FAFAFA"/>
<path opacity="0.5" d="M54.3715 31.4078C54.3715 44.3887 43.8469 54.9133 30.866 54.9133C23.5734 54.9133 17.0543 51.5922 12.7453 46.3785C17.0379 51.0191 23.1809 53.9242 30 53.9242C42.9809 53.9242 53.5055 43.3996 53.5055 30.4187C53.5055 24.7316 51.4852 19.5145 48.1219 15.448C52.002 19.641 54.3715 25.2473 54.3715 31.4078Z" fill="#FAFAFA"/>
<path d="M30 53.9242C42.9817 53.9242 53.5055 43.4005 53.5055 30.4188C53.5055 17.437 42.9817 6.91328 30 6.91328C17.0183 6.91328 6.49453 17.437 6.49453 30.4188C6.49453 43.4005 17.0183 53.9242 30 53.9242Z" fill="#F39E09"/>
<path d="M47.8125 15.0813C43.6957 11.5328 38.3355 9.38828 32.475 9.38828C19.4941 9.38828 8.96953 19.9129 8.96953 32.8938C8.96953 38.7543 11.1152 44.1145 14.6625 48.2313C9.66094 43.9199 6.49453 37.5391 6.49453 30.4188C6.49453 17.4379 17.0191 6.91328 30 6.91328C37.1191 6.91328 43.5012 10.0785 47.8125 15.0813Z" fill="#E88102"/>
<path d="M42.0633 34.593L41.857 34.7102C41.318 32.6289 39.7547 31.5508 37.5996 31.034C39.2555 30.1902 40.3359 28.75 40.275 26.4168H40.2785V24.7L40.0371 24.7785C39.2144 21.959 36.3211 20.9465 32.7656 20.6348V15.5746H29.6859V20.5012C28.8762 20.5012 28.0488 20.5176 27.2262 20.534V15.5746H24.1477V20.6336C23.4797 20.6477 22.8246 20.6594 22.1859 20.6606V20.6453L17.9379 20.6441V23.9336C17.9379 23.9336 20.2137 23.8902 20.175 23.9324C21.423 23.9324 21.8285 24.6566 21.9469 25.2824V31.0469C22.0336 31.0469 22.1461 31.0504 22.2727 31.068C22.1695 31.068 22.0605 31.068 21.9469 31.068V39.1434C21.8918 39.5359 21.6609 40.1617 20.7891 40.1641C20.8289 40.1992 18.5496 40.1641 18.5496 40.1641L18.2625 41.8891L17.9379 41.9875V43.8438H21.9457C22.6922 43.8438 23.4258 43.8566 24.1465 43.8613V48.9789H27.225V43.9152C28.0699 43.9328 28.8867 43.9399 29.6859 43.9387V48.9789H32.7644V43.8707C37.9441 43.5731 41.5676 42.2688 42.0176 37.4066C42.0434 37.1336 42.0562 36.8723 42.0609 36.6191H42.0633V34.5977V34.593ZM27.2988 24.1527C29.0379 24.1527 34.4988 23.5996 34.5 27.2289C34.5 30.7082 29.0379 30.3027 27.2988 30.3027V24.1527ZM27.2988 40.1875V33.407C29.3871 33.407 35.9332 32.807 35.9332 36.7961C35.9344 40.6211 29.3859 40.1852 27.2988 40.1875Z" fill="#DB6704"/>
<path d="M40.2398 23.9969C39.8895 20.3488 36.7406 19.1254 32.7644 18.7773V13.7172H29.6848V18.6438C28.875 18.6438 28.0477 18.6602 27.225 18.6766V13.7172H24.1465V18.7762C23.4785 18.7902 22.8234 18.802 22.1848 18.8031V18.7879L17.9367 18.7867V22.0762C17.9367 22.0762 20.2125 22.0328 20.1738 22.075C21.4219 22.075 21.8273 22.7992 21.9457 23.425V29.1895C22.0324 29.1895 22.1449 29.193 22.2715 29.2106C22.1684 29.2106 22.0594 29.2106 21.9457 29.2106V37.2859C21.8906 37.6785 21.6598 38.3043 20.7879 38.3066C20.8277 38.3418 18.5484 38.3066 18.5484 38.3066L17.9367 41.9852H21.9445C22.691 41.9852 23.4246 41.9981 24.1453 42.0027V47.1203H27.2238V42.0566C28.0687 42.0742 28.8855 42.0813 29.6848 42.0801V47.1203H32.7633V42.0121C37.943 41.7145 41.5664 40.4102 42.0164 35.5481C42.3797 31.6328 40.5375 29.8856 37.5984 29.1801C39.3844 28.2707 40.5012 26.6688 40.2398 23.9992V23.9969ZM35.9309 34.9398C35.932 38.7649 29.3836 38.3289 27.2965 38.3313V31.5508C29.3848 31.5508 35.9309 30.9508 35.9309 34.9398ZM34.4988 25.3727C34.4988 28.852 29.0367 28.4465 27.2977 28.4465V22.2965C29.0367 22.2965 34.4988 21.7434 34.4988 25.3727Z" fill="#FDD835"/>
<path opacity="0.5" d="M24.1476 13.7172H27.2262V17.3359L21.7324 22.8297C21.491 22.4137 21.0305 22.0738 20.1762 22.0738C20.2137 22.0316 17.9391 22.075 17.9391 22.075V18.7856L22.1859 18.7867V18.8031C22.8258 18.802 23.4797 18.7891 24.1465 18.7762V13.7172H24.1476Z" fill="#FAFAFA"/>
<path opacity="0.5" d="M30.8437 13.7172L29.6848 14.8773V13.7172H30.8437Z" fill="#FAFAFA"/>
<path opacity="0.5" d="M33.893 37.6363L29.4492 42.0801C28.725 42.0789 27.9855 42.0731 27.225 42.0566V44.3043L24.409 47.1203H24.1477V42.0027C23.4246 41.9981 22.691 41.9852 21.9457 41.984H17.9379L18.0516 41.2973L21.068 38.2809C21.6281 38.1766 21.8426 37.7641 21.9187 37.4301L27.2977 32.0512V38.3324C28.6312 38.3313 31.7883 38.5094 33.893 37.6375V37.6363Z" fill="#FAFAFA"/>
<path opacity="0.5" d="M35.8348 35.6945C35.898 35.4637 35.9309 35.2117 35.9309 34.9398C35.932 31.232 30.2801 31.4887 27.8051 31.5426L31.043 28.3047C32.8289 28.0316 34.4977 27.2957 34.4977 25.3727C34.4977 25.2004 34.4848 25.0387 34.4613 24.8852L38.6344 20.7121C39.5262 21.4902 40.1016 22.5531 40.2398 23.9957C40.5012 26.6652 39.3832 28.2672 37.5984 29.1766C38.884 29.4859 39.9598 29.9934 40.732 30.7949L35.8336 35.6934L35.8348 35.6945Z" fill="#FAFAFA"/>
<path opacity="0.5" d="M18.5508 38.3055C18.5508 38.3055 18.6047 38.3067 18.6973 38.3078L18.5215 38.4824L18.5508 38.3055Z" fill="#FAFAFA"/>
<path opacity="0.5" d="M27.2977 28.4465C27.6105 28.4465 28.043 28.4606 28.5422 28.4617L21.9457 35.057V30.7938L27.2977 25.4418V28.4465Z" fill="#FAFAFA"/>
<path opacity="0.5" d="M37.2035 19.8004L33.6305 23.3734C32.8395 22.6914 31.616 22.4207 30.4184 22.3211L33.8414 18.8981C35.0941 19.0703 36.2391 19.3516 37.2023 19.8016L37.2035 19.8004Z" fill="#FAFAFA"/>
<path opacity="0.5" d="M30.2977 47.1191L32.7633 44.6547V47.1191H30.2977Z" fill="#FAFAFA"/>
<path opacity="0.5" d="M42.0293 35.3887C42.0269 35.4402 42.0223 35.4941 42.0164 35.5469C41.659 39.4129 39.2953 41.0301 35.7375 41.6793L42.0281 35.3887H42.0293Z" fill="#FAFAFA"/>
<path opacity="0.25" d="M49.6031 17.4461C34.3816 22.7899 22.166 34.5262 16.1789 49.4324C15.6551 49.0516 15.1477 48.6484 14.659 48.2254C11.1129 44.1098 8.96953 38.7508 8.96953 32.8926C8.96953 19.9117 19.4941 9.38712 32.475 9.38712C38.3332 9.38712 43.6922 11.5305 47.8078 15.0766C48.4547 15.8266 49.0547 16.6176 49.6043 17.4461H49.6031Z" fill="#FAFAFA"/>
</g>
<defs>
<clipPath id="clip0_31_7050">
<rect width="60" height="60" fill="white" transform="translate(0 0.109375)"/>
</clipPath>
</defs>
</svg>
