<svg width="21" height="21" viewBox="0 0 21 21" fill="none" xmlns="http://www.w3.org/2000/svg">
    <g clip-path="url(#clip0_34_34405)">
        <path d="M14.9205 6.93631C15.2256 7.24149 15.2256 7.73618 14.9205 8.0412L9.67938 13.2824C9.37421 13.5875 8.87967 13.5875 8.57449 13.2824L6.07953 10.7873C5.77435 10.4823 5.77435 9.98761 6.07953 9.68259C6.38455 9.37741 6.87924 9.37741 7.18427 9.68259L9.12686 11.6252L13.8156 6.93631C14.1208 6.63129 14.6154 6.63129 14.9205 6.93631ZM20.5 10.1094C20.5 15.6369 16.0267 20.1094 10.5 20.1094C4.9725 20.1094 0.5 15.6361 0.5 10.1094C0.5 4.58188 4.97327 0.109375 10.5 0.109375C16.0275 0.109375 20.5 4.58264 20.5 10.1094ZM18.9375 10.1094C18.9375 5.44553 15.1632 1.67188 10.5 1.67188C5.83615 1.67188 2.0625 5.44614 2.0625 10.1094C2.0625 14.7732 5.83676 18.5469 10.5 18.5469C15.1638 18.5469 18.9375 14.7726 18.9375 10.1094Z" fill="#5F507E"/>
    </g>
    <defs>
        <clipPath id="clip0_34_34405">
            <rect width="20" height="20" fill="white" transform="translate(0.5 0.109375)"/>
        </clipPath>
    </defs>
</svg>
