<svg width="17" height="16" viewBox="0 0 17 16" fill="none" xmlns="http://www.w3.org/2000/svg">
    <path d="M15.7728 9.1525L16.1103 10.4728L15.0616 11.3428L14.9725 12.7028L13.7063 13.2063L13.2028 14.4725L11.8428 14.5616L10.9728 15.6103L9.6525 15.2728L8.5 16L7.3475 15.2728L6.02719 15.6103L5.15719 14.5616L3.79719 14.4725L3.29375 13.2063L2.0275 12.7028L1.93844 11.3428L0.889688 10.4728L1.22719 9.1525L0.5 8L1.22719 6.8475L0.889688 5.52719L1.93844 4.65719L2.0275 3.29719L3.29375 2.79375L3.79719 1.5275L5.15719 1.43844L6.02719 0.389688L7.3475 0.727188L8.5 0L9.6525 0.727188L10.9728 0.389688L11.8428 1.43844L13.2028 1.5275L13.7063 2.79375L14.9725 3.29719L15.0616 4.65719L16.1103 5.52719L15.7728 6.8475L16.5 8L15.7728 9.1525Z" fill="#FFF098"/>
    <path d="M15.7728 9.1525L16.1103 10.4728L15.0616 11.3428L14.9725 12.7028L13.7063 13.2063L13.2028 14.4725L11.8428 14.5616L10.9728 15.6103L9.6525 15.2728L8.5 16V0L9.6525 0.727188L10.9728 0.389688L11.8428 1.43844L13.2028 1.5275L13.7063 2.79375L14.9725 3.29719L15.0616 4.65719L16.1103 5.52719L15.7728 6.8475L16.5 8L15.7728 9.1525Z" fill="#FCCD5B"/>
    <path d="M8.5 13.5553C11.5681 13.5553 14.0553 11.0681 14.0553 8.00001C14.0553 4.9319 11.5681 2.4447 8.5 2.4447C5.43188 2.4447 2.94469 4.9319 2.94469 8.00001C2.94469 11.0681 5.43188 13.5553 8.5 13.5553Z" fill="#FF668F"/>
    <path d="M14.0553 8.00001C14.0553 11.0681 11.5681 13.5553 8.5 13.5553V2.4447C11.5681 2.4447 14.0553 4.93189 14.0553 8.00001Z" fill="#F23756"/>
    <path d="M6.61716 8C5.83959 8 5.207 7.36741 5.207 6.58984C5.207 5.81228 5.83959 5.17969 6.61716 5.17969C7.39472 5.17969 8.02731 5.81228 8.02731 6.58984C8.02731 7.36741 7.39472 8 6.61716 8ZM6.61716 6.11719C6.35653 6.11719 6.1445 6.32922 6.1445 6.58984C6.1445 6.85047 6.35653 7.0625 6.61716 7.0625C6.87778 7.0625 7.08981 6.85047 7.08981 6.58984C7.08981 6.32922 6.87778 6.11719 6.61716 6.11719Z" fill="#F7F8F9"/>
    <path d="M10.3828 10.8203C9.60528 10.8203 8.97269 10.1877 8.97269 9.41016C8.97269 8.63259 9.60528 8 10.3828 8C11.1604 8 11.793 8.63259 11.793 9.41016C11.793 10.1877 11.1604 10.8203 10.3828 10.8203ZM10.3828 8.9375C10.1222 8.9375 9.91019 9.14953 9.91019 9.41016C9.91019 9.67078 10.1222 9.88281 10.3828 9.88281C10.6435 9.88281 10.8555 9.67078 10.8555 9.41016C10.8555 9.14953 10.6435 8.9375 10.3828 8.9375Z" fill="#E3EAEE"/>
    <path d="M10.6734 6.13943L8.5 8.72943L7.045 10.4635L6.32687 9.86068L8.5 7.271L9.95531 5.53662L10.6734 6.13943Z" fill="#F7F8F9"/>
    <path d="M10.6734 6.13943L8.5 8.72943V7.271L9.95531 5.53662L10.6734 6.13943Z" fill="#E3EAEE"/>
</svg>
