<svg width="61" height="60" viewBox="0 0 61 60" fill="none" xmlns="http://www.w3.org/2000/svg">
    <path d="M11.5821 29.4094C11.5821 29.4094 13.4785 32.1953 17.4531 34.5535C17.4531 34.5535 14.5745 10.2252 33.3304 6C28.5251 23.6363 39.4429 28.6101 43.4227 19.2924C50.0689 28.166 45.0227 35.9077 45.0227 35.9077C47.7479 36.3003 50.0371 33.323 50.0371 33.323C50.0575 33.6897 50.0689 34.059 50.0689 34.4309C50.069 45.2386 41.3076 54 30.4999 54C19.6921 54 10.9307 45.2386 10.9307 34.4308C10.9307 32.6947 11.1579 31.0119 11.5821 29.4094Z" fill="#FF6536"/>
    <path d="M50.0373 33.323C50.0373 33.323 47.7481 36.3003 45.0229 35.9077C45.0229 35.9077 50.0692 28.166 43.423 19.2924C39.4432 28.6101 28.5253 23.6363 33.3307 6C32.3262 6.22631 31.3842 6.51066 30.5 6.84544V54C41.3078 54 50.0692 45.2386 50.0692 34.4308C50.0692 34.0589 50.0578 33.6897 50.0373 33.323Z" fill="#FF421D"/>
    <path d="M21.9175 45.4177C21.9175 50.1576 25.7599 54 30.4997 54C35.2395 54 39.082 50.1576 39.082 45.4177C39.082 42.8808 37.9813 40.601 36.2312 39.0298C32.913 43.5378 28.1845 36.6996 31.8696 31.7059C31.8696 31.7059 21.9175 32.953 21.9175 45.4177Z" fill="#FBBF00"/>
    <path d="M39.0823 45.4177C39.0823 42.8808 37.9815 40.601 36.2315 39.0298C32.9133 43.5378 28.1848 36.6996 31.8699 31.7059C31.8699 31.7059 31.3291 31.7738 30.5 32.0355V54C35.2398 54 39.0823 50.1576 39.0823 45.4177Z" fill="#FFA900"/>
</svg>
