<svg width="61" height="60" viewBox="0 0 61 60" fill="none" xmlns="http://www.w3.org/2000/svg">
    <path d="M41.7505 20.1563H35.7972L42.9562 8.13001C43.2171 7.69463 43.224 7.1536 42.974 6.71278C42.7241 6.27197 42.2572 6 41.7505 6H30.5004H24.8754C24.2299 6 23.6683 6.4395 23.5117 7.06566L17.8867 29.6595C17.7809 30.0797 17.8757 30.5247 18.1421 30.8652C18.4086 31.2071 18.8178 31.4063 19.2504 31.4063H25.6582L17.9335 52.0995C17.6862 52.7587 17.9651 53.4989 18.5844 53.8326C19.2065 54.166 19.9762 53.9876 20.3875 53.4206L30.5004 39.4215L42.8876 22.3893C43.1993 21.9621 43.2433 21.3964 43.0043 20.9239C42.764 20.4529 42.2792 20.1563 41.7505 20.1563Z" fill="#FED843"/>
    <path d="M43.0044 20.9239C42.7641 20.4529 42.2793 20.1563 41.7505 20.1563H35.7973L42.9563 8.13001C43.2172 7.69463 43.224 7.1536 42.9741 6.71278C42.7241 6.27197 42.2573 6 41.7505 6H30.5005V39.4217L42.8876 22.3893C43.1994 21.9622 43.2433 21.3964 43.0044 20.9239Z" fill="#FABE2C"/>
</svg>
