<svg width="17" height="17" viewBox="0 0 17 17" fill="none" xmlns="http://www.w3.org/2000/svg">
    <g clip-path="url(#clip0_70_42545)">
        <path d="M16.5137 8.42578C16.5137 12.287 13.7768 15.5102 10.1374 16.2608L0.968047 11.0892C0.673672 10.2561 0.513672 9.35953 0.513672 8.42578C0.513672 6.98578 0.894609 5.63391 1.5618 4.46578C1.56336 4.46266 1.56492 4.45922 1.56648 4.45766C2.94398 2.04828 5.5393 0.425781 8.51367 0.425781C11.488 0.425781 14.0834 2.04828 15.4609 4.45766C15.4624 4.45922 15.464 4.46266 15.4655 4.46578C16.1327 5.63391 16.5137 6.98578 16.5137 8.42578Z" fill="#4C1760"/>
        <path d="M16.5137 8.42577C16.5137 12.287 13.7768 15.5101 10.1374 16.2608L0.968047 11.0892C0.673672 10.2561 0.513672 9.35952 0.513672 8.42577C0.513672 6.98577 0.894609 5.63389 1.5618 4.46577C1.56336 4.46264 1.56492 4.4592 1.56648 4.45764C2.36023 5.84483 3.5568 6.97139 4.99836 7.67702C5.1618 7.75702 5.32961 7.83202 5.4993 7.90108C6.40648 8.27045 7.3968 8.47858 8.43367 8.48827H8.59367C9.63055 8.47858 10.6209 8.27045 11.528 7.90108C11.6977 7.83202 11.8655 7.75702 12.029 7.67702C13.469 6.97139 14.6674 5.84483 15.4609 4.45764C15.4624 4.4592 15.464 4.46264 15.4655 4.46577C16.1327 5.63389 16.5137 6.98577 16.5137 8.42577Z" fill="#3A004D"/>
        <path d="M15.4891 10.8527L11.4494 14.9339L11.4169 14.9252C9.19225 14.3561 7.44506 12.6383 6.84193 10.422L6.82693 10.3674L6.82568 10.3655L10.8532 6.29266L15.4891 10.8527Z" fill="#06995A"/>
        <path d="M11.4483 14.9339L10.1373 16.2608C9.61297 16.3689 9.06984 16.4258 8.51359 16.4258C8.49359 16.4258 8.47359 16.4258 8.45359 16.4255C8.04484 16.0033 7.48797 15.7749 6.91766 15.7749C6.71016 15.7749 6.50109 15.8049 6.29672 15.8671L5.89828 15.9883H5.89797C5.78953 15.9508 5.68203 15.9108 5.57578 15.8689C4.64328 15.5005 3.79672 14.9621 3.07422 14.2911C3.10016 14.1849 3.15422 14.0836 3.23672 14.0002L6.82609 10.3671L11.4483 14.9339Z" fill="#56C126"/>
        <path d="M7.5957 11.1275L7.64067 11.3954C7.88939 12.9135 9.14592 14.0618 10.6786 14.1733L13.9472 10.8654L10.8648 7.81982L7.5957 11.1275Z" fill="#56C126"/>
        <path d="M10.6787 14.1733L8.45371 16.4255C7.55934 16.4189 6.69965 16.2655 5.89809 15.9883L4.32715 14.4361L7.5959 11.1277L10.6787 14.1733Z" fill="#ACE334"/>
        <path d="M10.347 13.8458C10.3457 13.847 10.3448 13.8483 10.3436 13.8495C9.68887 14.5117 8.62075 14.5173 7.95668 13.8598C7.29481 13.2054 7.28918 12.1373 7.94387 11.4754L7.94575 11.4736L8.37512 11.5708C9.36075 11.7936 10.1176 12.5836 10.2982 13.5773L10.347 13.8458Z" fill="#56C126"/>
        <path d="M10.3471 13.8457L7.9458 11.4735C8.60155 10.813 9.66871 10.8081 10.3305 11.4629C10.9918 12.1169 10.9988 13.1834 10.3471 13.8457Z" fill="#06995A"/>
        <path d="M9.38699 12.7905C9.22918 12.6121 9.05824 12.4455 8.87605 12.2917L8.17856 11.7033L8.17637 11.7052L8.08105 11.8014L8.28012 11.9986C8.26918 12.0164 8.25856 12.0352 8.24793 12.0542C8.15168 12.2358 8.16793 12.4583 8.29074 12.6355C8.4023 12.7974 8.57762 12.8842 8.74918 12.8627C8.8398 12.8511 8.93949 12.8233 9.06512 12.7752L9.65043 13.3542C9.57043 13.4242 9.50012 13.4586 9.35949 13.4886L9.22512 13.5174L9.28262 13.7864L9.4173 13.7574C9.62231 13.713 9.73106 13.6517 9.84637 13.548L10.0498 13.7492L10.1448 13.6527L10.1486 13.6492L9.38699 12.7905ZM8.7148 12.5899C8.64574 12.5986 8.56949 12.5564 8.51668 12.4796C8.46918 12.4105 8.43731 12.3024 8.48324 12.1996L8.84731 12.5599C8.80043 12.5736 8.75543 12.5846 8.7148 12.5899Z" fill="#ACE334"/>
        <path d="M10.0313 13.3446C10.2055 13.0831 10.1512 12.7764 10.0103 12.5811C9.8296 12.3298 9.52841 12.2567 9.24366 12.3949C9.20532 12.4132 9.16607 12.4313 9.12644 12.4496L8.6646 11.9925C8.7535 11.9378 8.83232 11.9303 8.84091 11.9298L8.97694 11.9232L8.96447 11.6488L8.82716 11.6553C8.81629 11.6558 8.63997 11.6659 8.46603 11.7959L8.274 11.606L8.17822 11.7032L10.1482 13.6493L10.2425 13.5539L10.0313 13.3446ZM9.82857 13.1441L9.33503 12.6556C9.34441 12.6511 9.3535 12.6466 9.36338 12.6416C9.60579 12.5245 9.74925 12.6886 9.78754 12.7414C9.86207 12.8451 9.89547 13.0011 9.82857 13.1441Z" fill="#56C126"/>
        <path d="M11.1469 6.06984L8.37566 11.1067L8.34191 11.1073C6.0466 11.167 3.89691 9.99109 2.7116 8.02359L2.68254 7.97515L2.68066 7.97359L5.4466 2.94421L11.1469 6.06984Z" fill="#06995A"/>
        <path d="M8.37451 11.107L5.91295 15.5817C5.83639 15.7208 5.71451 15.8192 5.57607 15.8689C4.03107 15.2583 2.72139 14.1808 1.8217 12.8102C1.95357 12.6036 1.81107 12.332 1.56607 12.323L1.52545 12.3214H1.52514C1.30639 11.9298 1.11951 11.518 0.968262 11.0892L2.68139 7.97516L8.37451 11.107Z" fill="#56C126"/>
        <path d="M3.62939 8.49661L3.74577 8.74208C4.3993 10.1346 5.92152 10.8965 7.42639 10.5855L9.66833 6.51124L5.87174 4.42236L3.62939 8.49661Z" fill="#56C126"/>
        <path d="M7.42615 10.5855L5.18428 14.6605L1.82146 12.8101C1.71709 12.6511 1.61803 12.488 1.5249 12.3214L3.62928 8.4967L7.42615 10.5855Z" fill="#ACE334"/>
        <path d="M7.018 10.3608C7.01707 10.3623 7.01644 10.3639 7.0155 10.3654C6.56644 11.1811 5.5405 11.4779 4.72207 11.0267C3.90675 10.5776 3.60988 9.55169 4.05925 8.73638C4.05957 8.73544 4.06019 8.73481 4.0605 8.73388L4.65175 8.72825C5.45644 8.72075 6.20957 9.12388 6.64988 9.79732L7.018 10.3608Z" fill="#56C126"/>
        <path d="M7.01805 10.3608L4.06055 8.73393C4.51117 7.91956 5.53648 7.62362 6.3518 8.07299C7.16648 8.52174 7.4643 9.54581 7.01805 10.3608Z" fill="#06995A"/>
        <path d="M6.07916 9.76579C5.70697 9.51892 5.31291 9.30611 4.90229 9.12986L4.34666 8.89142L4.3451 8.89392L4.27979 9.01267L4.5251 9.14798C4.51947 9.16798 4.51416 9.18892 4.50916 9.21017C4.46604 9.41111 4.5426 9.62079 4.70885 9.75767C4.86041 9.88298 5.05291 9.91861 5.21197 9.85111C5.29604 9.81548 5.38447 9.76142 5.49197 9.68079L6.21322 10.0783C6.15541 10.1674 6.09697 10.2195 5.9701 10.2867L5.84854 10.3511L5.97729 10.5942L6.09885 10.5295C6.28416 10.4311 6.37197 10.3424 6.45447 10.2111L6.7051 10.3492L6.77041 10.2305L6.77291 10.2261L6.07916 9.76579ZM5.10447 9.59798C5.04041 9.62548 4.95572 9.60548 4.88385 9.54611C4.81947 9.49267 4.75916 9.39736 4.7751 9.28579L5.22385 9.53298C5.1826 9.55923 5.14229 9.58204 5.10447 9.59798Z" fill="#ACE334"/>
        <path d="M6.5773 9.96482C6.67355 9.66576 6.53762 9.38545 6.34887 9.23607C6.10637 9.04357 5.79668 9.05545 5.56043 9.26608C5.52855 9.2942 5.49574 9.32232 5.46262 9.35076L4.89355 9.03701C4.96418 8.96014 5.03793 8.93139 5.04605 8.92857L5.17512 8.88514L5.08824 8.62451L4.95793 8.66826C4.94762 8.6717 4.78074 8.72951 4.64887 8.90201L4.4123 8.7717L4.34668 8.89139L6.77293 10.2261L6.83762 10.1086L6.5773 9.96482ZM6.32762 9.82732L5.71949 9.49201C5.7273 9.48514 5.7348 9.47826 5.74293 9.47076C5.94418 9.29201 6.12699 9.41076 6.17824 9.45107C6.27824 9.53045 6.35293 9.67139 6.32762 9.82732Z" fill="#56C126"/>
        <path d="M10.9593 3.0138L10.5933 2.18542C10.3013 2.52421 10.1252 2.84408 10.028 3.34811C9.9561 3.71899 9.94297 4.18355 9.97954 4.58846C9.99654 4.77808 9.80085 4.91474 9.62982 4.83071C9.62763 4.82961 9.62541 4.82852 9.62322 4.82742C9.30382 4.66855 9.04272 4.41308 8.8665 4.10289C8.8636 4.09777 8.86063 4.09255 8.85763 4.08727C8.7795 4.25933 8.73632 4.40811 8.73632 4.40811C8.68016 4.64939 8.6285 5.00133 8.6651 5.40049C8.73375 6.14899 8.96732 6.72071 9.51307 7.14552C9.81719 7.3823 10.2032 7.52121 10.5933 7.54527C10.5933 7.54527 11.6109 4.48899 10.9593 3.0138Z" fill="#FFDC00"/>
        <path d="M12.5017 5.55472C12.4426 4.94894 12.0571 4.43369 11.713 3.93157C11.4442 3.53891 11.1309 2.97169 10.944 2.4066C10.8945 2.25697 10.8654 2.10135 10.8568 1.944L10.8565 1.93866C10.7301 2.02291 10.5933 2.18528 10.5933 2.18528V7.54532C10.9026 7.56422 11.2146 7.51144 11.4901 7.37882C12.1132 7.07894 12.5686 6.24282 12.5017 5.55472Z" fill="#FFBC00"/>
        <path d="M10.5933 5.26447C10.5249 5.35459 10.4415 5.43481 10.3456 5.50056C10.1091 5.66259 9.82035 5.72131 9.54541 5.67159C9.62369 6.04312 9.77225 6.29178 10.0247 6.48812C10.1781 6.60747 10.3831 6.68668 10.5933 6.70918L10.6703 6.594C10.9449 6.18331 10.9134 5.64047 10.5933 5.26447Z" fill="#FFBC00"/>
        <path d="M11.1287 6.62776C10.99 6.69485 10.8221 6.7241 10.6449 6.71354C10.6278 6.71232 10.6103 6.71113 10.5933 6.70907V5.26426C10.7542 5.05285 10.8339 4.78579 10.8095 4.51341C10.7957 4.36016 10.7908 4.19835 10.7945 4.04144C10.8685 4.16541 10.9461 4.28616 11.0258 4.40241C11.0526 4.44185 11.0799 4.48129 11.1071 4.52072C11.3807 4.9171 11.6389 5.2911 11.6726 5.63544C11.7059 5.98097 11.4315 6.48222 11.1287 6.62776Z" fill="#FF9100"/>
        <path d="M3.62615 4.89558L3.33537 4.23755C3.10344 4.50667 2.96353 4.76074 2.88631 5.16114C2.82922 5.45574 2.81878 5.8248 2.84784 6.14642C2.86134 6.29705 2.7059 6.40561 2.57006 6.33886C2.56831 6.33802 2.56656 6.33714 2.56481 6.33627C2.31106 6.21005 2.10369 6.00714 1.96369 5.76074C1.96137 5.75667 1.95903 5.75252 1.95662 5.7483C1.89456 5.88499 1.86025 6.00317 1.86025 6.00317C1.81565 6.19483 1.77462 6.47442 1.80369 6.79146C1.85822 7.38605 2.04378 7.84021 2.47728 8.17764C2.71887 8.36574 3.02547 8.47608 3.33537 8.49517C3.33534 8.49521 4.14378 6.06742 3.62615 4.89558Z" fill="#FFDC00"/>
        <path d="M4.85148 6.91397C4.80451 6.43278 4.49829 6.02347 4.22498 5.6246C4.01139 5.31269 3.76251 4.8621 3.61407 4.41322C3.57479 4.29435 3.55164 4.17075 3.54482 4.04575L3.54461 4.0415C3.4442 4.10844 3.33545 4.23741 3.33545 4.23741V8.49522C3.5812 8.51025 3.82904 8.46832 4.04789 8.36297C4.54282 8.12475 4.90464 7.46057 4.85148 6.91397Z" fill="#FFBC00"/>
        <path d="M3.3353 6.68341C3.28102 6.755 3.21474 6.81872 3.13855 6.87097C2.95074 6.99969 2.72134 7.04635 2.50293 7.00682C2.56512 7.30194 2.68312 7.49947 2.88368 7.65544C3.00549 7.75025 3.16837 7.81319 3.3353 7.83104L3.39646 7.73954C3.61465 7.41332 3.58965 6.9821 3.3353 6.68341Z" fill="#FFBC00"/>
        <path d="M3.76073 7.76638C3.65061 7.8197 3.51723 7.84291 3.37645 7.83451C3.36289 7.83354 3.34898 7.83257 3.33545 7.83098V6.68326C3.46332 6.51532 3.52664 6.3032 3.50723 6.08682C3.49626 5.96507 3.49239 5.83654 3.49529 5.71191C3.55407 5.81038 3.61576 5.90632 3.67904 5.99866C3.70036 6.02998 3.72198 6.06132 3.74361 6.09263C3.96095 6.40751 4.16601 6.7046 4.19279 6.9781C4.21929 7.25257 4.00132 7.65076 3.76073 7.76638Z" fill="#FF9100"/>
        <path d="M14.3781 7.99606L14.0133 7.17059C13.7224 7.50819 13.5468 7.82694 13.45 8.32925C13.3783 8.69881 13.3653 9.16178 13.4017 9.56525C13.4186 9.75419 13.2236 9.89037 13.0532 9.80666C13.051 9.80556 13.0488 9.8045 13.0466 9.80341C12.7283 9.64509 12.4682 9.39053 12.2925 9.08141C12.2896 9.07631 12.2867 9.07109 12.2837 9.06581C12.2058 9.23728 12.1628 9.38553 12.1628 9.38553C12.1068 9.62597 12.0553 9.97669 12.0918 10.3744C12.1603 11.1203 12.393 11.6901 12.9368 12.1134C13.2399 12.3493 13.6245 12.4877 14.0133 12.5117C14.0133 12.5117 15.0274 9.46612 14.3781 7.99606Z" fill="#FFDC00"/>
        <path d="M15.915 10.5282C15.8561 9.9245 15.4719 9.41103 15.1291 8.91068C14.8611 8.5194 14.5489 7.95415 14.3627 7.39103C14.3134 7.24193 14.2844 7.08684 14.2758 6.93003L14.2756 6.92468C14.1496 7.00865 14.0132 7.17046 14.0132 7.17046V12.5118C14.3215 12.5306 14.6324 12.478 14.9069 12.3459C15.5278 12.047 15.9817 11.2138 15.915 10.5282Z" fill="#FFBC00"/>
        <path d="M14.0134 10.2389C13.9453 10.3287 13.8622 10.4086 13.7666 10.4742C13.531 10.6356 13.2432 10.6942 12.9692 10.6446C13.0472 11.0148 13.1953 11.2626 13.4469 11.4583C13.5997 11.5772 13.804 11.6562 14.0134 11.6786L14.0902 11.5638C14.3638 11.1545 14.3325 10.6136 14.0134 10.2389Z" fill="#FFBC00"/>
        <path d="M14.5467 11.5975C14.4086 11.6644 14.2412 11.6935 14.0646 11.683C14.0476 11.6817 14.0302 11.6805 14.0132 11.6785V10.2388C14.1736 10.0281 14.253 9.76195 14.2287 9.49055C14.2149 9.33783 14.2101 9.17658 14.2137 9.0202C14.2874 9.14373 14.3648 9.26408 14.4442 9.37992C14.4709 9.41923 14.4981 9.45852 14.5252 9.49783C14.7978 9.8928 15.0551 10.2655 15.0887 10.6086C15.122 10.953 14.8485 11.4525 14.5467 11.5975Z" fill="#FF9100"/>
    </g>
    <defs>
        <clipPath id="clip0_70_42545">
            <rect width="16" height="16" fill="white" transform="translate(0.513672 0.425781)"/>
        </clipPath>
    </defs>
</svg>
