<svg width="21" height="21" viewBox="0 0 21 21" fill="none" xmlns="http://www.w3.org/2000/svg">
<g clip-path="url(#clip0_3_406)">
<path d="M9.16395 5.55964C9.04982 5.36905 8.83767 5.25964 8.61615 5.27648L3.85466 5.64429C3.37259 5.68155 2.94318 5.93421 2.67647 6.33756L0.67824 9.35988C0.476015 9.66578 0.443827 10.0485 0.592186 10.3839C0.740505 10.7192 1.04539 10.9528 1.40769 11.0089L5.26859 11.6069C5.29863 11.6116 5.32863 11.6139 5.3584 11.6139C5.55617 11.6139 5.74328 11.5136 5.85199 11.3435L9.15497 6.17624C9.27462 5.98901 9.27806 5.75026 9.16395 5.55964Z" fill="#E45A6E"/>
<path d="M15.0497 11.4454C14.8591 11.3313 14.6203 11.3348 14.4331 11.4544L9.26587 14.7574C9.07021 14.8825 8.96689 15.1113 9.0024 15.3408L9.60036 19.2017C9.65649 19.564 9.89016 19.8689 10.2255 20.0172C10.365 20.0789 10.5126 20.1093 10.6596 20.1093C10.8659 20.1093 11.0708 20.0493 11.2494 19.9312L14.2718 17.9329C14.6752 17.6663 14.9279 17.2368 14.965 16.7547L15.3329 11.9933C15.35 11.7717 15.2403 11.5596 15.0497 11.4454Z" fill="#D82E44"/>
<path d="M8.03393 16.2139C8.26713 16.4471 8.59849 16.5562 8.92376 16.5017C13.6937 15.7042 17.4683 11.7548 18.9052 8.97661C20.5009 5.89171 20.56 2.63173 20.4766 1.10284C20.448 0.578937 20.0304 0.161323 19.5065 0.13273C17.9776 0.049371 14.7177 0.108472 11.6327 1.70412C8.85454 3.1411 4.9052 6.91565 4.10763 11.6856C4.05325 12.0109 4.16232 12.3422 4.39552 12.5754L8.03393 16.2139Z" fill="#F1F1FB"/>
<path d="M20.1773 0.432068L6.21472 14.3947L8.03393 16.2139C8.26713 16.4471 8.59849 16.5561 8.92376 16.5017C13.6937 15.7042 17.4683 11.7548 18.9052 8.97665C20.5009 5.89175 20.56 2.63178 20.4766 1.10288C20.4623 0.840932 20.3507 0.605543 20.1773 0.432068Z" fill="#D7D6FB"/>
<path d="M14.2003 9.33735C13.45 9.33739 12.6999 9.05184 12.1287 8.48064C11.5754 7.92732 11.2706 7.19158 11.2706 6.40905C11.2706 5.62652 11.5754 4.89078 12.1287 4.33747C13.271 3.19521 15.1296 3.19517 16.2719 4.33747C16.8252 4.89078 17.1299 5.62652 17.1299 6.40905C17.1299 7.19158 16.8252 7.92732 16.2719 8.48064C15.7008 9.05173 14.9504 9.33727 14.2003 9.33735Z" fill="#466288"/>
<path d="M4.10763 11.6856C4.05325 12.0109 4.16232 12.3423 4.39552 12.5755L8.03393 16.2139C8.26713 16.4471 8.59849 16.5561 8.92376 16.5018C9.96168 16.3282 10.9524 16.0053 11.8822 15.5779L5.03153 8.7272C4.60407 9.657 4.28118 10.6477 4.10763 11.6856Z" fill="#466288"/>
<path d="M1.09781 16.5912C1.24773 16.5912 1.39773 16.534 1.51211 16.4196L3.42512 14.5066C3.65395 14.2778 3.65395 13.9068 3.42512 13.6779C3.19633 13.4491 2.82535 13.4491 2.59648 13.6779L0.683515 15.5909C0.454687 15.8197 0.454687 16.1908 0.683515 16.4196C0.797929 16.534 0.947851 16.5912 1.09781 16.5912Z" fill="#FDB43A"/>
<path d="M5.17828 15.4311C4.94949 15.2023 4.57848 15.2023 4.34965 15.4311L0.671758 19.109C0.44293 19.3378 0.44293 19.7088 0.671758 19.9377C0.786172 20.0521 0.936133 20.1093 1.08609 20.1093C1.23606 20.1093 1.38602 20.052 1.50039 19.9376L5.17828 16.2597C5.40711 16.0309 5.40711 15.6599 5.17828 15.4311Z" fill="#FDB43A"/>
<path d="M6.93142 17.1843C6.70263 16.9555 6.33161 16.9555 6.10279 17.1843L4.18982 19.0973C3.96099 19.326 3.96099 19.6971 4.18982 19.9259C4.30423 20.0403 4.45419 20.0975 4.60411 20.0975C4.75404 20.0975 4.90404 20.0403 5.01841 19.9259L6.93142 18.0129C7.16025 17.7841 7.16025 17.4131 6.93142 17.1843Z" fill="#F57A21"/>
<path d="M0.671757 19.9377C0.786171 20.0521 0.936132 20.1093 1.08609 20.1093C1.23605 20.1093 1.38601 20.052 1.50039 19.9376L5.17828 16.2597C5.40711 16.0309 5.40711 15.6599 5.17828 15.4311L0.671757 19.9377Z" fill="#F57A21"/>
<path d="M6.21472 14.3947L8.03393 16.2139C8.26713 16.4471 8.59849 16.5561 8.92376 16.5018C9.96168 16.3282 10.9524 16.0053 11.8822 15.5779L8.45689 12.1525L6.21472 14.3947Z" fill="#354A67"/>
<path d="M12.1287 8.48063C12.6999 9.05184 13.45 9.33742 14.2003 9.33735C14.9504 9.33727 15.7008 9.05168 16.2719 8.48063C16.8252 7.92728 17.1299 7.19158 17.1299 6.40905C17.1299 5.62652 16.8252 4.89078 16.2719 4.33746L12.1287 8.48063Z" fill="#354A67"/>
<path d="M14.2003 4.65211C13.7502 4.65211 13.3 4.82344 12.9574 5.16614C12.6254 5.49813 12.4425 5.93954 12.4425 6.40907C12.4425 6.8786 12.6254 7.32001 12.9574 7.652C13.6427 8.33735 14.758 8.33739 15.4433 7.652C15.7753 7.31997 15.9581 6.87856 15.9581 6.40903C15.9581 5.9395 15.7753 5.49809 15.4433 5.1661C15.1006 4.82344 14.6505 4.65211 14.2003 4.65211Z" fill="#4BBEFD"/>
<path d="M15.4433 5.16614L12.9574 7.65204C13.6427 8.33739 14.7579 8.33743 15.4433 7.65204C15.7753 7.32001 15.9581 6.8786 15.9581 6.40907C15.9581 5.93954 15.7753 5.49813 15.4433 5.16614Z" fill="#0590FB"/>
</g>
<defs>
<clipPath id="clip0_3_406">
<rect width="20" height="20" fill="white" transform="translate(0.5 0.109375)"/>
</clipPath>
</defs>
</svg>
