<svg width="21" height="20" viewBox="0 0 21 20" fill="none" xmlns="http://www.w3.org/2000/svg">
    <g clip-path="url(#clip0_32_8992)">
        <path d="M5.92475 5.42479C3.4111 7.9375 3.38004 12.0315 5.92463 14.5751C7.14643 15.7974 8.77141 16.4706 10.4998 16.4706L10.892 10L10.4998 3.52942C8.77141 3.52942 7.14675 4.2024 5.92475 5.42479Z" fill="#EDF5FF"/>
        <path d="M10.5 3.52942V16.4706C14.0751 16.4706 16.9706 13.5769 16.9706 10C16.9706 6.42487 14.0769 3.52942 10.5 3.52942Z" fill="#99CCFF"/>
        <path d="M6.08082 5.58087C4.94235 6.71895 4.25 8.28405 4.25 10.0001L2.37498 10.3922L0.5 10.0001C0.5 7.25483 1.60706 4.75044 3.42878 2.92883L5.14678 4.25468C5.3602 4.5577 4.6302 3.52119 6.08082 5.58087Z" fill="#FF8797"/>
        <path d="M10.4999 16.25L10.8921 18.125L10.4999 20C7.75459 20 5.25032 18.8929 3.42871 17.0712L4.3624 15.7454C4.41063 15.7082 4.02738 16.0039 6.08079 14.4192C7.21891 15.5577 8.78397 16.25 10.4999 16.25Z" fill="#C6EA4B"/>
        <path d="M16.7498 9.99994L18.539 9.60779L20.4998 9.99994C20.4998 12.7616 19.3806 15.2616 17.571 17.0712L16.3889 16.2812C16.375 16.2636 16.5557 16.4925 14.9189 14.4191C16.0502 13.2883 16.7498 11.7258 16.7498 9.99994Z" fill="#00DC7B"/>
        <path d="M17.5712 17.0712C15.7616 18.8808 13.2616 20 10.5 20V16.25C12.2258 16.25 13.7884 15.5504 14.9192 14.4192C17.8266 17.3266 17.4906 16.9906 17.5712 17.0712Z" fill="#FFB366"/>
        <path d="M17.5713 2.92878L16.5458 4.34643C16.5419 4.34941 16.6401 4.2749 14.9192 5.58082C13.7884 4.44961 12.2259 3.75 10.5001 3.75L10.1079 1.82353L10.5001 0C13.2617 0 15.7617 1.11918 17.5713 2.92878Z" fill="#FF3377"/>
        <path d="M6.08082 14.4192C3.00867 17.4913 3.48118 17.0188 3.42875 17.0712C1.60737 15.2499 0.5 12.7456 0.5 10H4.25C4.25 11.7158 4.94216 13.2809 6.08082 14.4192Z" fill="#99CCFF"/>
        <path d="M20.4998 9.99997H16.7498C16.7498 8.27412 16.0502 6.71161 14.9189 5.58079C15.2446 5.25518 17.237 3.26271 17.571 2.92871C19.3806 4.73832 20.4998 7.23832 20.4998 9.99997Z" fill="#8095FF"/>
        <path d="M10.4999 8.23531L10.2038 8.67825L9.91162 8.33617C9.91162 8.08464 9.91162 7.31068 9.91162 7.05884H10.4999L10.892 7.62417L10.4999 8.23531Z" fill="#00617A"/>
        <path d="M11.6763 9.41174H13.441V10.5882H11.6763V9.41174Z" fill="#07485C"/>
        <path d="M10.8053 8.65394L10.5 8.23531V7.05884H11.0882V8.33613L10.8053 8.65394Z" fill="#07485C"/>
        <path d="M10.5 0V3.75C8.78424 3.75 7.21906 4.44212 6.08079 5.58082C5.66338 5.16341 3.84416 3.3442 3.42871 2.92875C5.25016 1.10733 7.75432 0 10.5 0Z" fill="#FFE666"/>
        <path d="M10.4999 11.7709L10.2038 11.328L9.91162 11.6701V12.9474H10.4999L10.892 12.382L10.4999 11.7709Z" fill="#00617A"/>
        <path d="M10.8053 11.3523L10.5 11.7709V12.9474H11.0882V11.6701L10.8053 11.3523Z" fill="#07485C"/>
        <path d="M7.56494 9.41174H9.08353V10.5888H7.56494V9.41174Z" fill="#00617A"/>
        <path d="M9.25287 11.2473C9.57243 11.5668 10.0136 11.7648 10.5001 11.7648L10.8923 10.0001L10.5001 8.23535C10.0136 8.23535 9.57243 8.43327 9.25287 8.7528C8.56306 9.44261 8.56263 10.557 9.25287 11.2473Z" fill="#FF8797"/>
        <path d="M10.5 8.23535V11.7648C11.4731 11.7648 12.2647 10.9732 12.2647 10.0001C12.2647 9.02704 11.4731 8.23535 10.5 8.23535Z" fill="#FF3377"/>
    </g>
    <defs>
        <clipPath id="clip0_32_8992">
            <rect width="20" height="20" fill="white" transform="translate(0.5)"/>
        </clipPath>
    </defs>
</svg>
