<svg width="21" height="20" viewBox="0 0 21 20" fill="none" xmlns="http://www.w3.org/2000/svg">
<path d="M10.1588 4.20587C10.1588 14.3823 10.1882 14.0294 10.1294 14.0294C9.8353 14.0294 9.77647 14.0588 9.77647 14.0294V4.20587H9.80589H10.1588Z" fill="#423D9B"/>
<path d="M7.04119 12.6765L6.74707 12.8823L5.74707 11.2353L3.42354 7.44117V7.41176L3.71766 7.23529L5.98236 10.9412L7.04119 12.6765Z" fill="#423D9B"/>
<path d="M8.8353 12.5588C8.80589 12.5882 8.48236 12.7059 8.51177 12.7059C8.51177 12.7059 8.51177 12.7059 8.48236 12.7059L7.45295 10.0588L6.36472 7.26468L6.68825 7.14703H6.71766L7.80589 9.94115L8.8353 12.5588Z" fill="#423D9B"/>
<path d="M16.8059 7.41176L14.2765 11.5882L13.4824 12.8823C13.4824 12.9118 13.4824 12.8823 13.4529 12.8823L13.1588 12.7059V12.6765L14.0118 11.2941L16.4824 7.23529L16.8059 7.41176C16.8059 7.38235 16.8059 7.38235 16.8059 7.41176Z" fill="#423D9B"/>
<path d="M13.8353 7.23529L12.6588 10.2647L11.7177 12.7059C11.7177 12.7059 11.7177 12.7059 11.6882 12.7059L11.3647 12.5882C11.3647 12.5882 11.3647 12.5882 11.3647 12.5588L12.3353 10.0882L13.5118 7.08823H13.5412L13.8353 7.23529C13.8353 7.20587 13.8353 7.20587 13.8353 7.23529Z" fill="#423D9B"/>
<path d="M16.8353 7.32352C16.8353 7.44117 16.7471 7.5294 16.6294 7.5294C16.5118 7.5294 16.4235 7.44117 16.4235 7.32352C16.3941 7.29411 16.5706 6.20587 15.1294 6.20587C14.4235 6.20587 13.8353 6.61764 13.8353 7.14705V7.29411C13.8353 7.41176 13.7177 7.5294 13.6 7.5294C13.4824 7.5294 13.3647 7.44117 13.3647 7.29411C13.3647 7.29411 13.3353 6.29411 10.1 6.20587C6.8353 6.29411 6.8353 7.29411 6.8353 7.29411C6.8353 7.41176 6.74707 7.5294 6.60001 7.5294C6.48236 7.5294 6.36472 7.44117 6.36472 7.29411V7.14705C6.36472 5.91176 3.77648 5.91176 3.77648 7.14705V7.32352C3.77648 7.44117 3.68824 7.5294 3.5706 7.5294C3.45295 7.5294 3.36472 7.44117 3.36472 7.32352C3.36472 5.47058 4.0706 3.79411 5.24707 2.58823C6.42354 1.38234 8.0706 0.617638 10.0412 0.588226C10.0706 0.588226 10.1588 0.588226 10.1294 0.588226C12.1 0.617638 13.7471 1.38234 14.9235 2.58823C16.1294 3.82352 16.8059 5.47058 16.8353 7.32352Z" fill="#497BFE"/>
<path d="M13.8353 7.14705V7.29411C13.8353 7.41176 13.7177 7.5294 13.6 7.5294C13.4824 7.5294 13.3647 7.44117 13.3647 7.29411C13.3647 7.29411 13.3353 6.29411 10.1 6.20587C6.8353 6.29411 6.8353 7.29411 6.8353 7.29411C6.8353 7.41176 6.74707 7.5294 6.60001 7.5294C6.48236 7.5294 6.36472 7.44117 6.36472 7.29411V7.14705C6.68824 0.941167 9.65883 0.588226 10.0706 0.588226H10.1294C10.5412 0.588226 13.5118 0.941167 13.8353 7.14705Z" fill="#57B3FE"/>
<path d="M4.10001 5.26469C4.15883 4.88234 4.30589 4.5294 4.48236 4.20587C4.65883 3.88234 4.89412 3.55881 5.21765 3.32352C5.07059 3.67646 4.89412 3.99999 4.71765 4.32352C4.54118 4.64705 4.3353 4.97058 4.10001 5.26469Z" fill="#FAFAFA"/>
<path d="M13.0118 5.26469C12.7765 4.79411 12.6294 4.32352 12.4235 3.85293C12.4235 3.82352 11.8353 2.35293 11.8647 2.44116C12.2177 2.82352 12.4824 3.29411 12.6588 3.76469C12.8647 4.23528 13.0118 4.79411 13.0118 5.26469Z" fill="#FAFAFA"/>
<path d="M5.98236 10.9412L7.04119 12.647V12.6765L6.74707 12.8529L5.74707 11.2059C5.80589 11.1176 5.89413 11.0294 5.98236 10.9412Z" fill="#211A67"/>
<path d="M7.8059 9.91174L8.83531 12.5588V12.5882C8.8059 12.5882 8.48237 12.7353 8.51178 12.7059C8.51178 12.7059 8.51178 12.7059 8.48237 12.7059L7.45296 10.0588C7.5706 9.99998 7.68825 9.94115 7.8059 9.91174Z" fill="#211A67"/>
<path d="M9.77648 9.67645H10.1294C10.1294 14.147 10.1588 14.0294 10.1 14.0294C9.80589 14.0294 9.74707 14.0588 9.74707 14.0294V9.67645H9.77648Z" fill="#211A67"/>
<path d="M12.3353 10.0882C12.453 10.147 12.5706 10.1765 12.6588 10.2353L11.7177 12.6765C11.7177 12.6765 11.7177 12.6765 11.6882 12.6765L11.3647 12.5588C11.3647 12.5588 11.3647 12.5588 11.3647 12.5294L12.3353 10.0882Z" fill="#211A67"/>
<path d="M14.2765 11.5588L13.4824 12.8529C13.4824 12.8824 13.4824 12.8529 13.4529 12.8529L13.1588 12.6765V12.6471L14.0118 11.2647C14.1 11.3824 14.1882 11.4706 14.2765 11.5588Z" fill="#211A67"/>
<path d="M5.45295 17.2647C4.95295 16.5294 4.68825 15.6471 4.68825 14.6765C4.68825 12.0882 6.80589 9.97058 9.39413 9.97058H10.3059V19.3823C9.95295 19.3235 7.15884 19.8823 5.45295 17.2647Z" fill="#F9A83D"/>
<path d="M12.6883 18.7353C11.6588 19.3529 10.4824 19.5 9.51178 19.3235C6.01178 18.7647 4.36473 14.5882 6.60002 11.7647C7.45296 10.7059 8.74708 10.0294 10.2471 10H10.2765C15.0118 10 16.8353 16.2941 12.6883 18.7353Z" fill="#FFD06C"/>
<path d="M6.98236 14.7059C6.98236 16.5294 8.45295 18 10.2765 18C12.1 18 13.6 16.5294 13.6 14.7059C13.6 12.8823 12.1294 11.4117 10.2765 11.4117C8.45295 11.3823 6.98236 12.8823 6.98236 14.7059Z" fill="#F9A83D"/>
<path d="M11.7765 14.9412C11.6588 14.7059 11.453 14.5294 11.1882 14.4412C10.9824 14.3824 10.7765 14.3235 10.5706 14.2647C10.5412 14.2647 10.5118 14.2353 10.5118 14.2059C10.5118 14 10.5118 13.7647 10.5118 13.5588C10.5118 13.5294 10.5118 13.5294 10.5118 13.5C10.7471 13.5882 10.8647 13.7353 10.9235 13.9706C10.953 14.0294 11.0118 14.0882 11.0706 14.0882L11.7177 13.9706C11.8059 13.9706 11.8353 13.8824 11.8353 13.8235C11.6882 12.9706 10.6882 12.7647 10.5118 12.6765V12.3824C10.5118 12.2059 10.1882 12.2059 10.1882 12.3824V12.6765C9.48236 12.7353 8.89413 13.1176 8.80589 13.8235C8.68825 14.7353 9.42354 14.9412 10.1882 15.1176V15.9118C9.89413 15.8529 9.74707 15.6765 9.68825 15.4118C9.65883 15.3529 9.60001 15.2941 9.54119 15.3235L8.86472 15.4412C8.77648 15.4412 8.74707 15.5294 8.74707 15.6176C8.77648 15.7941 8.86472 15.9706 8.98236 16.1176C9.30589 16.5 9.71766 16.7059 10.2177 16.7647V17.0588C10.2177 17.2353 10.5412 17.2353 10.5412 17.0588V16.7647C11.7471 16.5588 12.1 15.5882 11.7765 14.9412ZM10.1588 14.1765C9.65884 14.1765 9.62942 13.5588 10.1588 13.4706V14.1765ZM10.8353 15.6765C10.7471 15.7941 10.6294 15.8235 10.4824 15.8529V15.1176C10.6 15.1471 10.7177 15.1471 10.8059 15.2353C10.9235 15.3529 10.953 15.5588 10.8353 15.6765Z" fill="#FFD06C"/>
<path d="M10.5118 18C10.4529 18 10.3647 18 10.2765 18C8.45295 18 6.98236 16.5294 6.98236 14.7059C6.98236 12.8823 8.45295 11.4117 10.2765 11.4117H10.5118C8.77648 11.5 7.42354 12.9412 7.42354 14.7059C7.42354 16.4412 8.77648 17.8823 10.5118 18Z" fill="#EA9734"/>
<g opacity="0.68">
<g opacity="0.4">
<path d="M12.7471 18.7059C11.8941 19.2059 10.9824 19.5 9.12943 19.3823L6.12943 11.2941C7.62942 9.85292 9.45295 9.99998 9.51178 9.99998L12.7471 18.7059Z" fill="#FAFAFA"/>
</g>
<g opacity="0.4">
<path d="M14.2765 17.2059C14.1 17.4706 13.8941 17.7353 13.6588 17.9706L10.6 9.99997C10.9236 10.0294 11.2765 10.0882 11.5706 10.1764L14.2765 17.2059Z" fill="#FAFAFA"/>
</g>
</g>
<path d="M14.0412 14.4118C13.8059 14.5588 13.6882 14.7059 13.6588 14.8529C13.6588 14.8824 13.6 14.8824 13.6 14.8529C13.5412 14.7059 13.4235 14.5294 13.1882 14.4118C13.1588 14.3824 13.1588 14.3529 13.1882 14.3529C13.4235 14.2059 13.5412 14.0588 13.5706 13.9118C13.5706 13.8824 13.6294 13.8824 13.6294 13.9118C13.6882 14.0588 13.8059 14.2353 14.0412 14.3529C14.0706 14.3824 14.0706 14.4118 14.0412 14.4118Z" fill="#FAFAFA"/>
<path d="M10.1588 4.20587C10.1588 14.3823 10.1882 14.0294 10.1294 14.0294C9.8353 14.0294 9.77647 14.0588 9.77647 14.0294V4.20587H9.80589H10.1588Z" fill="#423D9B"/>
<path d="M7.04119 12.6765L6.74707 12.8823L5.74707 11.2353L3.42354 7.44117V7.41176L3.71766 7.23529L5.98236 10.9412L7.04119 12.6765Z" fill="#423D9B"/>
<path d="M8.8353 12.5588C8.80589 12.5882 8.48236 12.7059 8.51177 12.7059C8.51177 12.7059 8.51177 12.7059 8.48236 12.7059L7.45295 10.0588L6.36472 7.26468L6.68825 7.14703H6.71766L7.80589 9.94115L8.8353 12.5588Z" fill="#423D9B"/>
<path d="M16.8059 7.41176L14.2765 11.5882L13.4824 12.8823C13.4824 12.9118 13.4824 12.8823 13.4529 12.8823L13.1588 12.7059V12.6765L14.0118 11.2941L16.4824 7.23529L16.8059 7.41176C16.8059 7.38235 16.8059 7.38235 16.8059 7.41176Z" fill="#423D9B"/>
<path d="M13.8353 7.23529L12.6588 10.2647L11.7177 12.7059C11.7177 12.7059 11.7177 12.7059 11.6882 12.7059L11.3647 12.5882C11.3647 12.5882 11.3647 12.5882 11.3647 12.5588L12.3353 10.0882L13.5118 7.08823H13.5412L13.8353 7.23529C13.8353 7.20587 13.8353 7.20587 13.8353 7.23529Z" fill="#423D9B"/>
<path d="M16.8353 7.32352C16.8353 7.44117 16.7471 7.5294 16.6294 7.5294C16.5118 7.5294 16.4235 7.44117 16.4235 7.32352C16.3941 7.29411 16.5706 6.20587 15.1294 6.20587C14.4235 6.20587 13.8353 6.61764 13.8353 7.14705V7.29411C13.8353 7.41176 13.7177 7.5294 13.6 7.5294C13.4824 7.5294 13.3647 7.44117 13.3647 7.29411C13.3647 7.29411 13.3353 6.29411 10.1 6.20587C6.8353 6.29411 6.8353 7.29411 6.8353 7.29411C6.8353 7.41176 6.74707 7.5294 6.60001 7.5294C6.48236 7.5294 6.36472 7.44117 6.36472 7.29411V7.14705C6.36472 5.91176 3.77648 5.91176 3.77648 7.14705V7.32352C3.77648 7.44117 3.68824 7.5294 3.5706 7.5294C3.45295 7.5294 3.36472 7.44117 3.36472 7.32352C3.36472 5.47058 4.0706 3.79411 5.24707 2.58823C6.42354 1.38234 8.0706 0.617638 10.0412 0.588226C10.0706 0.588226 10.1588 0.588226 10.1294 0.588226C12.1 0.617638 13.7471 1.38234 14.9235 2.58823C16.1294 3.82352 16.8059 5.47058 16.8353 7.32352Z" fill="#497BFE"/>
<path d="M13.8353 7.14705V7.29411C13.8353 7.41176 13.7177 7.5294 13.6 7.5294C13.4824 7.5294 13.3647 7.44117 13.3647 7.29411C13.3647 7.29411 13.3353 6.29411 10.1 6.20587C6.8353 6.29411 6.8353 7.29411 6.8353 7.29411C6.8353 7.41176 6.74707 7.5294 6.60001 7.5294C6.48236 7.5294 6.36472 7.44117 6.36472 7.29411V7.14705C6.68824 0.941167 9.65883 0.588226 10.0706 0.588226H10.1294C10.5412 0.588226 13.5118 0.941167 13.8353 7.14705Z" fill="#57B3FE"/>
<path d="M4.10001 5.26469C4.15883 4.88234 4.30589 4.5294 4.48236 4.20587C4.65883 3.88234 4.89412 3.55881 5.21765 3.32352C5.07059 3.67646 4.89412 3.99999 4.71765 4.32352C4.54118 4.64705 4.3353 4.97058 4.10001 5.26469Z" fill="#FAFAFA"/>
<path d="M13.0118 5.26469C12.7765 4.79411 12.6294 4.32352 12.4235 3.85293C12.4235 3.82352 11.8353 2.35293 11.8647 2.44116C12.2177 2.82352 12.4824 3.29411 12.6588 3.76469C12.8647 4.23528 13.0118 4.79411 13.0118 5.26469Z" fill="#FAFAFA"/>
<path d="M5.98236 10.9412L7.04119 12.647V12.6765L6.74707 12.8529L5.74707 11.2059C5.80589 11.1176 5.89413 11.0294 5.98236 10.9412Z" fill="#211A67"/>
<path d="M7.8059 9.91174L8.83531 12.5588V12.5882C8.8059 12.5882 8.48237 12.7353 8.51178 12.7059C8.51178 12.7059 8.51178 12.7059 8.48237 12.7059L7.45296 10.0588C7.5706 9.99998 7.68825 9.94115 7.8059 9.91174Z" fill="#211A67"/>
<path d="M9.77648 9.67645H10.1294C10.1294 14.147 10.1588 14.0294 10.1 14.0294C9.80589 14.0294 9.74707 14.0588 9.74707 14.0294V9.67645H9.77648Z" fill="#211A67"/>
<path d="M12.3353 10.0882C12.453 10.147 12.5706 10.1765 12.6588 10.2353L11.7177 12.6765C11.7177 12.6765 11.7177 12.6765 11.6882 12.6765L11.3647 12.5588C11.3647 12.5588 11.3647 12.5588 11.3647 12.5294L12.3353 10.0882Z" fill="#211A67"/>
<path d="M14.2765 11.5588L13.4824 12.8529C13.4824 12.8824 13.4824 12.8529 13.4529 12.8529L13.1588 12.6765V12.6471L14.0118 11.2647C14.1 11.3824 14.1882 11.4706 14.2765 11.5588Z" fill="#211A67"/>
<path d="M5.45295 17.2647C4.95295 16.5294 4.68825 15.6471 4.68825 14.6765C4.68825 12.0882 6.80589 9.97058 9.39413 9.97058H10.3059V19.3823C9.95295 19.3235 7.15884 19.8823 5.45295 17.2647Z" fill="#F9A83D"/>
<path d="M12.6883 18.7353C11.6588 19.3529 10.4824 19.5 9.51178 19.3235C6.01178 18.7647 4.36473 14.5882 6.60002 11.7647C7.45296 10.7059 8.74708 10.0294 10.2471 10H10.2765C15.0118 10 16.8353 16.2941 12.6883 18.7353Z" fill="#FFD06C"/>
<path d="M6.98236 14.7059C6.98236 16.5294 8.45295 18 10.2765 18C12.1 18 13.6 16.5294 13.6 14.7059C13.6 12.8823 12.1294 11.4117 10.2765 11.4117C8.45295 11.3823 6.98236 12.8823 6.98236 14.7059Z" fill="#F9A83D"/>
<path d="M11.5706 14.9117C11.453 14.7647 11.3059 14.647 11.1294 14.5882C10.9824 14.5294 10.7765 14.4706 10.5706 14.4117V13.3235C11.0706 13.3529 11.2177 13.4706 11.3353 13.4706C11.5118 13.4706 11.6294 13.3235 11.6294 13.1765C11.6294 13.0294 11.5706 12.9412 11.4235 12.9117C11.1882 12.8235 10.8941 12.7647 10.5706 12.7353V12.4412C10.5706 12.147 10.1 12.1176 10.1 12.4412V12.7353C9.42354 12.8235 8.95295 13.2353 8.95295 13.8529C8.95295 14.5 9.48236 14.7647 10.1 14.9117V15.9706C9.8353 15.9412 9.5706 15.8823 9.3353 15.7647C9.12942 15.6765 8.92354 15.8235 8.92354 16.0294C8.92354 16.147 9.01177 16.2647 9.10001 16.3235C9.39413 16.4412 9.74707 16.5294 10.1 16.5588V16.8529C10.1 17.1765 10.5706 17.147 10.5706 16.8529V16.5588C10.9824 16.5294 11.3941 16.3529 11.6 16.0294C11.8353 15.6765 11.8059 15.1765 11.5706 14.9117ZM10.5706 15.0588C10.8353 15.147 11.1588 15.2353 11.1588 15.4706C11.1588 15.7647 10.9824 15.9412 10.5706 15.9706V15.0588ZM9.5706 13.8235C9.5706 13.5294 9.8353 13.3823 10.1 13.3529V14.2941C9.8353 14.2059 9.5706 14.1176 9.5706 13.8235Z" fill="#FFD06C"/>
<path d="M10.5118 18C10.4529 18 10.3647 18 10.2765 18C8.45295 18 6.98236 16.5294 6.98236 14.7059C6.98236 12.8823 8.45295 11.4117 10.2765 11.4117H10.5118C8.77648 11.5 7.42354 12.9412 7.42354 14.7059C7.42354 16.4412 8.77648 17.8823 10.5118 18Z" fill="#EA9734"/>
<g opacity="0.68">
<g opacity="0.4">
<path d="M12.7471 18.7059C11.8941 19.2059 10.9824 19.5 9.12943 19.3823L6.12943 11.2941C7.62942 9.85292 9.45295 9.99998 9.51178 9.99998L12.7471 18.7059Z" fill="#FAFAFA"/>
</g>
<g opacity="0.4">
<path d="M14.2765 17.2059C14.1 17.4706 13.8941 17.7353 13.6588 17.9706L10.6 9.99997C10.9236 10.0294 11.2765 10.0882 11.5706 10.1764L14.2765 17.2059Z" fill="#FAFAFA"/>
</g>
</g>
<path d="M14.0412 14.4118C13.8059 14.5588 13.6882 14.7059 13.6588 14.8529C13.6588 14.8824 13.6 14.8824 13.6 14.8529C13.5412 14.7059 13.4235 14.5294 13.1882 14.4118C13.1588 14.3824 13.1588 14.3529 13.1882 14.3529C13.4235 14.2059 13.5412 14.0588 13.5706 13.9118C13.5706 13.8824 13.6294 13.8824 13.6294 13.9118C13.6882 14.0588 13.8059 14.2353 14.0412 14.3529C14.0706 14.3824 14.0706 14.4118 14.0412 14.4118Z" fill="#FAFAFA"/>
</svg>
