<svg width="21" height="20" viewBox="0 0 21 20" fill="none" xmlns="http://www.w3.org/2000/svg">
<path d="M19.7566 13.0243C19.7566 14.3857 18.6532 15.4892 17.2918 15.4892H7.49064C5.96192 15.4892 4.72259 14.2498 4.72259 12.7211C4.72259 11.3947 5.65547 10.2863 6.90068 10.0163C7.03909 8.7595 8.37379 8.00749 9.51992 8.53108C10.2534 7.12029 11.7283 6.15652 13.4285 6.15652C15.8601 6.15652 17.8314 8.12787 17.8314 10.5595C17.8314 10.5792 17.8314 10.5992 17.8312 10.6189C18.9331 10.8647 19.7566 11.8482 19.7566 13.0243Z" fill="#DEDDFF"/>
<path d="M16.9441 7.91305C14.7961 6.3021 11.6682 6.98308 10.4036 9.41358C9.23636 8.88639 7.92238 9.65658 7.78434 10.8988C6.53962 11.1699 5.60417 12.2772 5.60417 13.6059C5.60417 14.1404 5.7569 14.6406 6.02418 15.0644C5.24144 14.5795 4.72218 13.7128 4.72218 12.7201C4.72218 11.3952 5.6538 10.2879 6.90235 10.0169C7.03521 8.76999 8.35677 8.00548 9.52159 8.53159C11.0124 5.65863 14.9933 5.32144 16.9441 7.91305Z" fill="#C6C6F7"/>
<path d="M15.9625 13.3026C15.9625 13.515 15.7904 13.6872 15.578 13.6872H8.90082C8.68843 13.6872 8.51626 13.515 8.51626 13.3026C8.51626 13.0902 8.68843 12.9181 8.90082 12.9181H15.578C15.7904 12.9181 15.9625 13.0902 15.9625 13.3026Z" fill="#C6C6F7"/>
<path d="M14.6695 13.26C14.5482 13.1349 14.4161 13.0212 14.2772 12.9163H10.1974C9.371 13.5364 8.83162 14.5254 8.83162 15.6386C8.83162 17.4395 10.2315 18.8797 11.9192 19.0292C13.0838 19.127 14.1932 18.6589 14.9153 17.7484C15.4721 17.0385 15.748 16.1263 15.6129 15.1468C15.51 14.4207 15.1669 13.7631 14.6695 13.26Z" fill="#FCB73E"/>
<path d="M9.73503 15.6386C9.73503 14.5254 10.2744 13.5364 11.1008 12.9163H10.1974C9.371 13.5364 8.83162 14.5254 8.83162 15.6386C8.83162 17.4395 10.2315 18.8797 11.9192 19.0292C12.1822 19.052 12.4395 19.0463 12.6911 19.012C11.0601 18.8058 9.73503 17.3885 9.73503 15.6386Z" fill="#FD982E"/>
<g opacity="0.2">
<path d="M14.9153 17.7484C14.4568 17.2375 13.6784 16.9341 13.2057 16.4047C12.9256 16.0845 12.7369 15.65 12.8283 15.2326C12.9027 14.8666 13.1885 14.575 13.4916 14.3463C13.9378 14.0117 14.4158 13.7672 14.6695 13.2599C15.1669 13.7631 15.51 14.4207 15.6129 15.1468C15.7476 16.123 15.474 17.0361 14.9153 17.7484Z" fill="#FAFAFA"/>
</g>
<path d="M13.4243 14.7251C13.4243 14.3063 13.0838 13.9658 12.6651 13.9658H12.3705V13.7645C12.3705 13.6574 12.2835 13.5704 12.1764 13.5704C12.0693 13.5704 11.9823 13.6574 11.9823 13.7645V13.9658H11.1085C11.0014 13.9658 10.9144 14.0528 10.9144 14.1599C10.9144 14.267 11.0014 14.354 11.1085 14.354H11.3096V16.7661H11.1085C11.0014 16.7661 10.9144 16.8531 10.9144 16.9602C10.9144 17.0673 11.0014 17.1543 11.1085 17.1543H11.9823V17.3554C11.9823 17.4625 12.0693 17.5495 12.1764 17.5495C12.2835 17.5495 12.3705 17.4625 12.3705 17.3554V17.1543H12.6651C13.0838 17.1543 13.4243 16.8138 13.4243 16.395V16.1253C13.4243 15.9103 13.3307 15.7054 13.1666 15.56C13.3307 15.4147 13.4243 15.2099 13.4243 14.9946V14.7251ZM13.0362 16.1253V16.395C13.0362 16.5995 12.8696 16.7661 12.6651 16.7661H11.6978V15.754H12.6651C12.8696 15.754 13.0362 15.9206 13.0362 16.1253ZM12.6651 15.3659H11.6978V14.354H12.6651C12.8696 14.354 13.0362 14.5205 13.0362 14.7251V14.9946C13.0362 15.1993 12.8696 15.3659 12.6651 15.3659Z" fill="#FAFAFA"/>
<path d="M4.15982 1.21695C4.15961 1.22021 4.15961 1.22021 4.15961 1.22021C4.1633 1.31519 4.21857 1.39551 4.31083 1.43412C5.49668 1.93518 6.62156 2.6988 7.56567 3.57916C7.6011 3.61248 7.63501 3.64406 7.67043 3.67738C7.95386 3.94389 8.228 4.22778 8.49153 4.52407C8.69093 4.75088 8.88341 4.98378 9.0644 5.21758C9.09463 5.25547 9.12161 5.29313 9.15012 5.33254C10.037 6.502 10.6906 7.76916 11.0595 9.04414C11.0929 9.15902 11.1896 9.23057 11.3058 9.22661C11.4481 9.22432 11.5547 9.0907 11.5492 8.94823C11.5026 7.37049 11.0621 5.80122 10.1763 4.46416C10.151 4.42498 10.1243 4.38405 10.0973 4.34637C9.92101 4.09002 9.72937 3.84409 9.52215 3.61188C9.26946 3.32446 8.99102 3.05663 8.69333 2.8088C8.6577 2.77873 8.62053 2.74694 8.58143 2.71992C7.38603 1.7546 5.90695 1.17267 4.46869 0.96075C4.31031 0.934233 4.15381 1.05648 4.15982 1.21695Z" fill="#5B5E8B"/>
<path d="M7.56567 3.57915C7.6011 3.61247 7.63501 3.64405 7.67043 3.67737C7.95386 3.94388 8.228 4.22777 8.49153 4.52406C8.69093 4.75087 8.88341 4.98377 9.0644 5.21757C9.09463 5.25546 9.12161 5.29312 9.15012 5.33253L10.1763 4.46415C10.151 4.42497 10.1243 4.38404 10.0973 4.34636C9.92101 4.09001 9.72937 3.84408 9.52215 3.61187C9.26946 3.32445 8.99102 3.05662 8.69333 2.80879C8.6577 2.77872 8.62053 2.74693 8.58143 2.71991L7.56567 3.57915Z" fill="#312E4B"/>
<path d="M1.78279 10.0498C1.98237 10.2745 2.32499 10.2985 2.55395 10.1038C2.59192 10.0715 9.81767 3.94408 10.252 3.57653C10.4149 3.43593 10.4184 3.18605 10.2848 3.03373L10.0625 2.78305C9.97387 2.68281 9.84837 2.63998 9.72726 2.6566C9.65317 2.66449 9.57861 2.6963 9.5181 2.75009C9.47946 2.78285 1.80003 9.29427 1.8379 9.26205C1.60199 9.46276 1.57713 9.81816 1.78279 10.0498Z" fill="#EF9851"/>
<path d="M1.67664 9.87024C1.70021 9.93547 1.73549 9.99654 1.78268 10.0502C1.98229 10.2738 2.32543 10.2975 2.55357 10.1031C3.34094 9.4357 -0.298305 12.5203 10.2529 3.5772C10.417 3.43294 10.4168 3.18397 10.2846 3.03365L10.0622 2.78412C10.0546 2.77546 10.0469 2.76681 10.0376 2.75967C10.065 2.79084 10.0837 2.82961 10.0942 2.86949C10.1417 3.00609 10.104 3.17096 9.98654 3.27421C-0.56708 12.2234 3.07846 9.13211 2.28872 9.8018C2.11253 9.95054 1.86946 9.97085 1.67664 9.87024Z" fill="#CA7147"/>
<path d="M9.31695 2.91809L7.76481 4.23491C7.92694 4.40063 8.08759 4.56977 8.24189 4.74593C8.3323 4.84838 8.42105 4.95091 8.50821 5.0552L10.062 3.73829C9.9691 3.61924 9.87301 3.50371 9.77201 3.39008C9.62671 3.22685 9.475 3.06896 9.31695 2.91809Z" fill="#FFBC50"/>
<path d="M9.09354 2.88882L7.78006 4.00226C7.64054 4.12053 7.62671 4.33085 7.74955 4.46637L8.28297 5.05487C8.40014 5.18413 8.59869 5.19723 8.73182 5.08447L10.0463 3.97112C10.186 3.8528 10.1998 3.64224 10.0768 3.50671L9.5423 2.91812C9.42505 2.78901 9.22657 2.77605 9.09354 2.88882Z" fill="#5B5E8B"/>
<path d="M7.72033 4.42548C7.73849 4.46378 7.81928 4.54213 8.28263 5.05459C8.40004 5.18467 8.59851 5.19742 8.73161 5.08348L10.0463 3.97067C10.1861 3.85389 10.1997 3.6424 10.0777 3.50714L9.85183 3.26065C9.93629 3.39514 9.91177 3.57324 9.78752 3.67633L8.47285 4.78914C8.33975 4.90309 8.14127 4.89033 8.02387 4.76026L7.72033 4.42548Z" fill="#312E4B"/>
<path d="M14.0594 3.03464L12.7405 4.35346C12.6603 4.4337 12.5327 4.4337 12.4525 4.35345C12.3722 4.27321 12.3722 4.14565 12.4525 4.06541L13.7713 2.74658C13.8516 2.66634 13.9791 2.66634 14.0594 2.74659C14.1396 2.82683 14.1396 2.95439 14.0594 3.03464Z" fill="#FCB73E"/>
<path d="M11.9567 1.49717L11.9567 3.36224C11.9567 3.47572 11.8665 3.56592 11.7531 3.56592C11.6396 3.56592 11.5494 3.47572 11.5494 3.36224L11.5494 1.49717C11.5494 1.38369 11.6396 1.29349 11.753 1.29349C11.8665 1.29349 11.9567 1.38369 11.9567 1.49717Z" fill="#FCB73E"/>
<path d="M15.3081 5.25659L13.4409 5.25665C13.3273 5.25665 13.2371 5.16645 13.2372 5.05297C13.2373 4.93948 13.3277 4.84928 13.4414 4.84927L15.3086 4.84921C15.4222 4.84921 15.5124 4.93941 15.5122 5.05289C15.5121 5.16638 15.4217 5.25658 15.3081 5.25659Z" fill="#FCB73E"/>
</svg>
