<svg width="21" height="20" viewBox="0 0 21 20" fill="none" xmlns="http://www.w3.org/2000/svg">
<g clip-path="url(#clip0_111_8891)">
<path d="M2.94907 19.375C1.71088 18.0975 0.990493 16.4061 0.927253 14.6282C0.864013 12.8502 1.46242 11.112 2.60671 9.74975C3.75101 8.3875 5.35986 7.49805 7.12205 7.25345C8.88424 7.00886 10.6745 7.42651 12.1466 8.4256L13.6881 9.83904C14.0416 10.2728 14.3433 10.7463 14.5869 11.25L14.05 18.4265C13.8193 18.764 13.5604 19.0813 13.2759 19.375H2.94907Z" fill="#2D9739"/>
<path d="M14.5869 11.25C14.3433 10.7463 14.0416 10.2728 13.6881 9.83906L12.1466 8.42531L12.1194 8.40687C11.2111 7.80124 10.1439 7.47806 9.0522 7.47806C7.96052 7.47806 6.89328 7.80124 5.98501 8.40687C5.11145 8.99276 4.37712 9.76324 3.83387 10.6639C3.29061 11.5646 2.95166 12.5736 2.84095 13.6196C2.73023 14.6656 2.85045 15.7231 3.19311 16.7176C3.53577 17.7121 4.09252 18.6192 4.82407 19.375H13.2759C13.5604 19.0814 13.8193 18.7641 14.05 18.4266L14.5869 11.25Z" fill="#44BC59"/>
<path d="M14.1978 10.5503C14.0425 10.3031 13.8723 10.0656 13.6881 9.83904L12.9984 9.20654C12.6665 9.43325 12.3065 9.61592 11.9275 9.74998L10.5613 10.2156C10.4844 10.2425 10.4179 10.2927 10.371 10.3593C10.3242 10.4259 10.2994 10.5054 10.3 10.5869V12.7337C10.2986 12.8023 10.3157 12.8699 10.3494 12.9295C10.3832 12.9892 10.4323 13.0387 10.4918 13.0728C10.5512 13.1069 10.6188 13.1243 10.6873 13.1234C10.7558 13.1224 10.8228 13.103 10.8813 13.0672L12.2541 12.209C12.9774 11.7511 13.6318 11.1926 14.1978 10.5503Z" fill="#2D9739"/>
<path d="M9.67501 5.9375H6.55001C6.20483 5.9375 5.92501 6.21732 5.92501 6.5625C5.92501 6.90768 6.20483 7.1875 6.55001 7.1875H9.67501C10.0202 7.1875 10.3 6.90768 10.3 6.5625C10.3 6.21732 10.0202 5.9375 9.67501 5.9375Z" fill="#FFC239"/>
<path d="M8.11251 17.1875C10.1836 17.1875 11.8625 15.5086 11.8625 13.4375C11.8625 11.3664 10.1836 9.6875 8.11251 9.6875C6.04144 9.6875 4.36251 11.3664 4.36251 13.4375C4.36251 15.5086 6.04144 17.1875 8.11251 17.1875Z" fill="#ABE4A3"/>
<path d="M8.11251 9.6875C7.38553 9.68693 6.67426 9.89896 6.06626 10.2975C5.59478 11.0178 5.38567 11.8784 5.47409 12.7347C5.56252 13.591 5.94308 14.3907 6.5518 14.9995C7.16051 15.6082 7.96026 15.9887 8.81656 16.0772C9.67286 16.1656 10.5335 15.9565 11.2538 15.485C11.6235 14.9194 11.8334 14.2643 11.8613 13.5891C11.8891 12.9139 11.7338 12.2437 11.4119 11.6496C11.09 11.0554 10.6134 10.5594 10.0325 10.214C9.4517 9.86855 8.78828 9.68665 8.11251 9.6875Z" fill="#CDF8C8"/>
<path d="M6.55001 5.9375L5.68126 4.375C5.46719 3.85563 5.75907 3.125 6.23751 3.125H9.98751C10.4659 3.125 10.7578 3.85563 10.5438 4.375L9.67501 5.9375H6.55001Z" fill="#2D9739"/>
<path d="M8.11251 13.125C7.98889 13.125 7.86806 13.0883 7.76528 13.0197C7.66249 12.951 7.58239 12.8534 7.53508 12.7392C7.48778 12.625 7.4754 12.4993 7.49952 12.3781C7.52363 12.2568 7.58316 12.1455 7.67057 12.0581C7.75797 11.9706 7.86934 11.9111 7.99058 11.887C8.11181 11.8629 8.23748 11.8753 8.35168 11.9226C8.46589 11.9699 8.5635 12.05 8.63218 12.1528C8.70085 12.2555 8.73751 12.3764 8.73751 12.5H9.36251C9.36147 12.2237 9.26891 11.9555 9.09929 11.7374C8.92967 11.5192 8.69255 11.3635 8.42501 11.2944V10.9375H7.80001V11.2944C7.50575 11.3701 7.24925 11.5506 7.07865 11.8021C6.90804 12.0535 6.83508 12.3586 6.87343 12.66C6.91179 12.9614 7.05884 13.2385 7.28698 13.4392C7.51512 13.6398 7.80866 13.7504 8.11251 13.75C8.23612 13.75 8.35696 13.7867 8.45974 13.8553C8.56252 13.924 8.64263 14.0216 8.68993 14.1358C8.73724 14.25 8.74961 14.3757 8.7255 14.4969C8.70138 14.6182 8.64186 14.7295 8.55445 14.8169C8.46704 14.9044 8.35568 14.9639 8.23444 14.988C8.1132 15.0121 7.98753 14.9997 7.87333 14.9524C7.75913 14.9051 7.66151 14.825 7.59284 14.7222C7.52416 14.6195 7.48751 14.4986 7.48751 14.375H6.86251C6.86354 14.6513 6.95611 14.9195 7.12573 15.1376C7.29535 15.3558 7.53246 15.5115 7.80001 15.5806V15.9375H8.42501V15.5806C8.71927 15.5049 8.97577 15.3244 9.14637 15.0729C9.31697 14.8215 9.38994 14.5164 9.35158 14.215C9.31322 13.9136 9.16617 13.6365 8.93804 13.4358C8.7099 13.2352 8.41636 13.1246 8.11251 13.125Z" fill="#2D9739"/>
<path d="M19.675 19.0625H0.925007V19.6875H19.675V19.0625Z" fill="#FFC239"/>
<path d="M13.1125 13.4375H11.8625V18.4375H13.1125V13.4375Z" fill="#FFC239"/>
<path d="M15.3 11.25H14.05V18.4375H15.3V11.25Z" fill="#FFC239"/>
<path d="M17.4875 9.0625H16.2375V18.4375H17.4875V9.0625Z" fill="#FFC239"/>
<path d="M11.7463 12.5262C11.5351 11.684 11.0381 10.9413 10.34 10.425C10.3155 10.4755 10.3021 10.5307 10.3009 10.5869V12.7337C10.2995 12.8023 10.3166 12.8699 10.3504 12.9295C10.3841 12.9892 10.4333 13.0387 10.4927 13.0728C10.5522 13.1069 10.6197 13.1243 10.6882 13.1234C10.7568 13.1224 10.8238 13.103 10.8822 13.0672L11.7463 12.5262Z" fill="#ABE4A3"/>
<path d="M19.675 7.1875H18.425V18.4375H19.675V7.1875Z" fill="#FFC239"/>
<path d="M10.925 14.6875H9.67501V18.4375H10.925V14.6875Z" fill="#FFC239"/>
<path d="M6.55001 5.9375C6.44315 5.93814 6.33829 5.96646 6.24563 6.01969C6.2655 6.16944 6.33892 6.30692 6.45233 6.40672C6.56574 6.50651 6.71145 6.56185 6.86251 6.5625H9.98751C10.0944 6.56186 10.1992 6.53354 10.2919 6.48031C10.272 6.33056 10.1986 6.19308 10.0852 6.09328C9.97178 5.99349 9.82607 5.93815 9.67501 5.9375H6.55001Z" fill="#FFD55D"/>
<path d="M10.5438 4.37497C10.7578 3.8556 10.4659 3.12497 9.98751 3.12497H6.74907C6.67394 3.12344 6.59956 3.14012 6.53228 3.17358C6.465 3.20703 6.40681 3.25627 6.36269 3.3171C6.31857 3.37792 6.28982 3.44852 6.27891 3.52287C6.26799 3.59721 6.27523 3.6731 6.30001 3.74404L6.30251 3.74997L6.76532 4.58247C6.88848 4.80393 7.06864 4.9884 7.28711 5.11676C7.50559 5.24512 7.75443 5.31269 8.00782 5.31247H10.0225L10.5438 4.37497Z" fill="#44BC59"/>
<path d="M10.3 14.6875V17.5C10.3 17.6658 10.3659 17.8247 10.4831 17.9419C10.6003 18.0592 10.7593 18.125 10.925 18.125V14.6875H10.3Z" fill="#FFD55D"/>
<path d="M12.4875 13.4375V17.5C12.4875 17.6658 12.5534 17.8247 12.6706 17.9419C12.7878 18.0592 12.9468 18.125 13.1125 18.125V13.4375H12.4875Z" fill="#FFD55D"/>
<path d="M14.675 11.25V17.5C14.675 17.6658 14.7409 17.8247 14.8581 17.9419C14.9753 18.0592 15.1343 18.125 15.3 18.125V11.25H14.675Z" fill="#FFD55D"/>
<path d="M16.8625 9.0625V17.5C16.8625 17.6658 16.9284 17.8247 17.0456 17.9419C17.1628 18.0592 17.3218 18.125 17.4875 18.125V9.0625H16.8625Z" fill="#FFD55D"/>
<path d="M19.05 7.1875V17.5C19.05 17.6658 19.1159 17.8247 19.2331 17.9419C19.3503 18.0592 19.5093 18.125 19.675 18.125V7.1875H19.05Z" fill="#FFD55D"/>
<path d="M18.8953 4.45905C18.9106 4.51262 18.9113 4.56931 18.8973 4.62324C18.8833 4.67716 18.8552 4.72637 18.8158 4.76577C18.7764 4.80516 18.7272 4.83331 18.6733 4.84729C18.6193 4.86127 18.5626 4.86059 18.5091 4.8453L16.8625 4.37499C16.075 6.9928 14.5394 9.53811 12.2541 10.9662L10.8813 11.8244C10.8228 11.8602 10.7558 11.8796 10.6873 11.8806C10.6188 11.8815 10.5512 11.8641 10.4918 11.83C10.4323 11.7959 10.3832 11.7464 10.3494 11.6867C10.3157 11.6271 10.2986 11.5594 10.3 11.4909V9.34374C10.2995 9.26244 10.3244 9.18301 10.3712 9.11656C10.4181 9.05011 10.4845 8.99995 10.5613 8.97311L11.9275 8.50749C13.7556 7.88468 15.5472 5.99499 15.925 4.06249L14.5316 3.36593C14.4826 3.34145 14.4409 3.30452 14.4107 3.25885C14.3804 3.21318 14.3628 3.16037 14.3594 3.10572C14.356 3.05106 14.367 2.99647 14.3914 2.94742C14.4157 2.89837 14.4525 2.85658 14.4981 2.82624L17.4434 0.86249C17.4844 0.835213 17.5312 0.817981 17.58 0.812197C17.6288 0.806412 17.6784 0.812238 17.7245 0.8292C17.7707 0.846162 17.8122 0.873782 17.8457 0.909812C17.8792 0.945843 17.9037 0.989267 17.9172 1.03655L18.8953 4.45905Z" fill="#F3A606"/>
<path d="M10.8813 11.0144L12.2541 10.1562C14.3769 8.82968 15.8528 6.53874 16.6834 4.12124C16.736 3.97138 16.8439 3.84735 16.9851 3.77469C17.1263 3.70203 17.29 3.68625 17.4425 3.73061L18.5091 4.0353C18.5517 4.04764 18.5966 4.05057 18.6405 4.04388C18.6844 4.03719 18.7264 4.02104 18.7634 3.99655L17.9172 1.03655C17.9037 0.989267 17.8792 0.945843 17.8457 0.909812C17.8122 0.873782 17.7707 0.846162 17.7245 0.8292C17.6784 0.812238 17.6288 0.806412 17.58 0.812197C17.5312 0.817981 17.4844 0.835213 17.4434 0.86249L14.4981 2.82624C14.4525 2.85658 14.4157 2.89837 14.3914 2.94742C14.367 2.99647 14.356 3.05106 14.3594 3.10572C14.3628 3.16037 14.3804 3.21318 14.4107 3.25885C14.4409 3.30452 14.4826 3.34145 14.5316 3.36593L15.925 4.06249C15.5472 5.99499 13.7556 7.88468 11.9275 8.5078L10.5613 8.97343C10.4846 9.00025 10.4182 9.05035 10.3713 9.11674C10.3245 9.18313 10.2996 9.26249 10.3 9.34374V10.6812C10.2987 10.7497 10.3158 10.8173 10.3495 10.8769C10.3833 10.9365 10.4325 10.986 10.4919 11.02C10.5514 11.0541 10.6189 11.0715 10.6874 11.0705C10.7559 11.0696 10.8228 11.0501 10.8813 11.0144Z" fill="#FFC239"/>
</g>
<defs>
<clipPath id="clip0_111_8891">
<rect width="20" height="20" fill="white" transform="translate(0.300007)"/>
</clipPath>
</defs>
</svg>
