<svg width="21" height="20" viewBox="0 0 21 20" fill="none" xmlns="http://www.w3.org/2000/svg">
<path fill-rule="evenodd" clip-rule="evenodd" d="M16.1344 19.2188C13.5172 19.2188 11.3687 17.0703 11.3687 14.4531C11.3687 11.8359 13.5172 9.6875 16.1344 9.6875C18.7516 9.6875 20.9 11.8359 20.9 14.4531C20.9 17.0703 18.7516 19.2188 16.1344 19.2188Z" fill="#FFA721"/>
<path fill-rule="evenodd" clip-rule="evenodd" d="M16.1344 10.4688C13.9469 10.4688 12.15 12.2656 12.15 14.4531C12.15 16.6797 13.9469 18.4766 16.1344 18.4766C18.3219 18.4766 20.1187 16.6797 20.1187 14.4531C20.1187 12.2656 18.3219 10.4688 16.1344 10.4688Z" fill="#FF871B"/>
<path fill-rule="evenodd" clip-rule="evenodd" d="M11.2516 10.3125C8.59531 10.3125 6.48593 8.16406 6.48593 5.54688C6.48593 2.92969 8.59531 0.78125 11.2516 0.78125C13.8687 0.78125 16.0172 2.92969 16.0172 5.54688C16.0172 8.16406 13.8687 10.3125 11.2516 10.3125Z" fill="#FFA721"/>
<path fill-rule="evenodd" clip-rule="evenodd" d="M11.2516 1.52344C9.02499 1.52344 7.22812 3.32031 7.22812 5.54688C7.22812 7.73438 9.02499 9.53125 11.2516 9.53125C13.4391 9.53125 15.2359 7.73438 15.2359 5.54688C15.2359 3.32031 13.4391 1.52344 11.2516 1.52344Z" fill="#FF871B"/>
<path fill-rule="evenodd" clip-rule="evenodd" d="M11.9547 7.77344C10.7437 7.77344 9.72812 6.75781 9.72812 5.54688C9.72812 4.29688 10.7437 3.32031 11.9547 3.32031C12.2672 3.32031 12.5797 3.35938 12.8531 3.47656C12.9703 3.55469 13.0484 3.67188 12.9703 3.78906C12.9312 3.90625 12.775 3.98438 12.6578 3.94531C12.4625 3.82812 12.2281 3.78906 11.9547 3.78906C11.0172 3.78906 10.1969 4.57031 10.1969 5.54688C10.1969 6.52344 11.0172 7.30469 11.9547 7.30469C12.2281 7.30469 12.4625 7.26562 12.6969 7.14844C12.8141 7.10938 12.9703 7.14844 13.0094 7.26562C13.0484 7.38281 13.0094 7.5 12.8922 7.57812C12.6187 7.69531 12.3062 7.77344 11.9547 7.77344Z" fill="#FAFAFA"/>
<path fill-rule="evenodd" clip-rule="evenodd" d="M12.3453 5.50781H9.68906C9.53281 5.50781 9.45468 5.39062 9.45468 5.27344C9.45468 5.11719 9.53281 5.03906 9.68906 5.03906H12.3453C12.4625 5.03906 12.5797 5.11719 12.5797 5.27344C12.5797 5.39062 12.4625 5.50781 12.3453 5.50781Z" fill="#FAFAFA"/>
<path fill-rule="evenodd" clip-rule="evenodd" d="M11.9156 6.44531H9.68906C9.53281 6.44531 9.45468 6.36719 9.45468 6.21094C9.45468 6.09375 9.53281 5.97656 9.68906 5.97656H11.9156C12.0719 5.97656 12.15 6.09375 12.15 6.21094C12.15 6.36719 12.0719 6.44531 11.9156 6.44531Z" fill="#FAFAFA"/>
<path fill-rule="evenodd" clip-rule="evenodd" d="M16.1344 16.875C15.3922 16.875 14.8062 16.2891 14.8062 15.5469C14.8062 15.4297 14.9234 15.3125 15.0406 15.3125C15.1578 15.3125 15.275 15.4297 15.275 15.5469C15.275 16.0156 15.6656 16.4062 16.1344 16.4062C16.6031 16.4062 16.9937 16.0156 16.9937 15.5469C16.9937 15.0781 16.6031 14.6875 16.1344 14.6875C15.3922 14.6875 14.8062 14.1016 14.8062 13.3594C14.8062 12.6562 15.3922 12.0312 16.1344 12.0312C16.8766 12.0312 17.4625 12.6562 17.4625 13.3594C17.4625 13.5156 17.3453 13.5938 17.2281 13.5938C17.1109 13.5938 16.9937 13.5156 16.9937 13.3594C16.9937 12.8906 16.6031 12.5 16.1344 12.5C15.6656 12.5 15.275 12.8906 15.275 13.3594C15.275 13.8281 15.6656 14.2188 16.1344 14.2188C16.8766 14.2188 17.4625 14.8047 17.4625 15.5469C17.4625 16.2891 16.8766 16.875 16.1344 16.875Z" fill="#FAFAFA"/>
<path fill-rule="evenodd" clip-rule="evenodd" d="M16.1344 17.3438C16.0172 17.3438 15.9 17.2656 15.9 17.1094V11.7969C15.9 11.6797 16.0172 11.5625 16.1344 11.5625C16.2516 11.5625 16.3687 11.6797 16.3687 11.7969V17.1094C16.3687 17.2656 16.2516 17.3438 16.1344 17.3438Z" fill="#FAFAFA"/>
<path fill-rule="evenodd" clip-rule="evenodd" d="M4.02499 7.34375C3.94687 7.34375 3.90781 7.30469 3.86874 7.26562C3.75156 7.1875 3.75156 7.03125 3.86874 6.95312L4.72812 6.05469C4.80624 5.97656 4.96249 5.97656 5.07968 6.05469C5.15781 6.17188 5.15781 6.32812 5.07968 6.40625L4.18124 7.26562C4.14218 7.30469 4.06406 7.34375 4.02499 7.34375Z" fill="#F9AF44"/>
<path fill-rule="evenodd" clip-rule="evenodd" d="M4.88437 7.34375C4.84531 7.34375 4.76718 7.30469 4.72812 7.26562L3.86874 6.40625C3.75156 6.32812 3.75156 6.17188 3.86874 6.05469C3.94687 5.97656 4.10312 5.97656 4.18124 6.05469L5.07968 6.95312C5.15781 7.03125 5.15781 7.1875 5.07968 7.26562C5.00156 7.30469 4.96249 7.34375 4.88437 7.34375Z" fill="#F9AF44"/>
<path fill-rule="evenodd" clip-rule="evenodd" d="M17.5797 7.34375C17.5406 7.34375 17.4625 7.30469 17.4234 7.26562C17.3453 7.1875 17.3453 7.03125 17.4234 6.95312L18.2828 6.05469C18.4 5.97656 18.5172 5.97656 18.6344 6.05469C18.7125 6.17188 18.7125 6.32812 18.6344 6.40625L17.7359 7.26562C17.6969 7.30469 17.6578 7.34375 17.5797 7.34375Z" fill="#F9AF44"/>
<path fill-rule="evenodd" clip-rule="evenodd" d="M18.4391 7.34375C18.4 7.34375 18.3219 7.30469 18.2828 7.26562L17.4234 6.40625C17.3453 6.32812 17.3453 6.17188 17.4234 6.05469C17.5016 5.97656 17.6578 5.97656 17.7359 6.05469L18.6344 6.95312C18.7125 7.03125 18.7125 7.1875 18.6344 7.26562C18.5953 7.30469 18.5172 7.34375 18.4391 7.34375Z" fill="#F9AF44"/>
<path fill-rule="evenodd" clip-rule="evenodd" d="M4.02499 4.72656C3.94687 4.72656 3.90781 4.6875 3.86874 4.64844C3.75156 4.57031 3.75156 4.41406 3.86874 4.33594L4.72812 3.4375C4.80624 3.35938 4.96249 3.35938 5.07968 3.4375C5.15781 3.55469 5.15781 3.67188 5.07968 3.78906L4.18124 4.64844C4.14218 4.6875 4.06406 4.72656 4.02499 4.72656Z" fill="#F9AF44"/>
<path fill-rule="evenodd" clip-rule="evenodd" d="M4.88437 4.72656C4.84531 4.72656 4.76718 4.6875 4.72812 4.64844L3.86874 3.78906C3.75156 3.67188 3.75156 3.55469 3.86874 3.4375C3.94687 3.35938 4.10312 3.35938 4.18124 3.4375L5.07968 4.33594C5.15781 4.41406 5.15781 4.57031 5.07968 4.64844C5.00156 4.6875 4.96249 4.72656 4.88437 4.72656Z" fill="#F9AF44"/>
<path fill-rule="evenodd" clip-rule="evenodd" d="M17.5797 4.72656C17.5406 4.72656 17.4625 4.6875 17.4234 4.64844C17.3453 4.57031 17.3453 4.41406 17.4234 4.33594L18.2828 3.4375C18.4 3.35938 18.5172 3.35938 18.6344 3.4375C18.7125 3.55469 18.7125 3.67188 18.6344 3.78906L17.7359 4.64844C17.6969 4.6875 17.6578 4.72656 17.5797 4.72656Z" fill="#F9AF44"/>
<path fill-rule="evenodd" clip-rule="evenodd" d="M18.4391 4.72656C18.4 4.72656 18.3219 4.6875 18.2828 4.64844L17.4234 3.78906C17.3453 3.67188 17.3453 3.55469 17.4234 3.4375C17.5016 3.35938 17.6578 3.35938 17.7359 3.4375L18.6344 4.33594C18.7125 4.41406 18.7125 4.57031 18.6344 4.64844C18.5953 4.6875 18.5172 4.72656 18.4391 4.72656Z" fill="#F9AF44"/>
<path fill-rule="evenodd" clip-rule="evenodd" d="M5.66562 19.2188C3.04843 19.2188 0.899994 17.0703 0.899994 14.4531C0.899994 11.8359 3.04843 9.6875 5.66562 9.6875C8.28281 9.6875 10.4312 11.8359 10.4312 14.4531C10.4312 17.0703 8.28281 19.2188 5.66562 19.2188Z" fill="#FFA721"/>
<path fill-rule="evenodd" clip-rule="evenodd" d="M5.66562 10.4688C3.47812 10.4688 1.68124 12.2656 1.68124 14.4531C1.68124 16.6797 3.47812 18.4766 5.66562 18.4766C7.89218 18.4766 9.64999 16.6797 9.64999 14.4531C9.64999 12.2656 7.85312 10.4688 5.66562 10.4688Z" fill="#FF871B"/>
<path fill-rule="evenodd" clip-rule="evenodd" d="M4.76718 16.8359C4.53281 16.8359 4.37656 16.6797 4.37656 16.4453V12.6562C4.37656 12.4219 4.53281 12.2656 4.76718 12.2656C4.96249 12.2656 5.11874 12.4219 5.11874 12.6562V16.4453C5.11874 16.6797 4.96249 16.8359 4.76718 16.8359Z" fill="#FAFAFA"/>
<path fill-rule="evenodd" clip-rule="evenodd" d="M6.36874 14.8047H4.76718C4.53281 14.8047 4.37656 14.6484 4.37656 14.4141V12.6562C4.37656 12.5391 4.41562 12.4609 4.49374 12.3828C4.53281 12.3047 4.64999 12.2656 4.76718 12.2656H6.36874C7.07187 12.2656 7.65781 12.8516 7.65781 13.5156C7.65781 14.2188 7.07187 14.8047 6.36874 14.8047ZM5.11874 14.0234H6.36874C6.64218 14.0234 6.87656 13.8281 6.87656 13.5156C6.87656 13.2422 6.64218 13.0469 6.36874 13.0469H5.11874V14.0234Z" fill="#FAFAFA"/>
<path fill-rule="evenodd" clip-rule="evenodd" d="M6.44687 16.8359H4.76718C4.53281 16.8359 4.37656 16.6797 4.37656 16.4453V14.4141C4.37656 14.2188 4.53281 14.0234 4.76718 14.0234H6.44687C7.18906 14.0234 7.81406 14.6484 7.81406 15.4297C7.81406 16.2109 7.18906 16.8359 6.44687 16.8359ZM5.11874 16.0547H6.44687C6.79843 16.0547 7.07187 15.7812 7.07187 15.4297C7.07187 15.0781 6.79843 14.8047 6.44687 14.8047H5.11874V16.0547Z" fill="#FAFAFA"/>
<path fill-rule="evenodd" clip-rule="evenodd" d="M4.76718 13.0469H4.06406C3.86874 13.0469 3.67343 12.8516 3.67343 12.6562C3.67343 12.4219 3.86874 12.2656 4.06406 12.2656H4.76718C4.96249 12.2656 5.11874 12.4219 5.11874 12.6562C5.11874 12.8516 4.96249 13.0469 4.76718 13.0469Z" fill="#FAFAFA"/>
<path fill-rule="evenodd" clip-rule="evenodd" d="M4.76718 16.8359H4.06406C3.86874 16.8359 3.67343 16.6797 3.67343 16.4453C3.67343 16.25 3.86874 16.0547 4.06406 16.0547H4.76718C4.96249 16.0547 5.11874 16.25 5.11874 16.4453C5.11874 16.6797 4.96249 16.8359 4.76718 16.8359Z" fill="#FAFAFA"/>
<path fill-rule="evenodd" clip-rule="evenodd" d="M5.27499 13.0469C5.07968 13.0469 4.88437 12.8516 4.88437 12.6562V12.0312C4.88437 11.7969 5.07968 11.6406 5.27499 11.6406C5.47031 11.6406 5.66562 11.7969 5.66562 12.0312V12.6562C5.66562 12.8516 5.47031 13.0469 5.27499 13.0469Z" fill="#FAFAFA"/>
<path fill-rule="evenodd" clip-rule="evenodd" d="M6.21249 13.0469C6.01718 13.0469 5.82187 12.8516 5.82187 12.6562V12.0312C5.82187 11.7969 6.01718 11.6406 6.21249 11.6406C6.44687 11.6406 6.60312 11.7969 6.60312 12.0312V12.6562C6.60312 12.8516 6.44687 13.0469 6.21249 13.0469Z" fill="#FAFAFA"/>
<path fill-rule="evenodd" clip-rule="evenodd" d="M5.27499 17.4609C5.07968 17.4609 4.88437 17.3047 4.88437 17.0703V16.4453C4.88437 16.25 5.07968 16.0547 5.27499 16.0547C5.47031 16.0547 5.66562 16.25 5.66562 16.4453V17.0703C5.66562 17.3047 5.47031 17.4609 5.27499 17.4609Z" fill="#FAFAFA"/>
<path fill-rule="evenodd" clip-rule="evenodd" d="M6.21249 17.4609C6.01718 17.4609 5.82187 17.3047 5.82187 17.0703V16.4453C5.82187 16.25 6.01718 16.0547 6.21249 16.0547C6.44687 16.0547 6.60312 16.25 6.60312 16.4453V17.0703C6.60312 17.3047 6.44687 17.4609 6.21249 17.4609Z" fill="#FAFAFA"/>
</svg>
