<svg width="21" height="20" viewBox="0 0 21 20" fill="none" xmlns="http://www.w3.org/2000/svg">
<g clip-path="url(#clip0_111_8866)">
<path d="M9.18648 19.0491C8.75059 19.0491 8.39723 18.6958 8.39723 18.2599V11.9513C8.39723 11.5154 8.75059 11.162 9.18648 11.162C9.62238 11.162 9.97574 11.5154 9.97574 11.9513V18.2599C9.97574 18.6958 9.62238 19.0491 9.18648 19.0491Z" fill="#FFB69E"/>
<path d="M11.1057 19.0491C10.6698 19.0491 10.3165 18.6958 10.3165 18.2599V11.9513C10.3165 11.5154 10.6698 11.162 11.1057 11.162C11.5416 11.162 11.895 11.5154 11.895 11.9513V18.2599C11.895 18.6958 11.5417 19.0491 11.1057 19.0491Z" fill="#FFB69E"/>
<path d="M10.1461 5.2309C10.899 5.2309 11.5093 4.62061 11.5093 3.86777C11.5093 3.11493 10.899 2.50464 10.1461 2.50464C9.39328 2.50464 8.78299 3.11493 8.78299 3.86777C8.78299 4.62061 9.39328 5.2309 10.1461 5.2309Z" fill="#FFB69E"/>
<path d="M8.11535 9.17114C8.18003 8.99161 8.31525 8.6134 8.31525 8.6134L7.93102 7.90891L7.12957 8.02338L5.31839 7.10134C4.99462 6.93658 4.59863 7.06538 4.43387 7.38908C4.26907 7.71277 4.39788 8.10881 4.72157 8.2736L7.19808 9.53435C7.36647 9.62005 7.56336 9.62912 7.73863 9.55971C7.91417 9.49023 8.05134 9.34872 8.11535 9.17114Z" fill="#FFB69E"/>
<path d="M15.4571 8.33924L13.3035 8.41537C13.2594 8.29172 13.177 8.06021 13.177 8.06021L12.4619 7.94403L12.0058 8.68392C12.0058 8.68392 12.1655 9.13963 12.2274 9.31189C12.3249 9.58369 12.5869 9.75728 12.8697 9.74696L15.5036 9.65388C15.8667 9.64106 16.1505 9.33636 16.1377 8.97335C16.1249 8.61026 15.8214 8.32619 15.4571 8.33924Z" fill="#FFB69E"/>
<path d="M10.7286 5.66541H9.48001L9.46223 5.87741C9.4305 6.25562 9.72891 6.5801 10.1084 6.5801C10.4987 6.5801 10.8006 6.23765 10.7519 5.85041C10.7382 5.74216 10.7286 5.66595 10.7286 5.66541Z" fill="#FFB69E"/>
<path d="M11.8011 8.05184L12.0033 8.68477L13.1769 8.06024C13.0245 7.63138 12.9004 7.27747 12.8063 7.00361C12.5011 6.11564 11.9895 5.66541 11.2855 5.66541H10.7286C10.7388 5.9995 10.4284 6.28259 10.104 6.28259C9.75642 6.28259 9.49865 6.00055 9.47997 5.66541H9.00668C8.30274 5.66541 7.79111 6.11564 7.48594 7.00361C7.35338 7.38924 7.259 7.6601 7.12961 8.02339L8.31525 8.61341L8.49654 8.03171L7.53663 13.0708C7.49282 13.297 7.66715 13.5061 7.89534 13.5061H12.3969C12.6258 13.5061 12.7994 13.2972 12.7556 13.0708L11.8011 8.05184Z" fill="#FF6473"/>
<path d="M1.62131 19.0425C1.16084 18.9848 0.834292 18.5647 0.892013 18.1042L1.32236 14.6697C1.3306 14.6038 1.34662 14.5391 1.37011 14.477L2.32807 11.9425C2.49208 11.5084 2.97694 11.2894 3.4112 11.4536C3.84529 11.6177 4.06421 12.1026 3.90012 12.5367L2.97753 14.9777L2.55961 18.3132C2.50178 18.7744 2.08097 19.1001 1.62131 19.0425Z" fill="#5F6E9B"/>
<path d="M6.21093 19.0459C5.74862 19.0055 5.4066 18.5979 5.447 18.1356L5.71786 15.0378L4.29705 12.3924C4.07746 11.9835 4.23089 11.4741 4.63974 11.2545C5.04855 11.035 5.55803 11.1883 5.77758 11.5972L7.31712 14.4635C7.39453 14.6077 7.42822 14.7713 7.41399 14.9343L7.12133 18.282C7.08092 18.7431 6.67441 19.0863 6.21093 19.0459Z" fill="#414B82"/>
<path d="M2.20938 5.62057L1.78842 5.0944L1.98933 2.87496C2.02004 2.53547 1.78611 2.21944 1.44854 2.17199C1.08753 2.12131 0.760588 2.38326 0.728113 2.74259L0.502585 5.23415C0.487813 5.39715 0.536702 5.55956 0.638934 5.68739L1.14755 6.3231L1.91035 6.36781L2.20938 5.62057Z" fill="#FFB69E"/>
<path d="M4.72329 6.75928L3.39756 6.77358L3.38099 6.94475C3.34206 7.34719 3.65841 7.69558 4.06273 7.69558C4.47189 7.69558 4.7898 7.33918 4.74318 6.93267L4.72329 6.75928Z" fill="#FFB69E"/>
<path d="M6.6106 1.26181C6.60857 1.26181 6.60657 1.26181 6.60458 1.26181C6.2572 1.26181 5.97395 1.54182 5.97071 1.8899L5.94441 4.71402L5.53036 5.41346L5.79876 6.15164L6.66969 5.97801L7.12234 5.2133C7.1792 5.11724 7.20969 5.00786 7.21074 4.89625L7.23864 1.90178C7.24189 1.55159 6.96071 1.26509 6.6106 1.26181Z" fill="#FFB69E"/>
<path d="M6.66972 5.9779L5.5304 5.41336L4.73376 6.75914L4.72333 6.75926C4.73892 7.11731 4.40667 7.42213 4.0598 7.42213C3.69304 7.42213 3.42061 7.12645 3.3976 6.77356L3.13424 6.77642L2.20942 5.62056L1.14763 6.32309L2.16483 7.59439L2.19828 11.4139C2.20395 12.0587 2.73188 12.5764 3.37661 12.5694L4.61711 12.5561C5.26161 12.5491 5.7782 12.0205 5.77027 11.376L5.72353 7.57637L6.66972 5.9779Z" fill="#64AFFF"/>
<path d="M4.94723 6.01211C5.58483 5.57545 5.74772 4.7046 5.31107 4.067C4.87441 3.4294 4.00355 3.26651 3.36596 3.70317C2.72836 4.13982 2.56547 5.01068 3.00212 5.64828C3.43878 6.28587 4.30964 6.44877 4.94723 6.01211Z" fill="#FFB69E"/>
<path d="M19.6602 19.0491C19.3568 19.0491 19.0639 18.8843 18.9142 18.5966L17.018 14.9535C16.9923 14.904 16.9716 14.8522 16.956 14.7986L16.1769 12.0992C16.0482 11.6533 16.3053 11.1875 16.7512 11.0588C17.197 10.9299 17.6628 11.1873 17.7916 11.6331L18.5475 14.252L20.4049 17.8207C20.6191 18.2324 20.4591 18.7398 20.0475 18.954C19.9235 19.0185 19.7909 19.0491 19.6602 19.0491Z" fill="#55696E"/>
<path d="M14.1498 19.0491C13.6857 19.0491 13.3095 18.6729 13.3095 18.2088V14.3913C13.3095 14.2934 13.3266 14.1964 13.3599 14.1045L14.502 10.9594C14.6604 10.5232 15.1424 10.2979 15.5786 10.4563C16.0148 10.6147 16.2401 11.0968 16.0817 11.533L14.9901 14.5391V18.2088C14.9901 18.6729 14.6138 19.0491 14.1498 19.0491Z" fill="#748488"/>
<path d="M18.0799 5.01705C18.351 4.30298 17.9919 3.50432 17.2778 3.2332C16.5637 2.96208 15.7651 3.32117 15.494 4.03524C15.2228 4.74931 15.5819 5.54797 16.296 5.81909C17.0101 6.09021 17.8087 5.73112 18.0799 5.01705Z" fill="#BA6746"/>
<path d="M19.9416 4.72796L19.6865 1.53442C19.6586 1.18544 19.3542 0.925012 19.004 0.952915C18.655 0.980779 18.3947 1.28634 18.4225 1.63536L18.6632 4.6487L18.2923 5.36871L18.6234 5.9105H19.4395L19.8732 5.06877C19.9273 4.96372 19.951 4.8457 19.9416 4.72796Z" fill="#BA6746"/>
<path d="M16.8078 7.53595C17.1781 7.57182 17.5023 7.28889 17.5169 6.91716L17.5256 6.69668L16.2805 6.50644L16.2327 6.78039C16.1679 7.15168 16.4327 7.49961 16.8078 7.53595Z" fill="#BA6746"/>
<path d="M15.1815 5.05607L14.7594 4.46304L14.9936 1.95468C15.0261 1.60605 14.7699 1.29705 14.4212 1.2645C14.0723 1.23202 13.7636 1.48819 13.731 1.83681L13.475 4.57977C13.4608 4.73112 13.5016 4.88252 13.5897 5.00632L14.0719 5.6838L14.8652 5.78158L15.1815 5.05607Z" fill="#BA6746"/>
<path d="M18.2923 5.36871L17.6022 6.70835L17.5256 6.69667C17.4822 6.99004 17.199 7.22354 16.9039 7.22354C16.552 7.22354 16.2914 6.93591 16.2761 6.59576C16.2748 6.56548 16.2769 6.53578 16.2806 6.50643L16.2057 6.49498L15.1816 5.05603L14.072 5.68376L15.1157 7.1503C15.1149 7.15523 15.1139 7.16011 15.1131 7.16507L14.5157 10.9979C14.4283 11.5585 14.814 12.083 15.3751 12.1668L16.855 12.3878C17.4139 12.4713 17.9345 12.0857 18.0176 11.5267L18.6139 7.51327L19.4396 5.9105L18.2923 5.36871Z" fill="#FFDA52"/>
</g>
<defs>
<clipPath id="clip0_111_8866">
<rect width="20" height="20" fill="white" transform="translate(0.500006)"/>
</clipPath>
</defs>
</svg>
